<?xml version="1.0" encoding="utf-8"?>
<!-- Generator: Adobe Illustrator 16.0.0, SVG Export Plug-In . SVG Version: 6.00 Build 0)  -->
<!DOCTYPE svg PUBLIC "-//W3C//DTD SVG 1.1//EN" "http://www.w3.org/Graphics/SVG/1.1/DTD/svg11.dtd">
<svg version="1.1" id="Ebene_1" xmlns="http://www.w3.org/2000/svg" xmlns:xlink="http://www.w3.org/1999/xlink" x="0px" y="0px"
	 width="46px" height="75px" viewBox="0 0 46 75" enable-background="new 0 0 46 75" xml:space="preserve">
<g>
	<path fill="#16B4B6" d="M38.164,65.979c1.291,0,2.336,0.9,2.336,2.012l0,0c0,1.109-1.045,2.01-2.336,2.01H7.832
		C6.543,70,5.5,69.1,5.5,67.99l0,0c0-1.111,1.043-2.012,2.332-2.012H38.164z"/>
	<path fill="#16B4B6" d="M38.164,59.279c1.291,0,2.336,0.898,2.336,2.01l0,0c0,1.111-1.045,2.01-2.336,2.01H7.832
		c-1.289,0-2.332-0.898-2.332-2.01l0,0c0-1.111,1.043-2.01,2.332-2.01H38.164z"/>
	<path fill="#16B4B6" d="M38.164,52.578c1.291,0,2.336,0.898,2.336,2.01l0,0c0,1.111-1.045,2.01-2.336,2.01H7.832
		c-1.289,0-2.332-0.898-2.332-2.01l0,0c0-1.111,1.043-2.01,2.332-2.01H38.164z"/>
	<path fill="#16B4B6" d="M38.164,45.877c1.291,0,2.336,0.898,2.336,2.01l0,0c0,1.111-1.045,2.01-2.336,2.01H7.832
		c-1.289,0-2.332-0.898-2.332-2.01l0,0c0-1.111,1.043-2.01,2.332-2.01H38.164z"/>
	<path fill="#16B4B6" d="M38.164,39.176c1.291,0,2.336,0.898,2.336,2.01l0,0c0,1.111-1.045,2.01-2.336,2.01H7.832
		c-1.289,0-2.332-0.898-2.332-2.01l0,0c0-1.111,1.043-2.01,2.332-2.01H38.164z"/>
	<path fill="#16B4B6" d="M38.164,32.474c1.291,0,2.336,0.899,2.336,2.01l0,0c0,1.111-1.045,2.011-2.336,2.011H7.832
		c-1.289,0-2.332-0.899-2.332-2.011l0,0c0-1.11,1.043-2.01,2.332-2.01H38.164z"/>
	<path fill="#16B4B6" d="M38.164,25.773c1.291,0,2.336,0.899,2.336,2.011l0,0c0,1.11-1.045,2.011-2.336,2.011H7.832
		c-1.289,0-2.332-0.9-2.332-2.011l0,0c0-1.111,1.043-2.011,2.332-2.011H38.164z"/>
	<path fill="#16B4B6" d="M38.164,19.072c1.291,0,2.336,0.899,2.336,2.011l0,0c0,1.111-1.045,2.011-2.336,2.011H7.832
		c-1.289,0-2.332-0.899-2.332-2.011l0,0c0-1.111,1.043-2.011,2.332-2.011H38.164z"/>
	<path fill="#16B4B6" d="M38.164,12.371c1.291,0,2.336,0.9,2.336,2.011l0,0c0,1.111-1.045,2.011-2.336,2.011H7.832
		c-1.289,0-2.332-0.899-2.332-2.011l0,0c0-1.11,1.043-2.011,2.332-2.011H38.164z"/>
	<path fill="#16B4B6" d="M38.164,5C39.455,5,40.5,5.9,40.5,7.01l0,0c0,1.111-1.045,2.011-2.336,2.011H7.832
		C6.543,9.021,5.5,8.122,5.5,7.01l0,0C5.5,5.9,6.543,5,7.832,5H38.164z"/>
</g>
</svg>
