<?xml version="1.0" encoding="utf-8"?>
<!-- Generator: Adobe Illustrator 19.2.1, SVG Export Plug-In . SVG Version: 6.00 Build 0)  -->
<svg version="1.1" id="Ebene_1" xmlns="http://www.w3.org/2000/svg" xmlns:xlink="http://www.w3.org/1999/xlink" x="0px" y="0px"
	 viewBox="0 0 46 46" style="enable-background:new 0 0 46 46;" xml:space="preserve">
<style type="text/css">
	.st0{fill:#FFFFFF;}
</style>
<path class="st0" d="M38.5,30c0,1.1-0.9,2-2,2h-1c-1.1,0-2-0.9-2-2V16c0-1.1,0.9-2,2-2h1c1.1,0,2,0.9,2,2V30z"/>
<path class="st0" d="M9.3,16c-1-0.5-1.7-0.1-1.7,1v12c0,1.1,0.8,1.6,1.7,1l10.5-6c1-0.5,1-1.4,0-2L9.3,16z"/>
<path class="st0" d="M22.2,16c-1-0.5-1.7-0.1-1.7,1v12c0,1.1,0.8,1.6,1.7,1l10.5-6c1-0.5,1-1.4,0-2L22.2,16z"/>
</svg>
