<?xml version="1.0" encoding="utf-8"?>
<!-- Generator: Adobe Illustrator 19.2.1, SVG Export Plug-In . SVG Version: 6.00 Build 0)  -->
<svg version="1.1" id="Ebene_1" xmlns="http://www.w3.org/2000/svg" xmlns:xlink="http://www.w3.org/1999/xlink" x="0px" y="0px"
	 viewBox="0 0 46 46" style="enable-background:new 0 0 46 46;" xml:space="preserve">
<style type="text/css">
	.st0{display:none;fill:#FFFFFF;}
	.st1{fill:#FFFFFF;}
</style>
<path class="st0" d="M28.1,25c0,0.5-0.5,1-1,1h-8c-0.5,0-1-0.5-1-1v-4c0-0.6,0.5-1,1-1h8c0.5,0,1,0.4,1,1V25z"/>
<path class="st1" d="M14.7,17h-1.6c-0.6,0-1,0.4-1,1s0.4,1,1,1h5v-5c0-0.6-0.4-1-1-1s-1,0.4-1,1v1.6l-2.3-2.3
	c-0.2-0.2-0.5-0.3-0.7-0.3s-0.5,0.1-0.7,0.3c-0.4,0.4-0.4,1,0,1.4L14.7,17z"/>
<path class="st1" d="M31.5,17h1.6c0.6,0,1,0.4,1,1s-0.4,1-1,1h-5v-5c0-0.6,0.4-1,1-1s1,0.4,1,1v1.6l2.3-2.3c0.2-0.2,0.5-0.3,0.7-0.3
	s0.5,0.1,0.7,0.3c0.4,0.4,0.4,1,0,1.4L31.5,17z"/>
<path class="st1" d="M14.7,29h-1.6c-0.6,0-1-0.4-1-1s0.4-1,1-1h5v5c0,0.6-0.4,1-1,1s-1-0.4-1-1v-1.6l-2.3,2.3
	c-0.2,0.2-0.5,0.3-0.7,0.3s-0.5-0.1-0.7-0.3c-0.4-0.4-0.4-1,0-1.4L14.7,29z"/>
<path class="st1" d="M31.5,29h1.6c0.6,0,1-0.4,1-1s-0.4-1-1-1h-5v5c0,0.6,0.4,1,1,1s1-0.4,1-1v-1.6l2.3,2.3c0.2,0.2,0.5,0.3,0.7,0.3
	s0.5-0.1,0.7-0.3c0.4-0.4,0.4-1,0-1.4L31.5,29z"/>
<path class="st1" d="M28.1,25c0,0.5-0.5,1-1,1h-8c-0.5,0-1-0.5-1-1v-4c0-0.5,0.5-1,1-1h8c0.5,0,1,0.5,1,1V25z"/>
</svg>
