<?xml version="1.0" encoding="utf-8"?>
<!-- Generator: Adobe Illustrator 19.2.1, SVG Export Plug-In . SVG Version: 6.00 Build 0)  -->
<svg version="1.1" id="Ebene_1" xmlns="http://www.w3.org/2000/svg" xmlns:xlink="http://www.w3.org/1999/xlink" x="0px" y="0px"
	 viewBox="0 0 46 46" style="enable-background:new 0 0 46 46;" xml:space="preserve">
<style type="text/css">
	.st0{fill:#FFFFFF;}
	.st1{fill:none;}
</style>
<path class="st0" d="M15.4,15H17c0.6,0,1-0.4,1-1s-0.4-1-1-1h-5v5c0,0.6,0.4,1,1,1s1-0.4,1-1v-1.6l2.3,2.3c0.2,0.2,0.5,0.3,0.7,0.3
	c0.3,0,0.5-0.1,0.7-0.3c0.4-0.4,0.4-1,0-1.4L15.4,15z"/>
<path class="st0" d="M30.6,15H29c-0.6,0-1-0.4-1-1s0.4-1,1-1h5v5c0,0.6-0.4,1-1,1s-1-0.4-1-1v-1.6l-2.3,2.3C29.5,18.9,29.3,19,29,19
	c-0.3,0-0.5-0.1-0.7-0.3c-0.4-0.4-0.4-1,0-1.4L30.6,15z"/>
<path class="st0" d="M15.4,31H17c0.6,0,1,0.4,1,1c0,0.6-0.4,1-1,1h-5v-5c0-0.6,0.4-1,1-1s1,0.4,1,1v1.6l2.3-2.3
	c0.2-0.2,0.5-0.3,0.7-0.3c0.3,0,0.5,0.1,0.7,0.3c0.4,0.4,0.4,1,0,1.4L15.4,31z"/>
<path class="st0" d="M30.6,31H29c-0.6,0-1,0.4-1,1c0,0.6,0.4,1,1,1h5v-5c0-0.6-0.4-1-1-1s-1,0.4-1,1v1.6l-2.3-2.3
	C29.5,27.1,29.3,27,29,27c-0.3,0-0.5,0.1-0.7,0.3c-0.4,0.4-0.4,1,0,1.4L30.6,31z"/>
<path class="st0" d="M28,25c0,0.5-0.5,1-1,1h-8c-0.5,0-1-0.5-1-1v-4c0-0.6,0.5-1,1-1h8c0.5,0,1,0.4,1,1V25z"/>
<rect y="0" class="st1" width="46" height="46"/>
<rect y="0" class="st1" width="46" height="46"/>
</svg>
