<?xml version="1.0" encoding="utf-8"?>
<!-- Generator: Adobe Illustrator 19.2.1, SVG Export Plug-In . SVG Version: 6.00 Build 0)  -->
<svg version="1.1" id="Ebene_1" xmlns="http://www.w3.org/2000/svg" xmlns:xlink="http://www.w3.org/1999/xlink" x="0px" y="0px"
	 viewBox="0 0 46 46" style="enable-background:new 0 0 46 46;" xml:space="preserve">
<style type="text/css">
	.st0{fill:#FFFFFF;}
</style>
<polygon id="Plus" class="st0" points="35,17 31,17 31,13 30,13 30,17 26,17 26,18 30,18 30,22 31,22 31,18 35,18 "/>
<path id="g" class="st0" d="M21.9,25.1c-0.6-0.4-1.7-1.4-1.7-2c0-0.7,0.2-1,1.2-1.8c1.1-0.8,1.8-2.1,1.8-3.5c0-1.6-0.7-2.8-2-3.8h2
	l1.4-1c0,0-4.8,0-6.4,0c-2.9,0-5.5,2.3-5.5,4.8c0,2.6,1.9,4.7,4.8,4.7c0.2,0,0.4,0,0.6,0c-0.2,0.4-0.3,0.8-0.3,1.2
	c0,0.7,0.4,1.3,0.9,1.8c-0.4,0-0.7,0-1.1,0c-3.5,0-6.2,2.2-6.2,4.6c0,2.3,3,3.7,6.5,3.7c4,0,6.2-2.3,6.2-4.6
	C24.1,27.4,23.5,26.3,21.9,25.1z M18.5,21.9c-1.6,0-3.2-1.8-3.5-4c-0.3-2.2,0.8-3.8,2.5-3.7c1.6,0,3.2,1.8,3.5,3.9
	C21.2,20.2,20.1,21.9,18.5,21.9z M17.8,32.8c-2.4,0-4.2-1.5-4.2-3.4c0-1.8,2.2-3.3,4.6-3.3c0.6,0,1.1,0.1,1.6,0.3
	c1.3,0.9,2.3,1.4,2.5,2.5c0.1,0.2,0.1,0.4,0.1,0.7C22.5,31.3,21.3,32.8,17.8,32.8z"/>
</svg>
