<?xml version="1.0" encoding="utf-8"?>
<!-- Generator: Adobe Illustrator 19.2.1, SVG Export Plug-In . SVG Version: 6.00 Build 0)  -->
<svg version="1.1" id="Ebene_1" xmlns="http://www.w3.org/2000/svg" xmlns:xlink="http://www.w3.org/1999/xlink" x="0px" y="0px"
	 viewBox="0 0 46 46" style="enable-background:new 0 0 46 46;" xml:space="preserve">
<style type="text/css">
	.st0{fill:#FFFFFF;}
</style>
<path class="st0" d="M26.4,11.8c0,1.9-1.6,3.5-3.5,3.5c-1.9,0-3.5-1.5-3.5-3.5c0-1.9,1.5-3.5,3.5-3.5C24.9,8.3,26.4,9.9,26.4,11.8z"
	/>
<path class="st0" d="M24.5,16.1h-3.2c-2.2,0-4.5,1.9-4.5,4.2v4.5c0,1.4,1.2,2.6,2.1,3.3v10.6h2.8l1.2-7.6l1.2,7.6h2.8V28.1
	c0.9-0.8,2.1-2,2.1-3.3v-4.5C29,18,26.7,16.1,24.5,16.1z"/>
</svg>
