<?xml version="1.0" encoding="utf-8"?>
<!-- Generator: Adobe Illustrator 19.2.1, SVG Export Plug-In . SVG Version: 6.00 Build 0)  -->
<svg version="1.1" id="Ebene_1" xmlns="http://www.w3.org/2000/svg" xmlns:xlink="http://www.w3.org/1999/xlink" x="0px" y="0px"
	 viewBox="0 0 46 46" style="enable-background:new 0 0 46 46;" xml:space="preserve">
<style type="text/css">
	.st0{fill:none;}
	.st1{fill:#FFFFFF;}
</style>
<rect y="0" class="st0" width="46" height="46"/>
<path class="st1" d="M21.9,30.7c0,1.2-1,2.2-2.2,2.2h-1.1c-1.2,0-2.2-1-2.2-2.2V15.3c0-1.2,1-2.2,2.2-2.2h1.1c1.2,0,2.2,1,2.2,2.2
	V30.7z"/>
<path class="st1" d="M29.6,30.7c0,1.2-1,2.2-2.2,2.2h-1.1c-1.2,0-2.2-1-2.2-2.2V15.3c0-1.2,1-2.2,2.2-2.2h1.1c1.2,0,2.2,1,2.2,2.2
	V30.7z"/>
</svg>
