<?xml version="1.0" encoding="utf-8"?>
<!-- Generator: Adobe Illustrator 19.2.1, SVG Export Plug-In . SVG Version: 6.00 Build 0)  -->
<svg version="1.1" id="Ebene_1" xmlns="http://www.w3.org/2000/svg" xmlns:xlink="http://www.w3.org/1999/xlink" x="0px" y="0px"
	 viewBox="0 0 46 46" style="enable-background:new 0 0 46 46;" xml:space="preserve">
<style type="text/css">
	.st0{fill:#FFFFFF;}
</style>
<path class="st0" d="M32.5,12.9h-9c-0.6,0-1,0.4-1,1v2.5h-7c-1.7,0-3,1.3-3,3v10c0,1.7,1.3,3,3,3h12c1.7,0,3-1.3,3-3v-6.5h2
	c0.6,0,1-0.4,1-1v-8C33.5,13.4,33,12.9,32.5,12.9z M28,28.9c0,0.5-0.5,1-1,1H16c-0.6,0-1-0.5-1-1v-9c0-0.6,0.4-1,1-1h6.5v3
	c0,0.6,0.4,1,1,1H28V28.9z"/>
</svg>
