<?xml version="1.0" encoding="utf-8"?>
<!-- Generator: Adobe Illustrator 19.2.1, SVG Export Plug-In . SVG Version: 6.00 Build 0)  -->
<svg version="1.1" id="Ebene_1" xmlns="http://www.w3.org/2000/svg" xmlns:xlink="http://www.w3.org/1999/xlink" x="0px" y="0px"
	 viewBox="0 0 46 46" style="enable-background:new 0 0 46 46;" xml:space="preserve">
<style type="text/css">
	.st0{fill:#FFFFFF;}
</style>
<path class="st0" d="M34,25.2c0.1-0.7,0.2-1.5,0.2-2.2s-0.1-1.5-0.2-2.2h-2.3c-0.2-0.8-0.5-1.6-1-2.3l1.6-1.6
	c-0.8-1.3-1.9-2.3-3.2-3.2l-1.6,1.6c-0.7-0.4-1.5-0.7-2.3-1V12c-0.7-0.1-1.5-0.2-2.2-0.2s-1.5,0.1-2.2,0.2v2.3
	c-0.8,0.2-1.6,0.5-2.3,1l-1.6-1.6c-1.3,0.8-2.3,1.9-3.2,3.2l1.6,1.6c-0.4,0.7-0.7,1.5-1,2.3H12c-0.1,0.7-0.2,1.5-0.2,2.2
	s0.1,1.5,0.2,2.2h2.3c0.2,0.8,0.5,1.6,1,2.3l-1.6,1.6c0.8,1.3,1.9,2.3,3.2,3.2l1.6-1.6c0.7,0.4,1.5,0.7,2.3,1V34
	c0.7,0.1,1.5,0.2,2.2,0.2s1.5-0.1,2.2-0.2v-2.3c0.8-0.2,1.6-0.5,2.3-1l1.6,1.6c1.3-0.8,2.3-1.9,3.2-3.2l-1.6-1.6
	c0.4-0.7,0.7-1.5,1-2.3C31.7,25.2,34,25.2,34,25.2z M23,28.6c-3.1,0-5.6-2.5-5.6-5.6s2.5-5.6,5.6-5.6s5.6,2.5,5.6,5.6
	S26.1,28.6,23,28.6z"/>
</svg>
