<?xml version="1.0" encoding="utf-8"?>
<!-- Generator: Adobe Illustrator 19.2.1, SVG Export Plug-In . SVG Version: 6.00 Build 0)  -->
<svg version="1.1" id="Ebene_1" xmlns="http://www.w3.org/2000/svg" xmlns:xlink="http://www.w3.org/1999/xlink" x="0px" y="0px"
	 viewBox="0 0 46 46" style="enable-background:new 0 0 46 46;" xml:space="preserve">
<style type="text/css">
	.st0{fill:#FFFFFF;}
</style>
<path class="st0" d="M29.5,25.8c-1,0-1.9,0.4-2.5,1l-6.3-3c0-0.1,0-0.1,0-0.2c0-0.2,0-0.5-0.1-0.7l6.4-3.6c0.7,0.6,1.6,1,2.5,1
	c2.1,0,3.9-1.7,3.9-3.9s-1.7-4-3.9-4s-3.9,1.9-3.9,4c0,0.1,0,0.3,0,0.4l-6.5,3.7c-0.7-0.5-1.5-0.8-2.3-0.8c-2.1,0-3.9,1.7-3.9,3.9
	s1.7,3.9,3.9,3.9c1.1,0,2.1-0.4,2.8-1.2l6.1,2.9c0,0.1,0,0.3,0,0.4c0,2.1,1.7,3.9,3.9,3.9s3.9-1.7,3.9-3.9S31.6,25.8,29.5,25.8z"/>
</svg>
