<?xml version="1.0" encoding="utf-8"?>
<!-- Generator: Adobe Illustrator 19.2.1, SVG Export Plug-In . SVG Version: 6.00 Build 0)  -->
<svg version="1.1" xmlns="http://www.w3.org/2000/svg" xmlns:xlink="http://www.w3.org/1999/xlink" x="0px" y="0px"
	 viewBox="0 0 46 75" style="enable-background:new 0 0 46 75;" xml:space="preserve">
<style type="text/css">
	.st0{fill:#FFFFFF;}
</style>
<g id="Ebene_2">
</g>
<g id="Ebene_1">
	<path class="st0" d="M38.2,66c1.3,0,2.3,0.9,2.3,2l0,0c0,1.1-1,2-2.3,2H7.8c-1.3,0-2.3-0.9-2.3-2l0,0c0-1.1,1-2,2.3-2L38.2,66
		L38.2,66z"/>
	<path class="st0" d="M38.2,59.3c1.3,0,2.3,0.9,2.3,2l0,0c0,1.1-1,2-2.3,2H7.8c-1.3,0-2.3-0.9-2.3-2l0,0c0-1.1,1-2,2.3-2H38.2z"/>
	<path class="st0" d="M38.2,52.6c1.3,0,2.3,0.9,2.3,2l0,0c0,1.1-1,2-2.3,2H7.8c-1.3,0-2.3-0.9-2.3-2l0,0c0-1.1,1-2,2.3-2H38.2z"/>
	<path class="st0" d="M38.2,45.9c1.3,0,2.3,0.9,2.3,2l0,0c0,1.1-1,2-2.3,2H7.8c-1.3,0-2.3-0.9-2.3-2l0,0c0-1.1,1-2,2.3-2H38.2z"/>
	<path class="st0" d="M38.2,39.2c1.3,0,2.3,0.9,2.3,2l0,0c0,1.1-1,2-2.3,2H7.8c-1.3,0-2.3-0.9-2.3-2l0,0c0-1.1,1-2,2.3-2H38.2z"/>
	<path class="st0" d="M38.2,32.5c1.3,0,2.3,0.9,2.3,2l0,0c0,1.1-1,2-2.3,2H7.8c-1.3,0-2.3-0.9-2.3-2l0,0c0-1.1,1-2,2.3-2H38.2z"/>
	<path class="st0" d="M38.2,25.8c1.3,0,2.3,0.9,2.3,2l0,0c0,1.1-1,2-2.3,2H7.8c-1.3,0-2.3-0.9-2.3-2l0,0c0-1.1,1-2,2.3-2H38.2z"/>
	<path class="st0" d="M38.2,19.1c1.3,0,2.3,0.9,2.3,2l0,0c0,1.1-1,2-2.3,2H7.8c-1.3,0-2.3-0.9-2.3-2l0,0c0-1.1,1-2,2.3-2H38.2z"/>
	<path class="st0" d="M38.2,12.4c1.3,0,2.3,0.9,2.3,2l0,0c0,1.1-1,2-2.3,2H7.8c-1.3,0-2.3-0.9-2.3-2l0,0c0-1.1,1-2,2.3-2H38.2z"/>
	<path class="st0" d="M38.2,5c1.3,0,2.3,0.9,2.3,2l0,0c0,1.1-1,2-2.3,2H7.8C6.5,9,5.5,8.1,5.5,7l0,0c0-1.1,1-2,2.3-2H38.2z"/>
</g>
</svg>
