<?xml version="1.0" encoding="utf-8"?>
<!-- Generator: Adobe Illustrator 19.2.1, SVG Export Plug-In . SVG Version: 6.00 Build 0)  -->
<svg version="1.1" id="Ebene_1" xmlns="http://www.w3.org/2000/svg" xmlns:xlink="http://www.w3.org/1999/xlink" x="0px" y="0px"
	 viewBox="0 0 46 46" style="enable-background:new 0 0 46 46;" xml:space="preserve">
<style type="text/css">
	.st0{fill:#FFFFFF;}
</style>
<path class="st0" d="M22.9,25.3c0,2.5-0.7,4.4-2,5.5c-1.3,1.2-3.2,1.8-5.6,1.8c-1.4,0-2.6-0.2-3.5-0.5c-0.9-0.4-1.6-0.8-2.1-1.4
	c-0.5-0.6-0.9-1.3-1.1-2.1c-0.2-0.8-0.3-1.6-0.3-2.5V14.2h3.5v11.7c0,0.6,0.1,1.1,0.2,1.6c0.1,0.5,0.3,0.9,0.6,1.2s0.7,0.6,1.2,0.8
	c0.5,0.2,1.1,0.3,1.9,0.3c1.4,0,2.3-0.3,2.9-1c0.6-0.6,0.9-1.7,0.9-3.3V14.2h3.5L22.9,25.3L22.9,25.3z"/>
<path class="st0" d="M34.4,17.1v15.2h-3.5V17.1h-4.7v-3h13v3H34.4z"/>
</svg>
