<?xml version="1.0" encoding="utf-8"?>
<!-- Generator: Adobe Illustrator 19.2.1, SVG Export Plug-In . SVG Version: 6.00 Build 0)  -->
<svg version="1.1" id="Ebene_1" xmlns="http://www.w3.org/2000/svg" xmlns:xlink="http://www.w3.org/1999/xlink" x="0px" y="0px"
	 viewBox="0 0 46 46" style="enable-background:new 0 0 46 46;" xml:space="preserve">
<style type="text/css">
	.st0{fill:#FFFFFF;}
</style>
<g id="Ebene_2">
</g>
<g id="Ebene_1_1_">
	<path class="st0" d="M12.5,16.7H17v1.5h4.5v-1.5h12c0.8,0,1.5-0.7,1.5-1.5c0-0.8-0.7-1.5-1.5-1.5h-12v-1.5H17v1.5h-4.5
		c-0.8,0-1.5,0.7-1.5,1.5C11,16.1,11.7,16.7,12.5,16.7z"/>
	<path class="st0" d="M33.5,21.2h-3v-1.5H26v1.5H12.5c-0.8,0-1.5,0.7-1.5,1.5s0.7,1.5,1.5,1.5H26v1.5h4.5v-1.5h3
		c0.8,0,1.5-0.7,1.5-1.5S34.3,21.2,33.5,21.2z"/>
	<path class="st0" d="M33.5,28.7h-15v-1.5H14v1.5h-1.5c-0.8,0-1.5,0.7-1.5,1.5s0.7,1.5,1.5,1.5H14v1.5h4.5v-1.5h15
		c0.8,0,1.5-0.7,1.5-1.5S34.3,28.7,33.5,28.7z"/>
</g>
</svg>
