<?xml version="1.0" encoding="utf-8"?>
<!-- Generator: Adobe Illustrator 19.2.1, SVG Export Plug-In . SVG Version: 6.00 Build 0)  -->
<svg version="1.1" id="Ebene_1" xmlns="http://www.w3.org/2000/svg" xmlns:xlink="http://www.w3.org/1999/xlink" x="0px" y="0px"
	 viewBox="0 0 40 20" style="enable-background:new 0 0 40 20;" xml:space="preserve">
<style type="text/css">
	.st0{fill:#1A171B;}
	.st1{opacity:0.2;fill:#010101;enable-background:new    ;}
	.st2{opacity:0.2;fill:#FFFFFF;enable-background:new    ;}
	.st3{fill:#FFFFFF;}
</style>
<path class="st0" d="M0,0v20h40V0H0z M39,19.1H1v-18h38V19.1z"/>
<rect x="19.2" y="1.1" class="st1" width="1" height="18"/>
<rect x="20.2" y="1.1" class="st2" width="1" height="18"/>
<path class="st3" d="M10.8,15.3c0.7,0.4,1.3,0.1,1.3-0.7V5.6c0-0.8-0.6-1.1-1.3-0.7L6.5,9.3c-0.5,0.5-0.6,0.8,0,1.5L10.8,15.3z"/>
<path class="st3" d="M29.1,4.9c-0.7-0.4-1.3-0.1-1.3,0.7v8.9c0,0.8,0.6,1.2,1.3,0.7l4.3-4.4c0.5-0.5,0.6-0.8,0-1.5L29.1,4.9z"/>
</svg>
