<svg xmlns="http://www.w3.org/2000/svg" id="Ebene_1" data-name="Ebene 1" viewBox="0 0 16 113"><defs><style>.cls-1{fill:#fff;}.cls-2{fill:#585856;}</style></defs><path d="M15.74 40.16L.64 32.08a.44.44 0 0 0-.45 0 .42.42 0 0 0-.19.39v16.09a.42.42 0 0 0 .19.39.44.44 0 0 0 .45 0l15.1-8.08q.26-.14.26-.34t-.26-.37z" class="cls-1"/><path d="M15.74 8.16L.64.08a.44.44 0 0 0-.45 0A.42.42 0 0 0 0 .44v16.12a.42.42 0 0 0 .19.39.44.44 0 0 0 .45 0l15.1-8.08q.26-.14.26-.34t-.26-.37zM0 81h5.62V64H0zm8.38-17v17H14V64z" class="cls-2"/><path d="M0 113h5.62V96H0zm8.38-17v17H14V96z" class="cls-1"/></svg>