<?xml version="1.0" encoding="utf-8"?>
<!-- Generator: Adobe Illustrator 16.0.0, SVG Export Plug-In . SVG Version: 6.00 Build 0)  -->
<!DOCTYPE svg PUBLIC "-//W3C//DTD SVG 1.1 Tiny//EN" "http://www.w3.org/Graphics/SVG/1.1/DTD/svg11-tiny.dtd">
<svg version="1.1" baseProfile="tiny" xmlns="http://www.w3.org/2000/svg" xmlns:xlink="http://www.w3.org/1999/xlink" x="0px"
   y="0px" width="100px" height="100px" viewBox="0 0 100 100" xml:space="preserve">
<g id="Ebene_1">
  <path fill-rule="evenodd" fill="#FFFFFF" d="M50.006,0.593c13.607,0,26.03,5.616,34.908,14.494
    c8.879,8.877,14.494,21.302,14.494,34.908c0,13.618-5.615,26.04-14.494,34.909c-8.878,8.879-21.301,14.504-34.908,14.504
    c-13.617,0-26.042-5.625-34.919-14.504C6.219,76.035,0.593,63.613,0.593,49.995c0-13.606,5.626-26.031,14.494-34.908
    C23.964,6.209,36.389,0.593,50.006,0.593L50.006,0.593z M72.255,46.255c3.252,1.875,3.252,5.606,0,7.001L33.962,74.285V25.717
    L72.255,46.255z"/>
</g>
<g id="Ebene_1_Kopie">
  <path fill-rule="evenodd" fill="#FFFFFF" d="M50.006,0.593c13.607,0,26.03,5.616,34.908,14.494
    c8.879,8.877,14.494,21.302,14.494,34.908c0,13.618-5.615,26.04-14.494,34.909c-8.878,8.879-21.301,14.504-34.908,14.504
    c-13.617,0-26.042-5.625-34.919-14.504C6.219,76.035,0.593,63.613,0.593,49.995c0-13.606,5.626-26.031,14.494-34.908
    C23.964,6.209,36.389,0.593,50.006,0.593L50.006,0.593z M72.255,46.255c3.252,1.875,3.252,5.606,0,7.001L33.962,74.285V25.717
    L72.255,46.255z"/>
</g>
</svg>
