<svg xmlns="http://www.w3.org/2000/svg" id="Ebene_1" data-name="Ebene 1" viewBox="0 0 21 112.14"><defs><style>.cls-1{fill:#585856;}.cls-2{fill:#fff;}</style></defs><path d="M10.51 15.17A1 1 0 0 1 10 16a.94.94 0 0 1-1-.13l-5.21-4.4H1a1 1 0 0 1-1-1v-3.8a1 1 0 0 1 1-1h2.73l5.21-4.4a.94.94 0 0 1 1-.13 1 1 0 0 1 .55.88v13.15zm3.66-1.52h-.07a.94.94 0 0 1-.67-.28l-.13-.13a1 1 0 0 1-.09-1.24 5.74 5.74 0 0 0-.15-7 1 1 0 0 1 .07-1.3l.13-.13a.92.92 0 0 1 .72-.28 1 1 0 0 1 .69.36 7.9 7.9 0 0 1 .2 9.57 1 1 0 0 1-.7.43zm3.94 3a1 1 0 0 1-.69.34.94.94 0 0 1-.67-.28l-.13-.13a1 1 0 0 1-.06-1.31 10.51 10.51 0 0 0-.17-13.53 1 1 0 0 1 0-1.33l.13-.13a.92.92 0 0 1 .7-.29 1 1 0 0 1 .69.33 12.66 12.66 0 0 1 .2 16.33z" class="cls-1"/><path d="M10.51 47.17A1 1 0 0 1 10 48a.94.94 0 0 1-1-.13l-5.21-4.4H1a1 1 0 0 1-1-1v-3.8a1 1 0 0 1 1-1h2.73l5.21-4.4a.94.94 0 0 1 1-.13 1 1 0 0 1 .55.88v13.15zm3.66-1.52h-.07a.94.94 0 0 1-.67-.28l-.13-.13a1 1 0 0 1-.09-1.24 5.74 5.74 0 0 0-.15-7 1 1 0 0 1 .07-1.3l.13-.13a.92.92 0 0 1 .72-.28 1 1 0 0 1 .69.36 7.9 7.9 0 0 1 .2 9.57 1 1 0 0 1-.7.43zm3.94 3a1 1 0 0 1-.69.34.94.94 0 0 1-.67-.28l-.13-.13a1 1 0 0 1-.06-1.31 10.51 10.51 0 0 0-.17-13.53 1 1 0 0 1 0-1.33l.13-.13a.92.92 0 0 1 .7-.29 1 1 0 0 1 .69.33 12.66 12.66 0 0 1 .2 16.33z" class="cls-2"/><path d="M10.51 79.17A1 1 0 0 1 10 80a.94.94 0 0 1-1-.13l-5.21-4.4H1a1 1 0 0 1-1-1v-3.8a1 1 0 0 1 1-1h2.73l5.21-4.4a.94.94 0 0 1 1-.13 1 1 0 0 1 .55.88v13.15z" class="cls-1"/><path d="M10.51 111.17a1 1 0 0 1-.51.83.94.94 0 0 1-1-.13l-5.21-4.4H1a1 1 0 0 1-1-1v-3.87a1 1 0 0 1 1-1h2.73l5.21-4.4a.94.94 0 0 1 1-.13 1 1 0 0 1 .55.88v13.12z" class="cls-2"/></svg>