<svg id="Ebene_1" data-name="Ebene 1" xmlns="http://www.w3.org/2000/svg" viewBox="0 0 23 111"><defs><style>.cls-1{fill:#585856;}.cls-2{fill:#fff;}</style></defs><title>spr-ffwd</title><path class="cls-1" d="M7,9.38V23.62a.38.38,0,0,0,.2.33.36.36,0,0,0,.38,0l9.74-7v6.67a.38.38,0,0,0,.2.33.37.37,0,0,0,.17,0,.36.36,0,0,0,.21-.07l9.95-7.12a.38.38,0,0,0,0-.61L17.9,9.07a.36.36,0,0,0-.38,0,.38.38,0,0,0-.2.33V16l-9.74-7A.36.36,0,0,0,7.2,9,.38.38,0,0,0,7,9.38Z" transform="translate(-5 -9)"/><path class="cls-2" d="M7,41.38V55.62a.38.38,0,0,0,.2.33.36.36,0,0,0,.38,0l9.74-7v6.67a.38.38,0,0,0,.2.33.37.37,0,0,0,.17,0,.36.36,0,0,0,.21-.07l9.95-7.12a.38.38,0,0,0,0-.61L17.9,41.07a.36.36,0,0,0-.38,0,.38.38,0,0,0-.2.33V48l-9.74-7a.36.36,0,0,0-.38,0A.38.38,0,0,0,7,41.38Z" transform="translate(-5 -9)"/><path class="cls-1" d="M25.8,73a.36.36,0,0,0-.38,0l-9.74,7V73.38a.38.38,0,0,0-.2-.33.36.36,0,0,0-.38,0L5.16,80.19a.38.38,0,0,0,0,.61l9.95,7.12a.36.36,0,0,0,.21.07.37.37,0,0,0,.17,0,.38.38,0,0,0,.2-.33V81l9.74,7a.36.36,0,0,0,.38,0,.38.38,0,0,0,.2-.33V73.38A.38.38,0,0,0,25.8,73Z" transform="translate(-5 -9)"/><path class="cls-2" d="M25.8,105a.36.36,0,0,0-.38,0l-9.74,7v-6.67a.38.38,0,0,0-.2-.33.36.36,0,0,0-.38,0l-9.95,7.12a.38.38,0,0,0,0,.61l9.95,7.12a.36.36,0,0,0,.21.07.37.37,0,0,0,.17,0,.38.38,0,0,0,.2-.33V113l9.74,7a.36.36,0,0,0,.38,0,.38.38,0,0,0,.2-.33V105.38A.38.38,0,0,0,25.8,105Z" transform="translate(-5 -9)"/></svg>