<svg id="Ebene_1" xmlns="http://www.w3.org/2000/svg" viewBox="0 0 32 192"><style>.st0{fill:#585856;} .st1{fill:#FFFFFF;}</style><path class="st0" d="M7 9.4v14.2c0 .1.1.3.2.3h.2c.1 0 .1 0 .2-.1l9.7-7v6.7c0 .1.1.3.2.3h.2c.1 0 .1 0 .2-.1l9.9-7.1c.1-.1.2-.2.2-.3 0-.1-.1-.2-.2-.3l-9.9-7.1c-.1.1-.3.1-.4.1-.1.1-.2.2-.2.3V16L7.6 9h-.4c-.1.1-.2.2-.2.4z"/><path class="st1" d="M7 41.4v14.2c0 .1.1.3.2.3h.2c.1 0 .1 0 .2-.1l9.7-7v6.7c0 .1.1.3.2.3h.2c.1 0 .1 0 .2-.1l9.9-7.1c.1-.1.2-.2.2-.3 0-.1-.1-.2-.2-.3l-9.9-7.1c-.1-.1-.3-.1-.4 0-.1.1-.2.2-.2.3V48l-9.7-7h-.4c-.1.1-.2.2-.2.4z"/><path class="st0" d="M25.8 73c-.1-.1-.3-.1-.4 0l-9.7 7v-6.7c0-.1-.1-.3-.2-.3-.1-.1-.3-.1-.4 0l-9.9 7.1c-.1.2-.2.3-.2.4s.1.2.2.3l9.9 7.1c.1 0 .1.1.2.1h.2c.1-.1.2-.2.2-.3V81l9.7 7c.1 0 .1.1.2.1h.2c.1-.1.2-.2.2-.3V73.4c0-.2-.1-.3-.2-.4z"/><path class="st1" d="M25.8 105c-.1-.1-.3-.1-.4 0l-9.7 7v-6.7c0-.1-.1-.3-.2-.3-.1-.1-.3-.1-.4 0l-9.9 7.1c-.1.1-.2.2-.2.3s.1.2.2.3l9.9 7.1c.1 0 .1.1.2.1h.2c.1-.1.2-.2.2-.3V113l9.7 7c.1 0 .1.1.2.1h.2c.1-.1.2-.2.2-.3v-14.2c0-.4-.1-.5-.2-.6z"/><path class="st0" d="M15.7 154c-5.6 0-10.2-4.5-10.2-10s4.6-10 10.2-10c.7 0 1.2.5 1.2 1.2s-.6 1.2-1.2 1.2c-4.3 0-7.7 3.4-7.7 7.6s3.5 7.6 7.7 7.6 7.7-3.4 7.7-7.6c0-.3 0-.7-.1-1-.1-.7.4-1.3 1.1-1.4.7-.1 1.3.4 1.4 1 .1.4.1.9.1 1.4.1 5.5-4.5 10-10.2 10z"/><path class="st0" d="M21.2 145.5l.9-7.7 6.4 4.6z"/><path class="st1" d="M15.7 186c-5.6 0-10.2-4.5-10.2-10s4.6-10 10.2-10c.7 0 1.2.5 1.2 1.2s-.6 1.2-1.2 1.2c-4.3 0-7.7 3.4-7.7 7.6s3.5 7.6 7.7 7.6 7.7-3.4 7.7-7.6c0-.3 0-.7-.1-1-.1-.7.4-1.3 1.1-1.4.7-.1 1.3.4 1.4 1 .1.4.1.9.1 1.4.1 5.5-4.5 10-10.2 10z"/><path class="st1" d="M21.2 177.5l.9-7.7 6.4 4.6z"/></svg>