<svg id="Ebene_1" xmlns="http://www.w3.org/2000/svg" viewBox="0 0 140 140"><style>.st0{fill:#FFD500;}</style><path class="st0" d="M58.5 36.4c.8 2.1 1.3 4 1.5 5.9.2 1.8.1 3.6-.4 5.2-.7 2.7-2.2 5-4.5 6.8-2.3 1.8-5.4 3.1-9.2 3.9-1.5.3-2.6.1-3.3-.4-.7-.6-1.2-1-1.4-1.3-.3-.4-.5-.9-.6-1.4-.1-.5-.1-.9-.1-1.4L37.3 57c-.3.7-.6 1.2-.9 1.6-.3.4-.6.8-.9 1.1-.5.6-1.2 1-1.9 1.4-.7.3-1.5.5-2.2.5h-.1c-.7 0-1.3-.2-1.9-.5s-1.1-.8-1.4-1.4c-.9.8-2 1.1-3.3 1.1-1.2 0-2.6-.4-4.2-1.2-1.8-.9-3.4-2.1-4.7-3.5-1.4-1.4-2.5-3-3.4-4.8-.9-1.8-1.6-3.8-2-5.9-.4-2.2-.6-4.4-.5-6.8.1-2.5.5-5 1.1-7.5.7-2.5 1.6-4.8 2.7-7 1.3-2.4 2.7-4.4 4.4-6.1 1.6-1.7 3.4-2.9 5.3-3.6l1 2.2c.9-.7 1.9-1.2 3.1-1.6s2.4-.8 3.7-1c0-.5-.1-1-.1-1.2v-.5c-.1-.8.1-1.5.5-2.2.4-.7 1-1.2 1.7-1.6.7-.3 1.4-.4 2.2-.3.8.1 1.5.4 2.1.9.1.1.6.6 1.5 1.4.9.9 2.1 2.1 3.6 3.5 2.1.3 4 .8 5.7 1.3s3.2 1.2 4.5 2c1.3.8 2.5 1.7 3.4 2.7.9 1 1.7 2.2 2.2 3.4.9 2 1.2 4 1.1 6.2.1 2.5-.4 4.6-1.1 6.8zm-40.7 2.7c-.1 1.6.1 3.6.5 5.9.4 2.3 1.5 4.3 3.3 6-.1-.6-.2-1.2-.4-1.8-.1-.6-.3-1.1-.4-1.7-.5-1.9-1-3.9-1.4-6.1-.5-2.2-.8-4.3-1.1-6.5-.1.7-.3 1.4-.3 2.1-.1.7-.2 1.4-.2 2.1zM30.5 53c.1-.6.3-1.4.5-2.3.2-1 .3-2.2.5-3.7.1-1.5.3-3.4.4-5.6.1-2.2.1-4.7.1-7.7l-.1.1h-.2l-3-7.2c.5-.2 1.1-.4 1.6-.6.5-.2 1-.3 1.6-.4 0-.6-.1-1.2-.1-1.8v-1.7c-.8.2-1.5.4-2.1.8-.7.3-1.2.8-1.7 1.3-.9 1.1-1.5 2.5-1.8 4.2-.2 1.7-.3 3.6-.1 5.6.2 2 .5 4 1 6.1.5 2.1.9 3.9 1.3 5.7.3 1.3.6 2.6.9 3.8.3 1.2.5 2.3.6 3.3v.3c0 .1 0 .3.1.5l.5-.7zm19.4-16.2l.1-.1c0-.1 0-.1.1-.1-.7-1.4-1.6-2.9-2.7-4.5s-2.3-3.2-3.6-4.9c-.7-.9-1.4-1.7-2.1-2.5l-2.1-2.4c0 .6.1 1.3.1 1.9v1.9c.2.1.4.1.6.2.2.1.4.1.6.2 2.5 1.2 4.4 2.9 5.9 4.9 1.4 2.1 2.4 3.9 3.1 5.4zm-10.3 6l3-3.3c-.3-.7-.7-1.4-1.2-2.2-.5-.7-1-1.4-1.6-2.1 0 1.4 0 2.7-.1 4 0 1.4-.1 2.5-.1 3.6z"/><path d="M60.4 21.3c.9 2.2 1.5 4.8 1.9 7.6.4 2.9.6 6 .6 9.4v.1c-.2 2.1-.5 4.1-.9 5.9-.5 1.8-1.1 3.5-1.9 5-.8 1.5-1.7 2.9-2.7 4.1-1 1.2-2.3 2.3-3.6 3.2-1 .7-2.1 1.3-3.3 1.9-1.2.6-2.5 1-3.8 1.3l-.1.1c-.1 0-.1.1-.1.1h-.1c-2.4 1-4.8 1.7-7 2.2-2.3.6-4.4.8-6.5.8-2 0-3.8-.2-5.6-.7-1.8-.4-3.5-1.1-5-2l-1.5-.9c-.5-.3-.9-.7-1.4-1.1l-1.5-.9c-.5-.4-1-.7-1.4-1.1-1.4-1.2-2.7-2.6-3.8-4.1-1.1-1.5-2-3.2-2.8-5.1-.9-1.9-1.5-3.9-2-6.1-.5-2.2-.7-4.6-.9-7.1-.1-2-.1-3.8.2-5.6.2-1.8.6-3.4 1.2-5s1.3-3 2.2-4.4c.9-1.4 2-2.6 3.2-3.8 1.4-1.3 3-2.5 4.7-3.4 1.7-.9 3.4-1.7 5.2-2.3 1.8-.6 3.6-1.1 5.4-1.3 1.8-.3 3.4-.4 5-.4V7c1.5 0 3 .1 4.4.3 1.5.2 2.9.5 4.2.9 1.8.2 3.7.6 5.6 1.1s3.8 1.5 5.6 2.9c1.4 1.1 2.6 2.4 3.7 3.9 1.2 1.6 2.1 3.3 2.8 5.2zM14.8 16c-2.1 2-3.7 4.3-4.8 7-1.1 2.7-1.7 5.6-1.7 8.9.1-1.6.4-3.3.9-4.8.5-1.6 1-3.1 1.8-4.5.7-1.4 1.6-2.8 2.5-4 1-1.3 2-2.4 3.2-3.4.6-.6 1.2-1.2 2-1.7.7-.5 1.5-1.1 2.4-1.5-1.1.5-2.2 1.1-3.3 1.8-1.1.5-2.1 1.3-3 2.2zM9.2 41.1c.3 1.4.7 2.8 1.1 4 .5 1.3 1 2.4 1.5 3.6-.5-1.1-1-2.3-1.4-3.5-.4-1.2-.8-2.4-1-3.7 0-.1-.1-.2-.1-.2-.1-.1-.1-.1-.1-.2zm1.5-12.6v-.2c0-.1 0-.2.1-.3-.5 1.6-.8 3.3-1 4.9-.2 1.6-.1 3.3.1 4.9 0 .2.1.3.1.5s0 .3.1.5c-.1-1.6-.1-3.2 0-4.9 0-1.8.2-3.6.6-5.4zm49 5.4v-1.1c0-.4-.1-.8-.1-1.1l-.8.1c0-.5-.1-.9-.1-1.4v-3.3c-.2-.7-.5-1.4-.8-2.1l-.9-2.1c-1.1-1.6-2.4-3.1-3.8-4.5s-2.9-2.6-4.6-3.7c-1.7-1.1-3.4-2-5.2-2.7-1.8-.7-3.6-1.3-5.5-1.6-1.9-.2-3.7-.3-5.6-.1-1.8.1-3.6.5-5.3 1-1.7.5-3.3 1.3-4.9 2.2-1.6.9-3 2-4.4 3.3-.9.8-1.7 1.6-2.4 2.5-.7.9-1.4 1.9-2 2.9-.7 1.8-1.3 3.9-1.5 6.5v.1c-.4 1.9-.6 3.7-.7 5.4-.1 1.7-.1 3.4.1 5s.4 3.1.9 4.5c.4 1.4.9 2.8 1.6 4.1 1.1 1.6 2.5 3.1 4 4.4 1.5 1.3 3.2 2.5 4.9 3.4 1.8.9 3.7 1.7 5.7 2.2 2 .5 4.1.8 6.3.8 3.5 0 6.8-.6 9.8-1.9 3-1.3 5.7-3 8-5.2s4.1-4.8 5.4-7.8c1.2-3.2 1.9-6.4 1.9-9.8zM27.4 60.3c2.5.5 4.6.7 6.5.7-1.5-.1-3-.3-4.7-.7-1.7-.4-3.3-.9-5-1.6-1.6-.7-3.2-1.6-4.8-2.7-1.6-1.1-3-2.4-4.3-4 .7 1 1.5 2 2.3 3 .8.9 1.7 1.8 2.7 2.6 2.4 1.3 4.8 2.2 7.3 2.7zm25.9-28.2l.1.9c-.4.4-.8.7-1.2.9-.4.2-.8.5-1.2.7-.3.2-.7.4-1 .6-.4.2-.8.5-1.2.8-1.9 1.4-3.7 2.6-5.4 3.8-1.7 1.1-3.3 2.2-4.9 3.2-1.4.9-2.7 1.8-4.1 2.7-1.3.9-2.7 1.8-3.9 2.8L28.6 50l-.8-.3H27L26.3 20c0-.1-.1-.1-.1-.2v-.2l.1-.1v-.4l.9-.6 3.5 1.6.6.3.6.3c.3.1.6.2.9.4.3.1.6.3.9.5 1.1.7 2.3 1.2 3.4 1.8 1.1.5 2.2 1 3.4 1.5 1.7.8 3.4 1.6 5.2 2.5 1.8.9 3.7 2 5.7 3.4.1 0 .2.1.4.1.1.1.2.1.3.1l-.1.2c.2.2.5.3.7.5.2.1.4.3.6.4zM27.7 20.5l.2-.1h-.2v.1zm1.1 1.5c-.1-.1-.1-.1 0 0l-.1-.1v.1h.1zm.2 20.5v.5c0 .2 0 .3-.1.5l.1-.1c0-.1 0-.1.1-.1 0-.1-.1-.2-.1-.3v-.5zm.3-9.2h-.2v.6c0 .2 0 .4.1.7v2.8c0-.1 0-.2.1-.3l.8.1.1-.1-.6-.3c0-.3 0-.6.1-.9 0-.3.1-.6.1-.9-.1-.3-.2-.5-.2-.8-.2-.4-.2-.7-.3-.9zm-.2 13.3l.4-.4c.1-.1.2-.3.4-.4 0-.2-.1-.3-.1-.4 0-.1-.1-.3-.1-.4-.1.2-.2.5-.3.7-.2.4-.3.7-.3.9zm23.6 6.9c.9-.9 1.9-1.9 2.9-3.1 1-1.2 1.8-2.6 2.7-4.2.8-1.6 1.5-3.3 2-5.2.5-1.9.8-4.1.8-6.4 0-.7 0-1.3-.1-2 0-.6-.1-1.3-.2-1.9 0 0 0-.1-.1-.1.1.5.1 1.1.2 1.6 0 .6.1 1.1.1 1.7 0 3.6-.7 6.9-2.1 10-1.4 3.1-3.3 5.8-5.7 8.1-2.4 2.3-5.2 4.2-8.4 5.5-3.2 1.4-6.6 2-10.3 2-.9 0-1.7 0-2.6-.1-.9-.1-1.7-.2-2.6-.4.8.2 1.6.3 2.4.5.8.1 1.5.2 2.2.2 1.7.1 3.3.1 4.8 0s3-.2 4.3-.4c1.7-.6 3.4-1.5 5.1-2.5 1.7-.9 3.2-2 4.6-3.3zM31.3 26.3c0-.1 0-.1 0 0v-.2c-.1-.1-.2-.2-.4-.3-.1-.1-.3-.2-.4-.3l-.4-.4c-.1-.1-.2-.3-.2-.4v.3s0 .2-.1.3c.1.3.1.5.2.8.1.3.1.5.1.8l.1-.1s.1 0 .1-.1l.3-.3c.3-.1.5-.1.7-.1zm-.9 5.6c0-.2.1-.4.1-.6 0-.2.1-.4.1-.6 0-.1 0-.2-.1-.3 0-.2-.1-.3-.2-.5v.1c0 .2-.1.4-.2.7l-.3.6v.2c0 .1.1.2.1.3 0 .1.1.2.1.3h.2l.2-.2zm.6-10.2c-.1-.1-.3-.1-.4-.2v.3c.1.1.2.2.3.2.1.1.2.1.3.2l1.5.2c-.2-.1-.5-.2-.7-.3-.2-.1-.5-.2-.7-.3 0 0-.1 0-.3-.1zm.6 16.7c-.2-.1-.3-.2-.5-.3-.2-.1-.3-.2-.5-.3 0 .3.1.7.1 1.1 0 .4.1.7.1 1.1.1-.3.2-.5.4-.7.2-.4.3-.6.4-.9zm.7-14.1c-.2-.2-.5-.3-.7-.5-.3-.2-.5-.3-.7-.5h-.2c0 .2.1.4.2.6.1.2.2.4.5.6.1 0 .1.1.2.1.1.1.1.1.2.1 0 0 .1-.1.1-.2s.1-.1.1-.2h.3zm0 5.6c-.3-.2-.5-.4-.7-.7-.2-.3-.3-.6-.4-1 0 .1-.1.1-.1.2s0 .1-.1.1c.2.3.3.6.4.9.1.3.2.6.3.8l.3-.1c0 .1 0 .2.1.3 0 .1.1.2.1.3v-.4c.1-.1.1-.3.1-.4zm-1.2 4.8v-.3.3c-.1.1 0 .1 0 .2v-.2zm.4-1.8zm.8-5.6c0 .2 0 .4.1.6 0 .1.1.2.1.3 0 .1.1.2.1.3v-.1c0-.3.1-.5.2-.8.1-.2.3-.4.5-.6-.2-.1-.3-.1-.5-.2-.2 0-.3-.1-.5-.2.1.3 0 .5 0 .7zm.3 9c0-.1.1-.2.1-.2v-.2h-.1s-.1 0-.1.1l.1.1v.2zm.3-10.9c.2.1.4.1.6.1h.6c-.2-.1-.4-.1-.6-.1h-.6zm.1 15.5c.3-.5.6-1 1-1.5.3-.5.7-.9 1.1-1.3-.2 0-.5.1-.7.1h-.7c.1.1.2.2.4.3.1.1.2.2.4.3l-.7 1-.5-.3-.1-.1-.2 1.5zm4.8 1.2c1.1-.8 2.3-1.5 3.5-2.4 1.2-.8 2.5-1.7 3.8-2.6l-.1.1c-.3 0-.6.1-.9.2l-.9.3-1 1c-.4.3-.7.6-1.1.9l.1.2c-1.4.8-2.8 1.7-4.2 2.6-1.4.9-2.7 1.8-4 2.8.8-.5 1.6-1.1 2.4-1.6l2.4-1.5zm-4.5-8.9c.1.1.2.2.2.3.1.1.1.2.2.3 0 0 .1 0 .1-.1.1 0 .1-.1.1-.1 0-.1-.1-.1-.1-.2s0-.1-.1-.2c-.1-.2-.2-.4-.3-.7-.1-.2-.2-.4-.2-.7 0 .2-.1.4-.1.6s.2.6.2.8zm3.9 4.3c-.7.7-1.4 1.4-2 2.2-.6.8-1.1 1.6-1.6 2.5.5-.5 1.1-1 1.7-1.4s1.2-.9 1.8-1.3v-1.3c.1-.2.1-.4.1-.7zM35.3 24l-1.4-.2 1.2.6 1.2.6c0-.1.1-.2.1-.2v-.2l1 .3c-.4-.2-.7-.3-1.1-.5-.4-.2-.7-.4-1.1-.5v.1zm3.1 14.6s.1 0 .1-.1l.1-.1c.2-.3.3-.5.5-.7l.6-.6h-.4l-.2-1c.4-.4.9-.7 1.4-1l1.5-.9v-.3c-.4.2-.8.4-1.2.5-.4.2-.8.3-1.2.5l-.8-.7c0-.1.1-.2.1-.3 0-.1 0-.2.1-.2-.2.2-.4.5-.6.7-.2.2-.4.5-.6.7-.1.2-.2.3-.3.4l-.3.3c-.3.3-.7.6-1.1.8-.4.2-.8.3-1.3.3h-.5s0 .1-.1.1h.6c.2 0 .4 0 .6-.1l.1.7 1.2-1.2c.4-.4.9-.7 1.4-1.1l.9.8c-.4.5-.6.9-.6 1.3v1.2zM36 26.4v-.3c-.1 0-.1-.1-.2-.1s-.1 0-.1-.1l-.1.3c-.1 0-.1.1-.2.1h-.1c.1.1.2.1.3.2.1 0 .2.1.3.1.1 0 .1-.1.1-.2zm-.1 8.8c.1 0 .1-.1.2-.1 0 0 .1-.1.1-.2.1 0 .1-.1.2-.2s.1-.2.1-.3v-.1l.1-.1c0-.1.1-.1.1-.2s0-.1.1-.2h-.1c-.1.2-.2.3-.4.5-.1.2-.3.3-.4.5v.4zm3.2-5.7s0-.1.1-.1c-.4-.2-.8-.4-1.1-.5-.4-.2-.7-.3-1.1-.5 0 .1-.1.2-.1.3v.3c.4.1.8.2 1.1.4.4.2.7.4.9.7 0-.1.1-.1.1-.2v-.1c.1-.2.1-.2.1-.3zm.3-1.3c0-.1.1-.2.1-.3 0-.1 0-.2.1-.3-.4-.2-.8-.3-1.2-.5-.4-.2-.8-.3-1.2-.5v.4c.4.2.8.4 1.1.5.3.4.7.5 1.1.7zm-1.7-2.6s.1 0 .1.1c0-.1 0-.1-.1-.1 0-.1 0-.1 0 0l.4-.4c-.1 0-.1-.1-.2-.1s-.1-.1-.2-.1c0 .1-.1.2-.1.3 0 .1 0 .2-.1.3.1-.1.1-.1.2 0zm2.6.5c-.1 0-.2-.1-.3-.1.1 0 .2.1.3.2.1.1.2.2.3.2 0 0 0-.1.1-.1-.2-.1-.3-.1-.4-.2zm2.1 3.1c-.2-.2-.5-.3-.7-.5-.2-.2-.5-.3-.7-.5 0 0-.1 0-.1-.1-.1 0-.1-.1-.2-.1 0 .1-.1.2-.1.3s-.1.2-.1.3l.1.1v.1c.1-.1.2-.1.2-.2.1 0 .2-.1.2-.2l.9.8c0 .1-.1.2-.1.2 0 .1-.1.2-.1.2l.1.5c.1 0 .2-.1.3-.1h.3l.5.4V30c0-.1 0-.3.1-.4h-.2l.2-.7c-.1 0-.2-.1-.2-.1-.1 0-.2-.1-.2-.1l-.2.5zm-1.1 3.2c.2.1.4.1.6.2l-.1-1c-.2 0-.4.1-.6.1-.2.1-.3.1-.5.3v.1l-.1.1c.3.1.5.1.7.2zm2-4.5c0-.1.1-.1.1-.2s0-.1.1-.2l-1.2-.6c-.4-.2-.8-.4-1.2-.5l.4.6.1.1s.1.1.2.1c.3.1.5.2.8.3.2.2.4.3.7.4zm1.4 6.4c-.6.2-1.2.4-1.7.7-.6.3-1.1.6-1.7.9.1 0 .1-.1.2-.1h.2c.1 0 .2-.1.3-.1s.3-.1.4-.1l.3.6c.1-.2.3-.4.4-.6l.5-.5c.2-.2.3-.3.5-.4.3-.1.5-.3.6-.4zm3.7-22.5c-.9-.5-1.8-1-2.8-1.4-1-.4-2-.8-3-1h-.4c.9.3 1.7.6 2.5.9.8.3 1.6.7 2.4 1.1.2.1.5.2.7.3.2-.1.4 0 .6.1zm-3.3 16.9l-.1-.1.2-.2c-.1-.1-.2-.1-.3-.2-.1-.1-.2-.1-.3-.1v.3c.1 0 .2.1.3.1 0 .2.1.2.2.2zm-.3 7l.1.1-.1.1s-.1 0-.1.1h.3c.3 0 .5-.1.8-.1.3-.1.5-.1.7-.3.2-.1.3-.2.5-.4s.3-.3.4-.5l.1-.1.1-.1c-.5.1-1 .3-1.5.5-.4.1-.9.4-1.3.7zm1.9-2.4c.1-.1.2-.2.4-.3.1-.1.2-.3.4-.4-.1-.2-.2-.3-.4-.5-.1-.2-.3-.3-.4-.4-.3.2-.6.3-.9.4-.3.1-.6.3-.9.4l.1.1c0 .1 0 .1.1.1h.4c.2-.1.4-.1.6-.2.2 0 .4-.1.6-.1v.9zm1.6-1.6c0-.1 0-.1 0 0 0-.1-.1-.2-.1-.2l-.1-.1v.1l.1.1c0-.1 0 0 .1.1zm6-17.7c-1.6-1.4-3.3-2.4-5-3.1.8.5 1.6 1 2.4 1.6.8.6 1.5 1.2 2.2 1.8l.7.7.7.7c.4.3.7.7 1 1.1.3.4.6.7.9 1.1.2.3.4.6.5.9.2.3.3.6.5.8-.9-2.3-2.3-4.2-3.9-5.6zm-3.9 19.6c.1-.1.2-.2.4-.2.1-.1.3-.2.4-.2-.1 0-.2 0-.3-.1-.1 0-.2-.1-.3-.1-.1.2-.2.4-.4.6-.2.2-.4.3-.6.4l-.1.1s-.1.1-.1.2c.2-.1.3-.2.5-.3.2-.2.3-.3.5-.4zm.9-.4c.1-.1.2-.2.4-.3.1-.1.2-.2.4-.3-.1-.1-.2-.1-.2-.2-.1-.1-.2-.1-.2-.2l-.4 1zm1.9 22.5c1.3-.9 2.4-1.9 3.4-3s1.9-2.4 2.6-3.9c-.9 1.5-2 2.8-3.3 4.2-1.3 1.3-2.7 2.6-4.2 3.8.3-.2.5-.3.8-.5.2-.3.4-.5.7-.6zm2.5-37.2c.9 1.2 1.7 2.4 2.4 3.8 0 0 .1 0 .1.1 0-.2-.1-.4-.2-.7-.1-.2-.2-.4-.2-.7-.4-.8-.9-1.5-1.4-2.2-.5-.7-1.1-1.4-1.7-2.1-.3-.3-.6-.5-.9-.8-.3-.2-.7-.5-1-.7.9 1 1.9 2.1 2.9 3.3zm3.1 2l-.1-.1s.1 0 .1.1c0-.1 0-.1 0 0z"/><path class="st0" d="M128.5 36.4c.8 2.1 1.3 4 1.5 5.9.2 1.8.1 3.6-.4 5.2-.7 2.7-2.2 5-4.5 6.8-2.3 1.8-5.4 3.1-9.2 3.9-1.5.3-2.6.1-3.3-.4-.7-.6-1.2-1-1.4-1.3-.3-.4-.5-.9-.6-1.4-.1-.5-.1-.9-.1-1.4l-3.2 3.6c-.3.7-.6 1.2-.9 1.6-.3.4-.6.8-.9 1.1-.5.6-1.2 1-1.9 1.4-.7.3-1.5.5-2.2.5h-.1c-.7 0-1.3-.2-1.9-.5s-1.1-.8-1.4-1.4c-.9.8-2 1.1-3.3 1.1-1.2 0-2.6-.4-4.2-1.2-1.8-.9-3.4-2.1-4.7-3.5-1.4-1.4-2.5-3-3.4-4.8-.9-1.8-1.6-3.8-2-5.9-.4-2.2-.6-4.4-.5-6.8.1-2.5.5-5 1.1-7.5.7-2.5 1.6-4.8 2.7-7 1.3-2.4 2.7-4.4 4.4-6.1 1.6-1.7 3.4-2.9 5.3-3.6l1 2.2c.9-.7 1.9-1.2 3.1-1.6s2.4-.8 3.7-1c0-.5-.1-1-.1-1.2v-.5c-.1-.8.1-1.5.5-2.2.4-.7 1-1.2 1.7-1.6.7-.3 1.4-.4 2.2-.3.8.1 1.5.4 2.1.9.1.1.6.6 1.5 1.4.9.9 2.1 2.1 3.6 3.5 2.1.3 4 .8 5.7 1.3s3.2 1.2 4.5 2c1.3.8 2.5 1.7 3.4 2.7.9 1 1.7 2.2 2.2 3.4.9 2 1.2 4 1.1 6.2.1 2.2-.4 4.3-1.1 6.5zm-40.7 2.7c-.1 1.6.1 3.6.5 5.9.4 2.3 1.5 4.3 3.3 6-.1-.6-.2-1.2-.4-1.8-.1-.6-.3-1.1-.4-1.7-.5-1.9-1-3.9-1.4-6.1-.5-2.2-.8-4.3-1.1-6.5-.1.7-.3 1.4-.3 2.1-.1.7-.2 1.4-.2 2.1zM100.5 53c.1-.6.3-1.4.5-2.3.2-1 .3-2.2.5-3.7.1-1.5.3-3.4.4-5.6.1-2.2.1-4.7.1-7.7l-.1.1h-.2l-3-7.2c.5-.2 1.1-.4 1.6-.6.5-.2 1-.3 1.6-.4 0-.6-.1-1.2-.1-1.8v-1.7c-.8.2-1.5.4-2.1.8-.7.3-1.2.8-1.7 1.3-.9 1.1-1.5 2.5-1.8 4.2-.2 1.7-.3 3.6-.1 5.6.2 2 .5 4 1 6.1.5 2.1.9 3.9 1.3 5.7.3 1.3.6 2.6.9 3.8.3 1.2.5 2.3.6 3.3v.3c0 .1 0 .3.1.5l.5-.7zm19.4-16.2l.1-.1c0-.1 0-.1.1-.1-.7-1.4-1.6-2.9-2.7-4.5s-2.3-3.2-3.6-4.9c-.7-.9-1.4-1.7-2.1-2.5l-2.1-2.4c0 .6.1 1.3.1 1.9v1.9c.2.1.4.1.6.2.2.1.4.1.6.2 2.5 1.2 4.4 2.9 5.9 4.9 1.4 2.1 2.4 3.9 3.1 5.4zm-10.3 6l3-3.3c-.3-.7-.7-1.4-1.2-2.2-.5-.7-1-1.4-1.6-2.1 0 1.4 0 2.7-.1 4 0 1.4-.1 2.5-.1 3.6z"/><path d="M118.4 9.5c1.9.9 3.9 2.1 5.8 3.6 1.9 1.6 3.6 3.6 5.1 6.2 1.4 2.5 2.5 5.7 3.2 9.4.7 3.7.7 8.2.2 13.3-.3 2.2-.8 4.2-1.5 6.1-.7 1.9-1.7 3.6-2.9 5.2s-2.6 3-4.2 4.2c-1.6 1.2-3.5 2.2-5.6 3-.3.1-.7.2-1 .3-.3.1-.7.3-1.1.3-1.3.6-2.7 1.1-4.3 1.4-1.6.3-3.1.4-4.8.4-1.6 0-3.2-.1-4.9-.4-1.6-.3-3.3-.7-5-1.2C95.1 60.8 93 60 91 59c-2-1-3.8-2.2-5.5-3.6-1.4-1.2-2.6-2.4-3.7-3.8-1-1.4-1.9-2.8-2.5-4.4-.7-1.5-1.2-3.2-1.5-4.8-.3-1.7-.4-3.4-.4-5.2-.3-1.6-.4-3.2-.4-4.8 0-1.6.1-3.3.2-5.1 0-.3.1-.6.4-.8.2-.2.5-.3.9-.3.2 0 .3 0 .4.1.1.1.2.1.3.2.6-2.3 1.5-4.6 2.6-7 1.1-2.4 2.7-4.5 4.7-6.4 1.1-1.2 2.8-2.3 5.1-3.3s5-1.7 7.9-2.2c1-.2 2.2-.3 3.6-.4s3-.1 4.6 0c1.6.1 3.4.3 5.2.7 1.8.2 3.7.8 5.5 1.6zm4.5 41.8c1.6-2.4 3-5 4.1-7.7.5-1.1.9-2.4 1.4-3.7.5-1.4.8-2.8 1.1-4.4.3-1.5.4-3.1.4-4.7s-.2-3.2-.6-4.8c-.4-1.7-1-3.3-1.9-4.7-.9-1.4-2-2.8-3.3-3.9-1.3-1.2-2.9-2.2-4.7-3.1-1.8-.9-3.8-1.6-6-2.2-2.5-.6-4.9-1.1-7.1-1.3-2.2-.3-4.3-.3-6.2-.2-1.9.1-3.7.4-5.3.9-1.6.5-3.1 1.1-4.4 2-1.7 1.1-3.1 2.5-4.2 4-1.1 1.6-2.1 3.2-2.8 4.9-.7 1.7-1.3 3.5-1.7 5.2-.4 1.7-.8 3.3-1.1 4.8l-.2.7c-.2.6-.3 1.2-.4 1.9-.1.7-.1 1.3-.1 2 .3 1.9.7 3.6 1.2 5.2s1.2 3.2 2 4.7c1.3 2.3 2.9 4.4 4.8 6.2 1.9 1.8 4 3.3 6.4 4.5.6.4 1.3.7 2 1 .7.3 1.5.5 2.2.8 2.8.7 5.6 1.1 8.5 1.1 2.9 0 5.7-.4 8.4-1.2.4-.3.9-.5 1.4-.8.5-.3.9-.6 1.3-1 1.5-1.8 3.1-3.8 4.8-6.2zM106 21.6c.2.1.3.2.5.4.1.2.2.3.2.5.1.4.1 1.7.1 4 0 2.2-.1 4.8-.2 7.6s-.2 5.6-.4 8.4c-.1 2.8-.3 4.9-.3 6.3 0 .3-.1.6-.3.8-.2.2-.5.3-.7.3-.3 0-.5-.1-.7-.4-.2-.2-.3-.5-.3-.9V48c-.8-.6-2.2-1.6-4.2-3.2s-3.4-2.7-4.2-3.3c-.7.1-1.7.2-3.1.3s-2.3 0-2.7 0c-.6-.1-.9-.5-1.1-1.1-.1-.6-.2-1.3-.3-1.9-.1-.5-.2-1.2-.2-2v-5.4c0 .1-.1.1-.2.2-.3.2-.5.2-.8.2-.3-.1-.5-.2-.7-.5-.4-.3-.4-.6-.4-.9.1-.3.2-.6.5-.8.2-.1.4-.2.7-.3.3-.1.6-.2 1.1-.3v-.9c0-.3.1-.5.4-.7.2-.2.5-.3.8-.3.3 0 .5.1.8.4.2.2.3.5.3.9.1-.1.3-.2.5-.3.2-.1.4-.1.5-.1.9-.3 1.8-.4 2.6-.6.9-.1 1.6 0 2.1.2.4-.2 1-.6 1.9-1.3.9-.6 1.7-1.3 2.3-1.8 1.6-1.2 2.7-2.1 3.5-2.6.8-.3 1.5-.4 2-.3zm-15.3 10c.1.1.2.2.3.2.1 0 .4.1.7.2l.5-1.8c-.2 0-.3 0-.5.1-.1.1-.3.1-.4.1-.2.1-.4.1-.6.2-.2 0-.4.1-.6.2v.8h.6zm.2 2.9l-.7-.5v2.6l.7-2.1zm3.2-2.9h.5c.2 0 .4-.1.5-.1-.2 0-.3 0-.4-.1-.1-.1-.3-.1-.4-.1l-.2.3zM96 35c.1-.3.4-.7 1.1-1-.4 0-.7 0-1 .1-.3.1-.5.3-.6.6-.1.1-.1.2-.2.3 0 .1-.1.2-.2.3l1 1.1c0-.2-.1-.3-.1-.4v-.3c-.1-.1-.1-.4 0-.7zm.5 4.8l-.2-.2c.1 0 .2.1.2.2zm1-9.9c.1.1.2.1.3.1.3-.1.7-.4 1-.7.3-.3.6-.7.9-1.1.1-.1.2-.2.2-.3l.3-.3c-.6.5-1.2 1-1.7 1.3-.5.4-1 .6-1.5.8.2.1.4.2.5.2zm1 5.7c0 .1 0 .1.1.1h.5c.1-.1.2-.2.4-.3.2-.1.3-.2.5-.4-.1-.1-.2-.1-.2-.2-.1 0-.2-.1-.2-.2-.2.1-.4.3-.5.5-.3.2-.5.4-.6.5zm.8 3.7l1.2 1.1c.2-.2.4-.4.5-.6.2-.2.3-.5.5-.8v-.4c-.1.2-.2.3-.4.4-.2.1-.3.1-.5.1l-1.3.2zm1.6 3.9c.4.3.7.5 1 .8.3.3.6.5 1 .8l-.3-1.2c-.1-.4-.2-.9-.2-1.4-.1.2-.2.3-.2.4l-.3.3c-.1.1-.2.1-.4.2-.3.1-.4.1-.6.1zm2.3-14.8v-.6c-.2.1-.4.2-.5.4-.2.2-.3.4-.5.7.1 0 .2 0 .3.1.1.1.3.2.4.3h.2c.1-.2.1-.4.1-.5v-.4zm0 7.7c.1-.2.1-.4.2-.5.1-.2.1-.3-.1-.5 0-.1 0-.1-.1-.2-.1 0-.1-.1-.2-.2-.1.1-.2.2-.2.3 0 .1-.1.2-.2.3.1.1.2.2.3.4.1 0 .2.2.3.4zm1.4-10.9v-.8c-.1.1-.2.2-.4.3-.1.1-.3.2-.3.3 0 .1 0 .1.1.1h.2c.1 0 .2 0 .2.1h.2zm-.4 7.7v-.5c0 .1 0 .2-.1.3-.1.1-.1.2-.1.3.1-.1.2-.1.2-.1zm8.9 10.7c-.1.1-.2.1-.3.2-.1.1-.2 0-.2 0-.2 0-.4 0-.5-.1-.2-.1-.3-.2-.4-.3-.3-.3-.4-.5-.4-.9 0-.3.1-.5.4-.7 1.3-1.3 2.2-2.5 2.8-3.6.5-1.2.7-2.3.6-3.3-.3-1.3-.9-2.5-1.9-3.4-1-.9-1.9-1.5-2.7-1.8-.3-.1-.5-.3-.7-.6-.1-.3-.1-.6 0-.9.1-.3.3-.6.5-.7.3-.1.6-.1.8 0 .9.3 2 1.1 3.4 2.3 1.4 1.2 2.2 2.7 2.6 4.7.3 1.5 0 3-.6 4.6-.6 1.5-1.8 3-3.4 4.5zm5.8-17.8c1.6 1 2.7 2.4 3.5 3.9.8 1.6 1.2 3.4 1.2 5.3 0 2.2-.5 4.1-1.5 5.7-1 1.6-2.1 2.9-3.3 3.9-1.2 1-2.3 1.8-3.3 2.3-1 .5-1.6.7-1.7.8h-.4c-.3 0-.5 0-.7-.1-.2-.1-.3-.3-.4-.6-.1-.3-.1-.5.1-.8.1-.3.3-.5.6-.6 1.7-.8 3.1-1.6 4.1-2.5 1-.9 2-2 2.8-3.3.9-1.3 1.3-2.9 1.3-4.8 0-1.6-.3-3-.9-4.2-.6-1.2-1.5-2.2-2.7-3.1-1.2-.8-2.3-1.4-3.4-1.6-1.1-.3-1.9-.4-2.2-.6-.3 0-.6-.1-.8-.3-.2-.2-.3-.5-.3-.9s.1-.6.4-.8c.2-.2.5-.3.8-.3.6.1 1.6.3 2.8.6 1.4.5 2.7 1.1 4 2zm11.3 16v-.4c0-.1.1-.2.1-.3-.9 2.6-2 5.1-3.2 7.6-1.3 2.5-2.6 4.7-4.1 6.5 2-1.6 3.6-3.6 4.8-5.9 1.2-2.2 2-4.7 2.4-7.5z"/><path class="st0" d="M60.4 91.3c.9 2.2 1.5 4.8 1.9 7.6.4 2.9.6 6 .6 9.4v.1c-.2 2.1-.5 4.1-.9 5.9-.5 1.8-1.1 3.5-1.9 5-.8 1.5-1.7 2.9-2.7 4.1-1 1.2-2.3 2.3-3.6 3.2-1 .7-2.1 1.3-3.3 1.9-1.2.6-2.5 1-3.8 1.3l-.1.1c-.1 0-.1.1-.1.1h-.1c-2.4 1-4.8 1.7-7 2.2-2.2.5-4.4.7-6.5.7-2 0-3.8-.2-5.6-.7-1.8-.4-3.5-1.1-5-2l-1.5-.9c-.5-.3-.9-.7-1.4-1.1l-1.5-.9c-.5-.4-1-.7-1.4-1.1-1.4-1.2-2.7-2.6-3.8-4.1-1.1-1.5-2-3.2-2.8-5.1-.8-1.9-1.4-3.9-1.9-6.1-.5-2.2-.7-4.6-.9-7.1-.1-2-.1-3.8.2-5.6.2-1.8.6-3.4 1.2-5s1.3-3 2.2-4.4c.9-1.4 2-2.6 3.2-3.8 1.4-1.3 3-2.5 4.7-3.4 1.7-.9 3.4-1.7 5.2-2.3 1.8-.6 3.6-1.1 5.4-1.3 1.8-.3 3.4-.4 5-.4V77c1.5 0 3 .1 4.4.3 1.5.2 2.9.5 4.2.9 1.8.2 3.7.6 5.6 1.1s3.8 1.5 5.6 2.9c1.4 1.1 2.6 2.4 3.7 3.9 1.1 1.6 2 3.3 2.7 5.2zM14.8 86c-2.1 2-3.7 4.3-4.8 7-1.1 2.7-1.7 5.6-1.7 8.9.1-1.6.4-3.3.9-4.8.5-1.6 1-3.1 1.8-4.5.7-1.4 1.6-2.8 2.5-4 1-1.3 2-2.4 3.2-3.4.6-.6 1.2-1.2 2-1.7.7-.5 1.5-1.1 2.4-1.5-1.1.5-2.2 1.1-3.3 1.8-1.1.5-2.1 1.3-3 2.2zm-5.6 25.1c.3 1.4.7 2.8 1.1 4 .5 1.3 1 2.4 1.5 3.6-.5-1.1-1-2.3-1.4-3.5-.4-1.2-.8-2.4-1.1-3.6 0-.1-.1-.2-.1-.2v-.3zm1.5-12.6v-.2c0-.1 0-.2.1-.3-.5 1.6-.8 3.3-1 4.9-.2 1.6-.1 3.3.1 4.9 0 .2.1.3.1.5s0 .3.1.5c-.1-1.6-.1-3.2 0-4.9 0-1.8.2-3.6.6-5.4zm49 5.4v-1.1c0-.4-.1-.8-.1-1.1l-.8.1c0-.5-.1-.9-.1-1.4v-3.3c-.2-.7-.5-1.4-.8-2.1l-.9-2.1c-1.1-1.6-2.4-3.1-3.8-4.5s-2.9-2.6-4.6-3.7c-1.7-1.1-3.4-2-5.2-2.7-1.8-.7-3.6-1.3-5.5-1.6-1.9-.2-3.7-.3-5.6-.1-1.8.1-3.6.5-5.3 1-1.7.5-3.3 1.3-4.9 2.2-1.6.9-3 2-4.4 3.3-.9.8-1.7 1.6-2.4 2.5-.7.9-1.4 1.9-2 2.9-.7 1.8-1.3 3.9-1.5 6.5v.1c-.4 1.9-.6 3.7-.7 5.4-.1 1.7-.1 3.4.1 5s.4 3.1.9 4.5c.4 1.4.9 2.8 1.6 4.1 1.1 1.6 2.5 3.1 4 4.4 1.5 1.3 3.2 2.5 4.9 3.4 1.8.9 3.7 1.7 5.7 2.2 2 .5 4.1.8 6.3.8 3.5 0 6.8-.6 9.8-1.9 3-1.3 5.7-3 8-5.2s4.1-4.8 5.4-7.8c1.2-3.2 1.9-6.4 1.9-9.8zm-32.3 26.4c2.5.5 4.6.7 6.5.7-1.5-.1-3-.3-4.7-.7-1.7-.4-3.3-.9-5-1.6-1.7-.7-3.3-1.6-4.8-2.7-1.6-1.1-3-2.4-4.3-4 .7 1 1.5 2 2.3 3 .8.9 1.7 1.8 2.7 2.6 2.4 1.3 4.8 2.2 7.3 2.7zm25.9-28.2l.1.9c-.4.4-.8.7-1.2.9-.4.2-.8.5-1.2.7-.3.2-.7.4-1 .6-.4.2-.8.5-1.2.8-1.9 1.4-3.7 2.6-5.4 3.8-1.7 1.1-3.3 2.2-4.9 3.2-1.4.9-2.7 1.8-4.1 2.7-1.3.9-2.7 1.8-3.9 2.8l-1.8 1.4-.8-.3H27L26.3 90c0-.1-.1-.1-.1-.2v-.2l.1-.1v-.4l.9-.6 3.5 1.6.6.3.6.3c.3.1.6.2.9.4.3.1.6.3.9.5 1.1.7 2.3 1.2 3.4 1.8 1.1.5 2.2 1 3.4 1.5 1.7.8 3.4 1.6 5.2 2.5 1.8.9 3.7 2 5.7 3.4.1 0 .2.1.4.1.1.1.2.1.3.1l-.1.2c.2.2.5.3.7.5.2.1.4.3.6.4zM27.7 90.5l.2-.1h-.2v.1zm1.1 1.5c-.1-.1-.1-.1 0 0l-.1-.1v.1h.1zm.2 20.5v.5c0 .2 0 .3-.1.5l.1-.1c0-.1 0-.1.1-.1 0-.1-.1-.2-.1-.3v-.5zm.3-9.2h-.2v.6c0 .2 0 .4.1.7v2.8c0-.1 0-.2.1-.3l.8.1.1-.1-.6-.3c0-.3 0-.6.1-.9 0-.3.1-.6.1-.9-.1-.3-.2-.5-.2-.8-.2-.4-.2-.7-.3-.9zm-.2 13.3l.4-.4c.1-.1.2-.3.4-.4 0-.2-.1-.3-.1-.4 0-.1-.1-.3-.1-.4-.1.2-.2.5-.3.7-.2.4-.3.7-.3.9zm23.6 6.9c.9-.9 1.9-1.9 2.9-3.1 1-1.2 1.8-2.6 2.7-4.2.8-1.6 1.5-3.3 2-5.2.5-1.9.8-4.1.8-6.4 0-.7 0-1.3-.1-2 0-.6-.1-1.3-.2-1.9 0 0 0-.1-.1-.1.1.5.1 1.1.2 1.6 0 .6.1 1.1.1 1.7 0 3.6-.7 6.9-2.1 10-1.4 3.1-3.3 5.8-5.7 8.1-2.4 2.3-5.2 4.2-8.4 5.5-3.2 1.4-6.6 2-10.3 2-.9 0-1.7 0-2.6-.1-.9-.1-1.7-.2-2.6-.4.8.2 1.6.3 2.4.5.8.1 1.5.2 2.2.2 1.7.1 3.3.1 4.8 0s3-.2 4.3-.4c1.7-.6 3.4-1.5 5.1-2.5 1.7-.9 3.2-2 4.6-3.3zM31.3 96.3c0-.1 0-.1 0 0v-.2c-.1-.1-.2-.2-.4-.3-.1-.1-.3-.2-.4-.3l-.4-.4c-.1-.1-.2-.3-.2-.4v.3s0 .2-.1.3c.1.3.1.5.2.8.1.3.1.5.1.8l.1-.1s.1 0 .1-.1l.3-.3c.3-.1.5-.1.7-.1zm-.9 5.6c0-.2.1-.4.1-.6 0-.2.1-.4.1-.6 0-.1 0-.2-.1-.3 0-.2-.1-.3-.2-.5l-.1.1c0 .2-.1.4-.2.7l-.3.6v.2c0 .1.1.2.1.3 0 .1.1.2.1.3h.2c.2-.1.3-.2.3-.2zm.6-10.2c-.1-.1-.3-.1-.4-.2v.3c.1.1.2.2.3.2.1.1.2.1.3.2l1.5.2c-.2-.1-.5-.2-.7-.3-.2-.1-.5-.2-.7-.3 0 0-.1 0-.3-.1zm.6 16.7c-.2-.1-.3-.2-.5-.3-.2-.1-.3-.2-.5-.3 0 .3.1.7.1 1.1 0 .4.1.7.1 1.1.1-.3.2-.5.4-.7.2-.4.3-.6.4-.9zm.7-14.1c-.2-.2-.5-.3-.7-.5-.3-.2-.5-.3-.7-.5h-.2c0 .2.1.4.2.6.1.2.2.4.5.6.1 0 .1.1.2.1.1.1.1.1.2.1 0 0 .1-.1.1-.2s.1-.1.1-.2h.3zm0 5.6c-.3-.2-.5-.4-.7-.7-.2-.3-.3-.6-.4-1 0 .1-.1.1-.1.2s0 .1-.1.1c.2.3.3.6.4.9.1.3.2.6.3.8l.3-.1c0 .1 0 .2.1.3 0 .1.1.2.1.3v-.4c.1-.1.1-.3.1-.4zm-1.2 4.8v-.3.3c-.1.1 0 .1 0 .2v-.2zm.4-1.8zm.8-5.6c0 .2 0 .4.1.6 0 .1.1.2.1.3 0 .1.1.2.1.3v-.1c0-.3.1-.5.2-.8.1-.2.3-.4.5-.6-.2-.1-.3-.1-.5-.2-.2 0-.3-.1-.5-.2.1.3 0 .5 0 .7zm.3 9c0-.1.1-.2.1-.2v-.2h-.1s-.1 0-.1.1l.1.1v.2zm.3-10.9c.2.1.4.1.6.1h.6c-.2-.1-.4-.1-.6-.1h-.6zm.1 15.5c.3-.5.6-1 1-1.5.3-.5.7-.9 1.1-1.3-.2 0-.5.1-.7.1h-.7c.1.1.2.2.4.3.1.1.2.2.4.3l-.7 1-.5-.3-.1-.1-.2 1.5zm4.8 1.2c1.1-.8 2.3-1.5 3.5-2.4 1.2-.8 2.5-1.7 3.8-2.6l-.1.1c-.3 0-.6.1-.9.2l-.9.3-1 1c-.4.3-.7.6-1.1.9l.1.2c-1.4.8-2.8 1.7-4.2 2.6-1.4.9-2.7 1.8-4 2.8.8-.5 1.6-1.1 2.4-1.6l2.4-1.5zm-4.5-8.9c.1.1.2.2.2.3.1.1.1.2.2.3 0 0 .1 0 .1-.1.1 0 .1-.1.1-.1 0-.1-.1-.1-.1-.2s0-.1-.1-.2c-.1-.2-.2-.4-.3-.7-.1-.2-.2-.4-.2-.7 0 .2-.1.4-.1.6s.2.6.2.8zm3.9 4.3c-.7.7-1.4 1.4-2 2.2-.6.8-1.1 1.6-1.6 2.5.5-.5 1.1-1 1.7-1.4s1.2-.9 1.8-1.3v-1.3c.1-.2.1-.4.1-.7zM35.3 94l-1.4-.2 1.2.6 1.2.6c0-.1.1-.2.1-.2v-.2l1 .3c-.4-.2-.7-.3-1.1-.5-.4-.2-.7-.4-1.1-.5v.1zm3.1 14.6s.1 0 .1-.1l.1-.1c.2-.3.3-.5.5-.7l.6-.6h-.4l-.2-1c.4-.4.9-.7 1.4-1l1.5-.9-.1-.2-.1-.1c-.4.2-.8.4-1.2.5-.4.2-.8.3-1.2.5l-.8-.7c0-.1.1-.2.1-.3 0-.1 0-.2.1-.2-.2.2-.4.5-.6.7-.2.2-.4.5-.6.7-.1.2-.2.3-.3.4l-.3.3c-.3.3-.7.6-1.1.8-.4.2-.8.3-1.3.3h-.5s0 .1-.1.1h.6c.2 0 .4 0 .6-.1l.1.7 1.2-1.2c.4-.4.9-.7 1.4-1.1l.9.8c-.4.5-.6.9-.6 1.3.2.4.2.8.2 1.2zM36 96.4v-.3c-.1 0-.1-.1-.2-.1s-.1 0-.1-.1l-.1.3c-.1 0-.1.1-.2.1h-.1c.1.1.2.1.3.2.1 0 .2.1.3.1.1 0 .1-.1.1-.2zm-.1 8.8c.1 0 .1-.1.2-.1 0 0 .1-.1.1-.2.1 0 .1-.1.2-.2s.1-.2.1-.3v-.1l.1-.1c0-.1.1-.1.1-.2s0-.1.1-.2h-.1c-.1.2-.2.3-.4.5-.1.2-.3.3-.4.5v.4zm3.2-5.7s0-.1.1-.1c-.4-.2-.8-.4-1.1-.5-.4-.2-.7-.3-1.1-.5 0 .1-.1.2-.1.3v.3c.4.1.8.2 1.1.4.4.2.7.4.9.7 0-.1.1-.1.1-.2v-.1c.1-.2.1-.2.1-.3zm.3-1.3c0-.1.1-.2.1-.3 0-.1 0-.2.1-.3-.4-.2-.8-.3-1.2-.5-.4-.2-.8-.3-1.2-.5v.4c.4.2.8.4 1.1.5.3.4.7.5 1.1.7zm-1.7-2.6s.1 0 .1.1c0-.1 0-.1-.1-.1 0-.1 0-.1 0 0l.4-.4c-.1 0-.1-.1-.2-.1s-.1-.1-.2-.1c0 .1-.1.2-.1.3 0 .1 0 .2-.1.3.1-.1.1-.1.2 0zm2.6.5c-.1 0-.2-.1-.3-.1.1 0 .2.1.3.2.1.1.2.2.3.2 0 0 0-.1.1-.1-.2-.1-.3-.1-.4-.2zm2.1 3.1c-.2-.2-.5-.3-.7-.5-.2-.2-.5-.3-.7-.5 0 0-.1 0-.1-.1-.1 0-.1-.1-.2-.1 0 .1-.1.2-.1.3s-.1.2-.1.3l.1.1v.1c.1-.1.2-.1.2-.2.1 0 .2-.1.2-.2l.9.8c0 .1-.1.2-.1.2 0 .1-.1.2-.1.2l.1.5c.1 0 .2-.1.3-.1h.3l.5.4v-.4c0-.1 0-.3.1-.4h-.2l.2-.7c-.1 0-.2-.1-.2-.1-.1 0-.2-.1-.2-.1l-.2.5zm-1.1 3.2c.2.1.4.1.6.2l-.1-1c-.2 0-.4.1-.6.1-.2.1-.3.1-.5.3v.1c0 .1-.1.1-.1.1.3.1.5.1.7.2zm2-4.5c0-.1.1-.1.1-.2s0-.1.1-.2l-1.2-.6c-.4-.2-.8-.4-1.2-.5l.4.6.1.1s.1.1.2.1c.3.1.5.2.8.3.2.2.4.3.7.4zm1.4 6.4c-.6.2-1.2.4-1.7.7-.6.3-1.1.6-1.7.9.1 0 .1-.1.2-.1h.2c.1 0 .2-.1.3-.1.1-.1.3-.1.4-.1l.3.6c.1-.2.3-.4.4-.6l.5-.5c.2-.2.3-.3.5-.4.3-.1.5-.3.6-.4zm3.7-22.5c-.9-.5-1.8-1-2.8-1.4-1-.4-2-.8-3-1h-.4c.9.3 1.7.6 2.5.9.8.3 1.6.7 2.4 1.1.2.1.5.2.7.3.2-.1.4 0 .6.1zm-3.3 16.9l-.1-.1.2-.2c-.1-.1-.2-.1-.3-.2-.1-.1-.2-.1-.3-.1v.3c.1 0 .2.1.3.1 0 .2.1.2.2.2zm-.3 7l.1.1-.1.1s-.1 0-.1.1h.3c.3 0 .5-.1.8-.1.3-.1.5-.1.7-.3.2-.1.3-.2.5-.4s.3-.3.4-.5l.1-.1.1-.1c-.5.1-1 .3-1.5.5-.4.1-.9.4-1.3.7zm1.9-2.4c.1-.1.2-.2.4-.3.1-.1.2-.3.4-.4-.1-.2-.2-.3-.4-.5-.1-.2-.3-.3-.4-.4-.3.2-.6.3-.9.4-.3.1-.6.3-.9.4l.1.1c0 .1 0 .1.1.1h.4c.2-.1.4-.1.6-.2.2 0 .4-.1.6-.1v.9zm1.6-1.6c0-.1 0-.1 0 0 0-.1-.1-.2-.1-.2l-.1-.1v.1l.1.1c0-.1 0 0 .1.1zm6-17.7c-1.6-1.4-3.3-2.4-5-3.1.8.5 1.6 1 2.4 1.6.8.6 1.5 1.2 2.2 1.8l.7.7.7.7c.4.3.7.7 1 1.1.3.4.6.7.9 1.1.2.3.4.6.5.9.2.3.3.6.5.8-.9-2.3-2.3-4.2-3.9-5.6zm-3.9 19.6c.1-.1.2-.2.4-.2.1-.1.3-.2.4-.2-.1 0-.2 0-.3-.1-.1 0-.2-.1-.3-.1-.1.2-.2.4-.4.6-.2.2-.4.3-.6.4l-.1.1s-.1.1-.1.2c.2-.1.3-.2.5-.3.2-.2.3-.3.5-.4zm.9-.4c.1-.1.2-.2.4-.3.1-.1.2-.2.4-.3-.1-.1-.2-.1-.2-.2-.1-.1-.2-.1-.2-.2l-.4 1zm1.9 22.5c1.3-.9 2.4-1.9 3.4-3s1.9-2.4 2.6-3.9c-.9 1.5-2 2.8-3.3 4.2-1.3 1.3-2.7 2.6-4.2 3.8.3-.2.5-.3.8-.5.2-.3.4-.5.7-.6zm2.5-37.2c.9 1.2 1.7 2.4 2.4 3.8 0 0 .1 0 .1.1 0-.2-.1-.4-.2-.7-.1-.2-.2-.4-.2-.7-.4-.8-.9-1.5-1.4-2.2-.5-.7-1.1-1.4-1.7-2.1-.3-.3-.6-.5-.9-.8-.3-.2-.7-.5-1-.7.9 1 1.9 2.1 2.9 3.3zm3.1 2l-.1-.1s.1 0 .1.1c0-.1 0-.1 0 0zm59.6-11c1.9.9 3.9 2.1 5.8 3.6 1.9 1.6 3.6 3.6 5.1 6.2 1.4 2.5 2.5 5.7 3.2 9.4.7 3.7.7 8.2.2 13.3-.3 2.2-.8 4.2-1.5 6.1-.7 1.9-1.7 3.6-2.9 5.2s-2.6 3-4.2 4.2c-1.6 1.2-3.5 2.2-5.6 3-.3.1-.7.2-1 .3-.3.1-.7.3-1.1.3-1.3.6-2.7 1.1-4.3 1.4-1.6.3-3.1.4-4.8.4-1.6 0-3.2-.1-4.9-.4-1.6-.3-3.3-.7-5-1.2-2.3-.6-4.4-1.4-6.4-2.5-2-1-3.8-2.2-5.5-3.6-1.4-1.2-2.6-2.4-3.7-3.8-1-1.4-1.9-2.8-2.5-4.4-.7-1.5-1.2-3.2-1.5-4.8-.3-1.7-.4-3.4-.4-5.2-.3-1.6-.4-3.2-.4-4.8 0-1.6.1-3.3.2-5.1 0-.3.1-.6.4-.8.2-.2.5-.3.9-.3.2 0 .3 0 .4.1.1.1.2.1.3.2.6-2.3 1.5-4.6 2.6-7 1.1-2.4 2.7-4.5 4.7-6.4 1.1-1.2 2.8-2.3 5.1-3.3 2.4-1 5-1.7 7.9-2.2 1-.2 2.2-.3 3.6-.4s3-.1 4.6 0c1.6.1 3.4.3 5.2.7 1.8.4 3.7 1 5.5 1.8zm4.5 41.8c1.6-2.4 3-5 4.1-7.7.5-1.1.9-2.4 1.4-3.7.5-1.4.8-2.8 1.1-4.4.3-1.5.4-3.1.4-4.7s-.2-3.2-.6-4.8c-.4-1.7-1-3.3-1.9-4.7-.9-1.4-2-2.8-3.3-3.9-1.3-1.2-2.9-2.2-4.7-3.1-1.8-.9-3.8-1.6-6-2.2-2.5-.6-4.9-1.1-7.1-1.3-2.2-.3-4.3-.3-6.2-.2s-3.7.4-5.3.9c-1.6.5-3.1 1.1-4.4 2-1.7 1.1-3.1 2.5-4.2 4-1.1 1.6-2.1 3.2-2.8 4.9-.7 1.7-1.3 3.5-1.7 5.2-.4 1.7-.8 3.3-1.1 4.8l-.2.7c-.2.6-.3 1.2-.4 1.9-.1.7-.1 1.3-.1 2 .3 1.9.7 3.6 1.2 5.2s1.2 3.2 2 4.7c1.3 2.3 2.9 4.4 4.8 6.2 1.9 1.8 4 3.3 6.4 4.5.6.4 1.3.7 2 1 .7.3 1.5.5 2.2.8 2.8.7 5.6 1.1 8.5 1.1 2.9 0 5.7-.4 8.4-1.2.4-.3.9-.5 1.4-.8.5-.3.9-.6 1.3-1 1.5-1.8 3.1-3.8 4.8-6.2zM106 91.6c.2.1.3.2.5.4.1.2.2.3.2.5.1.4.1 1.7.1 4 0 2.2-.1 4.8-.2 7.6s-.2 5.6-.4 8.4c-.1 2.8-.3 4.9-.3 6.3 0 .3-.1.6-.3.8-.2.2-.5.3-.7.3-.3 0-.5-.1-.7-.4-.2-.2-.3-.5-.3-.9v-.6c-.8-.6-2.2-1.6-4.2-3.2s-3.4-2.7-4.2-3.3c-.7.1-1.7.2-3.1.3-1.4.1-2.3 0-2.7 0-.6-.1-.9-.5-1.1-1.1-.1-.6-.2-1.3-.3-1.9-.1-.5-.2-1.2-.2-2v-5.4c0 .1-.1.1-.2.2-.3.2-.5.2-.8.2-.3-.1-.5-.2-.7-.5-.2-.3-.2-.5-.2-.9.1-.3.2-.6.5-.8.2-.1.4-.2.7-.3.3-.1.6-.2 1.1-.3v-.9c0-.3.1-.5.4-.7.2-.2.5-.3.8-.3.3 0 .5.1.8.4.2.2.3.5.3.9.1-.1.3-.2.5-.3.2-.1.4-.1.5-.1.9-.3 1.8-.4 2.6-.6.9-.1 1.6 0 2.1.2.4-.2 1-.6 1.9-1.3.9-.6 1.7-1.3 2.3-1.8 1.6-1.2 2.7-2.1 3.5-2.6.6-.3 1.3-.4 1.8-.3zm-15.3 10c.1.1.2.2.3.2.1 0 .4.1.7.2l.5-1.8c-.2 0-.3 0-.5.1-.1.1-.3.1-.4.1-.2.1-.4.1-.6.2-.2 0-.4.1-.6.2v.8h.6zm.2 2.9l-.7-.5v2.6l.7-2.1zm3.2-2.9h.5c.2 0 .4-.1.5-.1-.2 0-.3 0-.4-.1-.1-.1-.3-.1-.4-.1l-.2.3zM96 105c.1-.3.4-.7 1.1-1-.4 0-.7 0-1 .1-.3.1-.5.3-.6.6-.1.1-.1.2-.2.3 0 .1-.1.2-.2.3l1 1.1c-.1-.1-.1-.2-.1-.3v-.3c-.1-.2-.1-.5 0-.8zm.5 4.8l-.2-.2c.1 0 .2.1.2.2zm1-9.9c.1.1.2.1.3.1.3-.1.7-.4 1-.7.3-.3.6-.7.9-1.1.1-.1.2-.2.2-.3l.3-.3c-.6.5-1.2 1-1.7 1.3-.5.4-1 .6-1.5.8.2.1.4.2.5.2zm1 5.7c0 .1 0 .1.1.1h.5c.1-.1.2-.2.4-.3.2-.1.3-.2.5-.4-.1-.1-.2-.1-.2-.2-.1 0-.2-.1-.2-.2-.2.1-.4.3-.5.5-.3.2-.5.4-.6.5zm.8 3.7l1.2 1.1c.2-.2.4-.4.5-.6.2-.2.3-.5.5-.8v-.4c-.1.2-.2.3-.4.4-.2.1-.3.1-.5.1l-1.3.2zm1.6 3.9c.4.3.7.5 1 .8.3.3.6.5 1 .8l-.3-1.2c-.1-.4-.2-.9-.2-1.4-.1.2-.2.3-.2.4l-.3.3c-.1.1-.2.1-.4.2-.3.1-.4.1-.6.1zm2.3-14.8v-.6c-.2.1-.4.2-.5.4-.2.2-.3.4-.5.7.1 0 .2 0 .3.1.1.1.3.2.4.3h.2c.1-.2.1-.4.1-.5v-.4zm0 7.7c.1-.2.1-.4.2-.5.1-.2.1-.3-.1-.5 0-.1 0-.1-.1-.2-.1 0-.1-.1-.2-.2-.1.1-.2.2-.2.3 0 .1-.1.2-.2.3.1.1.2.2.3.4.1 0 .2.2.3.4zm1.4-10.9v-.8c-.1.1-.2.2-.4.3-.1.1-.3.2-.3.3 0 .1 0 .1.1.1h.2c.1 0 .2 0 .2.1h.2zm-.4 7.7v-.5c0 .1 0 .2-.1.3-.1.1-.1.2-.1.3.1-.1.2-.1.2-.1zm8.9 10.7c-.1.1-.2.1-.3.2-.1.1-.2 0-.2 0-.2 0-.4 0-.5-.1-.2-.1-.3-.2-.4-.3-.3-.3-.4-.5-.4-.9 0-.3.1-.5.4-.7 1.3-1.3 2.2-2.5 2.8-3.6.5-1.2.7-2.3.6-3.3-.3-1.3-.9-2.5-1.9-3.4-1-.9-1.9-1.5-2.7-1.8-.3-.1-.5-.3-.7-.6-.1-.3-.1-.6 0-.9.1-.3.3-.6.5-.7.3-.1.6-.1.8 0 .9.3 2 1.1 3.4 2.3 1.4 1.2 2.2 2.7 2.6 4.7.3 1.5 0 3-.6 4.6-.6 1.5-1.8 3-3.4 4.5zm5.8-17.8c1.6 1 2.7 2.4 3.5 3.9.8 1.6 1.2 3.4 1.2 5.3 0 2.2-.5 4.1-1.5 5.7-1 1.6-2.1 2.9-3.3 3.9-1.2 1-2.3 1.8-3.3 2.3-1 .5-1.6.7-1.7.8h-.4c-.3 0-.5 0-.7-.1-.2-.1-.3-.3-.4-.6-.1-.3-.1-.5.1-.8.1-.3.3-.5.6-.6 1.7-.8 3.1-1.6 4.1-2.5 1-.9 2-2 2.8-3.3.9-1.3 1.3-2.9 1.3-4.8 0-1.6-.3-3-.9-4.2-.6-1.2-1.5-2.2-2.7-3.1-1.2-.8-2.3-1.4-3.4-1.6-1.1-.3-1.9-.4-2.2-.6-.3 0-.6-.1-.8-.3-.2-.2-.3-.5-.3-.9s.1-.6.4-.8c.2-.2.5-.3.8-.3.6.1 1.6.3 2.8.6 1.4.5 2.7 1.1 4 2zm11.3 16v-.4c0-.1.1-.2.1-.3-.9 2.6-2 5.1-3.2 7.6-1.3 2.5-2.6 4.7-4.1 6.5 2-1.6 3.6-3.6 4.8-5.9 1.2-2.2 2-4.7 2.4-7.5z"/></svg>