<svg id="Ebene_1" xmlns="http://www.w3.org/2000/svg" viewBox="0 0 32 192"><style>.st0{fill:#FFD500;}</style><path class="st0" d="M25.2 80.5c.3.8.5 1.6.6 2.3.1.7 0 1.4-.2 2-.3 1.1-.9 2-1.8 2.7-.9.7-2.1 1.2-3.6 1.5-.6.1-1 .1-1.3-.2-.3-.2-.5-.4-.5-.5-.1-.2-.2-.4-.2-.5v-.6L17 88.6c-.1.3-.2.5-.3.6-.1.2-.2.3-.3.5-.2.2-.5.4-.8.5-.3.1-.6.2-.9.2-.3 0-.5-.1-.7-.2s-.4-.3-.5-.5c-.4.3-.8.4-1.3.4s-1-.2-1.6-.5c-.7-.4-1.3-.8-1.9-1.4-.5-.5-1-1.2-1.3-1.9-.4-.7-.6-1.5-.8-2.3-.2-.8-.2-1.7-.2-2.7 0-1 .2-2 .5-2.9.3-1 .6-1.9 1.1-2.8.5-.9 1.1-1.7 1.7-2.4.6-.7 1.3-1.1 2.1-1.4l.4.9c.4-.3.8-.5 1.2-.6s.9-.3 1.5-.4V71c0-.3 0-.6.2-.9.2-.3.4-.5.7-.6.3-.1.6-.2.9-.1.3 0 .6.2.8.4l.6.6 1.4 1.4c.8.1 1.6.3 2.2.5s1.3.5 1.8.8c.5.3 1 .7 1.3 1.1.4.4.7.9.9 1.4.3.8.5 1.6.4 2.4-.4.9-.6 1.7-.9 2.5zm-16 1.1c0 .6 0 1.4.2 2.3.2.9.6 1.7 1.3 2.4 0-.2-.1-.5-.2-.7-.1-.2-.1-.5-.2-.7-.2-.7-.4-1.5-.6-2.4-.2-.9-.3-1.7-.4-2.6-.1.3-.1.5-.1.8.1.4 0 .6 0 .9zm5 5.5c.1-.2.1-.5.2-.9s.1-.9.2-1.5.1-1.3.1-2.2c0-.9.1-1.9.1-3h-.1l-1.2-2.8c.2-.1.4-.2.6-.2.2-.1.4-.1.6-.2v-1.4c-.3.1-.6.2-.8.3-.3.1-.5.3-.7.5-.4.4-.6 1-.7 1.6-.1.7-.1 1.4 0 2.2.1.8.2 1.6.4 2.4.2.8.4 1.6.5 2.2.1.5.2 1 .4 1.5.1.5.2.9.2 1.3v.3l.2-.1zm7.6-6.4c.1 0 .1 0 0 0 0-.1 0-.1.1-.1-.3-.6-.6-1.1-1.1-1.8-.4-.6-.9-1.3-1.4-1.9-.3-.3-.5-.7-.8-1s-.6-.6-.8-.9v1.5c.1 0 .1.1.2.1s.2.1.2.1c1 .5 1.7 1.1 2.3 1.9.7.8 1.1 1.5 1.3 2.1zm-4 2.4l1.2-1.3c-.1-.3-.3-.6-.5-.8-.2-.3-.4-.6-.6-.8v1.6c-.1.4-.1.8-.1 1.3zm7.4-66.6c.3.8.5 1.6.6 2.3.1.7 0 1.4-.2 2-.3 1.1-.9 2-1.8 2.7-.9.7-2.1 1.2-3.6 1.5-.6.1-1 .1-1.3-.2-.3-.2-.5-.4-.5-.5-.1-.2-.2-.4-.2-.5v-.6L17 24.6c-.1.3-.2.5-.3.6-.1.2-.2.3-.3.5-.2.2-.5.4-.8.5-.3.1-.6.2-.9.2-.3 0-.5-.1-.7-.2s-.4-.3-.5-.5c-.4.3-.8.4-1.3.4s-1-.2-1.6-.5c-.7-.4-1.3-.8-1.9-1.4-.5-.5-1-1.2-1.3-1.9-.4-.7-.6-1.5-.8-2.3-.2-.8-.2-1.7-.2-2.7 0-1 .2-2 .5-2.9.3-1 .6-1.9 1.1-2.8.5-.9 1.1-1.7 1.7-2.4.3-.5 1-.9 1.8-1.2l.4.9c.4-.3.8-.5 1.2-.6s.9-.3 1.5-.4v-.7c0-.3 0-.6.2-.9.2-.3.4-.5.7-.6.3-.1.6-.2.9-.1.3 0 .6.2.8.4l.6.6L19.2 8c.8.1 1.6.3 2.2.5s1.3.5 1.8.8c.5.3 1 .7 1.3 1.1.4.4.7.9.9 1.4.3.8.5 1.6.4 2.4-.1.7-.3 1.5-.6 2.3zm-16 1.1c0 .6 0 1.4.2 2.3.2.9.6 1.7 1.3 2.4 0-.2-.1-.5-.2-.7-.1-.2-.1-.5-.2-.7-.2-.7-.4-1.5-.6-2.4-.2-.9-.3-1.7-.4-2.6-.1.3-.1.5-.1.8.1.4 0 .6 0 .9zm5 5.5c.1-.2.1-.5.2-.9s.1-.9.2-1.5.1-1.3.1-2.2c0-.9.1-1.9.1-3h-.1l-1.2-2.8c.2-.1.4-.2.6-.2.2-.1.4-.1.6-.2v-1.4c-.3.1-.6.2-.8.3-.3.1-.5.3-.7.5-.4.4-.6 1-.7 1.6-.1.7-.1 1.4 0 2.2.1.8.2 1.6.4 2.4.2.8.4 1.6.5 2.2.1.5.2 1 .4 1.5.1.5.2.9.2 1.3v.3l.2-.1zm7.6-6.4c.1 0 .1 0 0 0 0-.1 0-.1.1-.1-.3-.6-.6-1.1-1.1-1.8-.4-.6-.9-1.3-1.4-1.9-.3-.3-.5-.7-.8-1s-.6-.6-.8-.9v1.5c.1 0 .1.1.2.1s.2.1.2.1c1 .5 1.7 1.1 2.3 1.9.7.8 1.1 1.5 1.3 2.1zm-4 2.4l1.2-1.3c-.1-.3-.3-.6-.5-.8-.2-.3-.4-.6-.6-.8v1.6c-.1.4-.1.8-.1 1.3z"/><path d="M19.2 5.5c.9.1 1.7.3 2.7.7.9.3 1.8.9 2.5 1.8.8.9 1.4 2 1.9 3.5s.7 3.5.7 5.9c-.1 1.2-.3 2.2-.6 3.1-.3.9-.7 1.7-1.3 2.4-.5.7-1.2 1.3-1.9 1.8-.8.5-1.6.9-2.6 1.1h-.1c-1 .4-1.9.7-2.8.9s-1.7.3-2.5.3-1.5-.1-2.2-.3c-.7-.2-1.4-.4-2-.8-.2-.1-.4-.2-.6-.4-.2-.1-.4-.3-.6-.4-.2-.1-.4-.2-.6-.4-.2-.1-.4-.3-.6-.4-.6-.5-1.1-1-1.5-1.6-.4-.6-.8-1.3-1.1-2-.3-.7-.5-1.5-.7-2.4-.2-.9-.3-1.8-.4-2.8 0-.8 0-1.5.1-2.2.1-.7.3-1.4.5-2 .2-.6.5-1.2.9-1.8.4-.5.8-1 1.3-1.5s1.1-1 1.8-1.4c.7-.4 1.4-.7 2.1-.9l2.1-.6c.7-.1 1.3-.2 1.9-.2V5c.6 0 1.2 0 1.8.1.7.1 1.3.2 1.8.4zM8.1 8.6c-.8.8-1.4 1.6-1.9 2.6s-.7 2.1-.7 3.3c.1-.6.2-1.2.4-1.8.2-.6.4-1.2.7-1.7.3-.5.6-1 1-1.5.3-.5.7-.9 1.2-1.3.2-.2.5-.4.7-.6.3-.2.5-.4.8-.6-.4.2-.8.4-1.1.7-.4.3-.8.5-1.1.9zm-2.2 10c.1.4.2.8.4 1.2.1.4.3.8.4 1.1-.2-.4-.3-.8-.5-1.2-.1-.4-.2-.8-.3-1.1zm.3-3.1c0-.7.1-1.3.3-2v-.1c-.2.6-.3 1.3-.4 1.9-.1.6 0 1.3 0 1.9v.2c0-.7 0-1.3.1-1.9zm.7-2c-.1.7-.2 1.5-.3 2.1v2l.3 1.8c.2.6.4 1.1.6 1.6.4.6.9 1.2 1.5 1.7s1.2 1 1.9 1.3c.7.4 1.4.7 2.2.9.8.2 1.6.3 2.5.3 1.4 0 2.7-.3 3.9-.8 1.2-.5 2.2-1.2 3.1-2.1.9-.9 1.6-1.9 2.1-3.1.5-1.2.8-2.4.8-3.7v-.8h-.3v-1.8l-.3-.9c-.1-.3-.3-.6-.4-.8-.4-.6-.9-1.2-1.5-1.7s-1.2-1-1.8-1.4c-.6-.4-1.3-.8-2-1.1s-1.4-.5-2.1-.6c-.8-.1-1.5-.1-2.2-.1-.7.1-1.4.2-2.1.4-.7.2-1.3.5-1.9.8-.6.4-1.2.8-1.7 1.3l-1 1c-.2.4-.5.8-.7 1.2-.3.7-.4 1.2-.5 1.7-.1.4-.1.7-.1.8zm3.2 11.3c.9.5 1.8.9 2.7 1.1.9.2 1.7.3 2.5.3-.6 0-1.1-.1-1.8-.3-.6-.1-1.2-.4-1.9-.6-.6-.3-1.2-.6-1.8-1-.6-.4-1.1-.9-1.6-1.5.3.4.5.7.9 1.1.3.3.7.6 1 .9zm11.6-.6c.8-.6 1.6-1.3 2.3-2.1.7-.8 1.2-1.7 1.6-2.8.4-1.1.6-2.2.6-3.5v-.2c0 1.4-.3 2.7-.8 3.9-.5 1.2-1.3 2.3-2.2 3.2-.9.9-2 1.6-3.3 2.1s-2.6.8-4 .8c-.3 0-.7 0-1-.1-.3 0-.6-.1-1-.1.3.1.6.1.9.2.3 0 .6.1.8.1h1.8c.6 0 1.1-.1 1.7-.1.9-.3 1.7-.8 2.6-1.4zM19 5.9c-.1 0-.1 0 0 0l.9.3c.3.1.6.3.9.4.1 0 .2.1.3.1.1 0 .2.1.3.1-.4-.2-.7-.4-1.1-.5-.4-.1-.8-.2-1.3-.4zm6.2 4.1c-.4-.9-.9-1.6-1.5-2.1s-1.2-.9-1.8-1.2c.5.3.9.6 1.3.9.4.3.8.7 1.1 1.1.2.2.4.4.6.7l.3.6zm-.9 13.1c.5-.5.9-1.1 1.2-1.7-.3.5-.8 1.1-1.2 1.6-.5.5-1 1-1.6 1.4.5-.4 1.1-.8 1.6-1.3zm.8-12.1c0-.1 0-.1-.1-.2 0-.1-.1-.2-.1-.3-.2-.3-.3-.6-.5-.8-.2-.3-.4-.5-.6-.8-.1-.1-.2-.2-.4-.3-.1-.1-.3-.2-.4-.3.4.4.8.8 1.1 1.2.4.5.7.9 1 1.5-.1-.1 0 0 0 0z"/><path class="st0" d="M19.2 37.5c.9.1 1.7.3 2.7.7.9.3 1.8.9 2.5 1.8.8.9 1.4 2 1.9 3.5s.7 3.5.7 5.9c-.1 1.2-.3 2.2-.6 3.1-.3.9-.7 1.7-1.3 2.4-.5.7-1.2 1.3-1.9 1.8-.8.5-1.6.9-2.6 1.1h-.1c-1 .4-1.9.7-2.8.9s-1.7.3-2.5.3-1.5-.1-2.2-.3c-.7-.2-1.4-.4-2-.8-.2-.1-.4-.2-.6-.4-.2-.1-.4-.3-.6-.4-.2-.1-.4-.2-.6-.4-.2-.1-.4-.3-.6-.4-.6-.5-1.1-1-1.5-1.6-.4-.6-.8-1.3-1.1-2-.3-.7-.5-1.5-.7-2.4-.2-.9-.3-1.8-.4-2.8 0-.8 0-1.5.1-2.2.1-.7.3-1.4.5-2 .2-.6.5-1.2.9-1.8.4-.5.8-1 1.3-1.5s1.1-1 1.8-1.4c.7-.4 1.4-.7 2.1-.9l2.1-.6c.7-.1 1.3-.2 1.9-.2v.1c.6 0 1.2 0 1.8.1.7.1 1.3.2 1.8.4zM8.1 40.6c-.8.8-1.4 1.6-1.9 2.6-.4 1-.7 2.1-.7 3.3.1-.6.2-1.2.4-1.8.2-.6.4-1.2.7-1.7.3-.5.6-1 1-1.5s.8-.9 1.3-1.3c.1-.2.4-.4.6-.6.3-.2.5-.4.8-.6-.4.2-.8.4-1.2.7-.3.3-.7.5-1 .9zm-2.2 10c.1.4.2.8.4 1.2.1.4.3.8.4 1.1-.2-.4-.3-.8-.5-1.2-.1-.4-.2-.8-.3-1.1zm.3-3.1c0-.7.1-1.3.3-2v-.1c-.2.6-.3 1.3-.4 1.9-.1.6 0 1.3 0 1.9v.2c0-.7 0-1.3.1-1.9zm.7-2c-.1.7-.2 1.5-.3 2.1v2l.3 1.8c.2.6.4 1.1.6 1.6.4.6.9 1.2 1.5 1.7s1.2 1 1.9 1.3 1.4.7 2.2.9c.8.2 1.6.3 2.5.3 1.4 0 2.7-.3 3.9-.8 1.2-.5 2.2-1.2 3.1-2.1.9-.9 1.6-1.9 2.1-3.1.5-1.2.8-2.4.8-3.7v-.8h-.3v-1.8l-.3-.9c-.1-.3-.3-.6-.4-.8-.4-.6-.9-1.2-1.5-1.7s-1.2-1-1.8-1.4c-.6-.4-1.3-.8-2-1.1s-1.4-.5-2.1-.6c-.8-.1-1.5-.1-2.2-.1-.7.1-1.4.2-2.1.4-.7.2-1.3.5-1.9.8-.6.4-1.2.8-1.7 1.3l-1 1c-.2.4-.5.8-.7 1.2-.3.7-.4 1.2-.5 1.7-.1.4-.1.7-.1.8zm3.2 11.3c.9.5 1.8.9 2.7 1.1.9.2 1.7.3 2.5.3-.6 0-1.1-.1-1.8-.3-.6-.1-1.2-.4-1.9-.6-.6-.3-1.2-.6-1.8-1-.6-.4-1.1-.9-1.6-1.5.3.4.5.7.9 1.1.3.3.7.6 1 .9zm11.6-.6c.8-.6 1.6-1.3 2.3-2.1.7-.8 1.2-1.7 1.6-2.8.4-1.1.6-2.2.6-3.5v-.2c0 1.4-.3 2.7-.8 3.9-.5 1.2-1.3 2.3-2.2 3.2-.9.9-2 1.6-3.3 2.1-1.3.5-2.6.8-4 .8-.3 0-.7 0-1-.1-.3 0-.6-.1-1-.1.3.1.6.1.9.2.3 0 .6.1.8.1h1.8c.6 0 1.1-.1 1.7-.1.9-.3 1.7-.8 2.6-1.4zM19 37.9c-.1 0-.1 0 0 0l.9.3c.3.1.6.3.9.4.1 0 .2.1.3.1.1 0 .2.1.3.1-.4-.2-.7-.4-1.1-.5-.4-.1-.8-.2-1.3-.4zm6.2 4.1c-.4-.9-.9-1.6-1.5-2.1s-1.2-.9-1.8-1.2c.5.3.9.6 1.3.9.4.3.8.7 1.1 1.1.2.2.4.4.6.7l.3.6zm-.9 13.1c.5-.5.9-1.1 1.2-1.7-.3.5-.8 1.1-1.2 1.6-.5.5-1 1-1.6 1.4.5-.4 1.1-.8 1.6-1.3zm.8-12.1c0-.1 0-.1-.1-.2 0-.1-.1-.2-.1-.3-.2-.3-.3-.6-.5-.8-.2-.3-.4-.5-.6-.8-.1-.1-.2-.2-.4-.3-.1-.1-.3-.2-.4-.3.4.4.8.8 1.1 1.2.4.5.7.9 1 1.5-.1-.1 0 0 0 0z"/><path class="st0" d="M16.5 47.5v.2c0 .1 0 .1-.1.1l-.2.2c-.2.1-.4.3-.7.5-.3.2-.7.5-1.1.8-.5.3-1 .6-1.6 1-1.1.6-1.7 1-2 1.3-.3.2-.5.4-.5.4l-.1.1h-.1c-.1 0-.1 0-.1-.1v-.2h-.1l-.1-.1v-.2c0-.1 0-.1.1-.2l1.2-.9c-.2.1-.3.2-.4.2-.1.1-.2.1-.3.1 0 0-.1 0-.1-.1l-.1-.1v-.2c0-.1.1-.1.1-.1.1 0 .2-.1.4-.2s.4-.2.7-.4c.3-.1.5-.3.8-.5.3-.2.6-.3.9-.5.2-.1.4-.2.5-.3.2-.1.4-.2.5-.3.2-.1.4-.2.5-.3.2-.1.3-.2.5-.3l-.3-.2-4.8-1.6c-.1 0-.1-.1-.1-.2v-.2c0-.1 0-.1.1-.2h.2l1.8.6-1-.4s-.1 0-.1-.1v-.5s0-.2.1-.3l-.4-.3 5 3h.3c.1 0 .1.1.1.1v.2l.1.1s.1 0 .1.1c.3-.1.3-.1.3 0z"/><path class="st0" d="M22.5 47.5v.2c0 .1 0 .1-.1.1l-.2.2c-.2.1-.4.3-.7.5-.3.2-.7.5-1.1.8-.5.3-1 .6-1.6 1-1.1.6-1.7 1-2 1.3-.3.2-.5.4-.5.4l-.1.1h-.1c-.1 0-.1 0-.1-.1v-.2h-.1l-.1-.1v-.2c0-.1 0-.1.1-.2l1.2-.9c-.2.1-.3.2-.4.2-.1.1-.2.1-.3.1 0 0-.1 0-.1-.1l-.1-.1v-.2c0-.1.1-.1.1-.1.1 0 .2-.1.4-.2s.4-.2.7-.4c.3-.1.5-.3.8-.5.3-.2.6-.3.9-.5.2-.1.4-.2.5-.3.2-.1.4-.2.5-.3.2-.1.4-.2.5-.3.2-.1.3-.2.5-.3l-.3-.2-4.7-1.7c-.1 0-.1-.1-.1-.2v-.2c0-.1 0-.1.1-.2h.2l1.8.6-1.1-.3s-.1 0-.1-.1v-.5s0-.2.1-.3l-.4-.3 5 3h.3c.1 0 .1.1.1.1v.2l.1.1s.1 0 .1.1c.3-.1.3-.1.3 0z"/><path d="M16.5 15.5v.2c0 .1 0 .1-.1.1l-.2.2c-.2.1-.4.3-.7.5-.3.2-.7.5-1.1.8-.5.3-1 .6-1.6 1-1.1.6-1.7 1-2 1.3-.3.2-.5.4-.5.4l-.1.1h-.1c-.1 0-.1 0-.1-.1v-.2h-.1l-.1-.1v-.2c0-.1 0-.1.1-.2l1.2-.9c-.2.1-.3.2-.4.2-.1.1-.2.1-.3.1 0 0-.1 0-.1-.1l-.1-.1v-.2c0-.1.1-.1.1-.1.1 0 .2-.1.4-.2s.4-.2.7-.4c.3-.1.5-.3.8-.5.3-.2.6-.3.9-.5.2-.1.4-.2.5-.3.2-.1.4-.2.5-.3.2-.1.4-.2.5-.3.2-.1.3-.2.5-.3l-.3-.2-4.8-1.6c-.1 0-.1-.1-.1-.2v-.2c0-.1 0-.1.1-.2h.2l1.8.6-1-.4s-.1 0-.1-.1v-.5s0-.2.1-.3l-.4-.3 5 3h.3c.1 0 .1.1.1.1v.2l.1.1s.1 0 .1.1c.3-.1.3-.1.3 0z"/><path d="M22.5 15.5v.2c0 .1 0 .1-.1.1l-.2.2c-.2.1-.4.3-.7.5-.3.2-.7.5-1.1.8-.5.3-1 .6-1.6 1-1.1.6-1.7 1-2 1.3-.3.2-.5.4-.5.4l-.1.1h-.1c-.1 0-.1 0-.1-.1v-.2h-.1l-.1-.1v-.2c0-.1 0-.1.1-.2l1.2-.9c-.2.1-.3.2-.4.2-.1.1-.2.1-.3.1 0 0-.1 0-.1-.1l-.1-.1v-.2c0-.1.1-.1.1-.1.1 0 .2-.1.4-.2s.4-.2.7-.4c.3-.1.5-.3.8-.5.3-.2.6-.3.9-.5.2-.1.4-.2.5-.3.2-.1.4-.2.5-.3.2-.1.4-.2.5-.3.2-.1.3-.2.5-.3l-.3-.2-4.7-1.7c-.1 0-.1-.1-.1-.2v-.2c0-.1 0-.1.1-.2h.2l1.8.6-1.1-.3s-.1 0-.1-.1v-.5s0-.2.1-.3l-.4-.3 5 3h.3c.1 0 .1.1.1.1v.2l.1.1s.1 0 .1.1c.3-.1.3-.1.3 0zm-9.7 75c-.9-.1-1.7-.3-2.7-.7-.9-.3-1.8-.9-2.5-1.8-.8-.9-1.4-2-1.9-3.5-.5-1.4-.7-3.4-.7-5.8.1-1.2.3-2.2.6-3.1.3-.9.7-1.7 1.3-2.4s1.2-1.3 1.9-1.8c.8-.5 1.6-.9 2.6-1.1h.1c1-.4 1.9-.7 2.8-.9.9-.2 1.7-.3 2.6-.3.8 0 1.5.1 2.2.3.7.2 1.4.4 2 .8.2.1.4.2.6.4.2.1.4.3.6.4.2.1.4.2.6.4.2.1.4.3.6.4.6.5 1.1 1 1.5 1.6.4.6.8 1.3 1.1 2 .3.7.5 1.5.7 2.4.2.9.3 1.8.4 2.8 0 .8 0 1.5-.1 2.2-.1.7-.3 1.4-.5 2-.2.6-.5 1.2-.9 1.8-.4.5-.8 1-1.3 1.5s-1.1 1-1.8 1.4c-.7.4-1.4.7-2.1.9l-2.1.6c-.7.1-1.3.2-1.9.2V91c-.6 0-1.2 0-1.8-.1-.8-.1-1.4-.2-1.9-.4zm11.1-3.1c.8-.8 1.4-1.6 1.9-2.6.4-1 .7-2.1.7-3.3-.1.6-.2 1.2-.4 1.8-.2.6-.4 1.2-.7 1.7-.3.5-.6 1-1 1.5s-.8.9-1.3 1.3c-.2.2-.4.4-.7.6-.3.2-.5.4-.8.6.4-.2.8-.4 1.2-.7.4-.3.8-.5 1.1-.9zm2.2-10l-.3-1.2c-.1-.4-.3-.8-.4-1.1.2.4.3.8.5 1.2 0 .4.1.8.2 1.1zm-.3 3.1c0 .7-.1 1.3-.3 2v.1c.2-.6.3-1.3.4-1.9.1-.6 0-1.3 0-1.9v-.2c0 .7 0 1.3-.1 1.9zm-.7 2c.1-.7.2-1.5.3-2.1v-2l-.3-1.8c-.2-.6-.4-1.1-.6-1.6-.4-.6-.9-1.2-1.5-1.7s-1.2-1-1.9-1.3c-.7-.4-1.4-.7-2.2-.9-.8-.2-1.6-.3-2.5-.3-1.4 0-2.7.3-3.9.8-1.2.5-2.2 1.2-3.1 2.1-.9.9-1.6 1.9-2.1 3.1-.5 1.2-.8 2.4-.8 3.7v.8h.3v1.8c0 .3.1.6.2.9.1.3.3.6.4.8.4.6.9 1.2 1.5 1.7s1.2 1 1.8 1.4c.6.4 1.3.8 2 1.1.7.3 1.4.5 2.1.6.8.1 1.5.1 2.2.1.7-.1 1.4-.2 2.1-.4.7-.2 1.3-.5 1.9-.8.6-.4 1.2-.8 1.7-1.3l1-1c.3-.4.6-.8.8-1.1.3-.7.4-1.2.5-1.7 0-.5.1-.8.1-.9zm-3.3-11.3c-.9-.5-1.8-.9-2.7-1.1s-1.7-.3-2.5-.3c.6 0 1.1.1 1.8.3.6.1 1.2.4 1.9.6.6.3 1.2.6 1.8 1 .6.4 1.1.9 1.6 1.5-.3-.4-.5-.7-.9-1.1-.3-.3-.6-.6-1-.9zm-11.5.6c-.8.5-1.6 1.2-2.3 2s-1.2 1.7-1.6 2.8c-.4 1.1-.6 2.2-.6 3.5v.2c0-1.4.3-2.7.8-3.9.5-1.2 1.3-2.3 2.2-3.2.9-.9 2-1.6 3.3-2.1 1.3-.5 2.6-.8 4-.8.3 0 .7 0 1 .1.3 0 .6.1 1 .1-.3-.1-.6-.1-.9-.2-.3 0-.6-.1-.8-.1h-1.8c-.6 0-1.1.1-1.7.1-.9.4-1.7.9-2.6 1.5zM13 90.1s.1 0 0 0l-.9-.3c-.3-.1-.6-.3-.9-.4-.1 0-.2-.1-.3-.1-.1 0-.2-.1-.3-.1.4.2.7.4 1.1.5.4.1.8.2 1.3.4zM6.8 86c.4.9.9 1.6 1.5 2.1s1.2.9 1.8 1.2c-.5-.3-.9-.6-1.3-.9-.4-.3-.8-.7-1.1-1.1-.2-.2-.4-.4-.6-.7l-.3-.6zm.9-13.1c-.5.5-.9 1.1-1.2 1.7.4-.6.8-1.1 1.3-1.6s1-1 1.6-1.4c-.7.4-1.2.8-1.7 1.3zM6.9 85c0 .1 0 .1.1.2 0 .1.1.2.1.3.2.3.3.6.5.8.2.3.4.5.6.8.1.1.2.2.4.3.1.1.3.2.4.3-.4-.4-.8-.8-1.1-1.2-.4-.5-.7-.9-1-1.5 0 .1 0 0 0 0z"/><path d="M15.5 80.5v-.2c0-.1 0-.1.1-.1l.2-.2c.2-.1.4-.3.7-.5.3-.2.7-.5 1.1-.8.5-.3 1-.6 1.6-1 1.1-.6 1.7-1 2-1.3.3-.2.5-.4.5-.4l.1-.1h.1c.1 0 .1 0 .1.1v.2h.1l.1.1v.2c0 .1 0 .1-.1.2l-1.2.9c.2-.1.3-.2.4-.2.1-.1.2-.1.3-.1 0 0 .1 0 .1.1l.1.1v.2c0 .1-.1.1-.1.1-.1 0-.2.1-.4.2s-.4.2-.7.4c-.3.1-.5.3-.8.5-.3.2-.6.3-.9.5-.2.1-.4.2-.5.3s-.2.2-.4.3c-.2.1-.4.2-.5.3-.2.1-.3.2-.5.3l.3.2 4.7 1.7c.1 0 .1.1.1.2v.2c0 .1 0 .1-.1.2h-.2l-1.8-.6.9.4s.1 0 .1.1v.5s0 .2-.1.3l.4.3-5-3H16c-.1 0-.1-.1-.1-.1v-.2l-.1-.1s-.1 0-.1-.1c-.2 0-.2 0-.2-.1z"/><path d="M9.5 80.5v-.2c0-.1 0-.1.1-.1l.2-.2c.2-.1.4-.3.7-.5.3-.2.7-.5 1.1-.8.5-.3 1-.6 1.6-1 1.1-.6 1.7-1 2-1.3.3-.2.5-.4.5-.4l.1-.1h.1c.1 0 .1 0 .1.1v.2h.1l.1.1v.2c0 .1 0 .1-.1.2l-1.2.9c.2-.1.3-.2.4-.2.1-.1.2-.1.3-.1 0 0 .1 0 .1.1l.1.1v.2c0 .1-.1.1-.1.1-.1 0-.2.1-.4.2s-.4.2-.7.4c-.3.1-.5.3-.8.5-.3.2-.6.3-.9.5-.2.1-.4.2-.5.3-.2.1-.4.2-.5.3-.2.1-.4.2-.5.3-.2.1-.3.2-.5.3l.3.2 4.7 1.7c.1 0 .1.1.1.2v.2c0 .1 0 .1-.1.2h-.2l-1.8-.6.9.4s.1 0 .1.1v.5s0 .2-.1.3l.4.3-5-3h-.3c-.1 0-.1-.1-.1-.1v-.2l-.1-.1s-.1 0-.1-.1c-.1 0-.1 0-.1-.1z"/><path class="st0" d="M12.8 122.5c-.9-.1-1.7-.3-2.7-.7-.9-.3-1.8-.9-2.5-1.8-.8-.9-1.4-2-1.9-3.5S5 113 5 110.6c.1-1.2.3-2.2.6-3.1.3-.9.7-1.7 1.3-2.4s1.2-1.3 1.9-1.8c.8-.5 1.6-.9 2.6-1.1h.1c1-.4 1.9-.7 2.8-.9.9-.2 1.7-.3 2.6-.3.8 0 1.5.1 2.2.3.7.2 1.4.4 2 .8.2.1.4.2.6.4.2.1.4.3.6.4.2.1.4.2.6.4.2.1.4.3.6.4.6.5 1.1 1 1.5 1.6.4.6.8 1.3 1.1 2 .3.7.5 1.5.7 2.4.2.9.3 1.8.4 2.8 0 .8 0 1.5-.1 2.2-.1.7-.3 1.4-.5 2-.2.6-.5 1.2-.9 1.8-.4.5-.8 1-1.3 1.5s-1.1 1-1.8 1.4c-.7.4-1.4.7-2.1.9l-2.1.6c-.7.1-1.3.2-1.9.2v.1c-.6 0-1.2 0-1.8-.1-.8-.3-1.4-.4-1.9-.6zm11.1-3.1c.8-.8 1.4-1.6 1.9-2.6.4-1 .7-2.1.7-3.3-.1.6-.2 1.2-.4 1.8-.2.6-.4 1.2-.7 1.7-.3.5-.6 1-1 1.5s-.8.9-1.3 1.3c-.2.2-.4.4-.7.6-.3.2-.5.4-.8.6.4-.2.8-.4 1.2-.7.4-.3.8-.5 1.1-.9zm2.2-10l-.3-1.2c-.1-.4-.3-.8-.4-1.1.2.4.3.8.5 1.2 0 .4.1.8.2 1.1zm-.3 3.1c0 .7-.1 1.3-.3 2v.1c.2-.6.3-1.3.4-1.9.1-.6 0-1.3 0-1.9v-.2c0 .7 0 1.3-.1 1.9zm-.7 2c.1-.7.2-1.5.3-2.1v-2l-.3-1.8c-.2-.6-.4-1.1-.6-1.6-.4-.6-.9-1.2-1.5-1.7s-1.2-1-1.9-1.3c-.7-.4-1.4-.7-2.2-.9-.8-.2-1.6-.3-2.5-.3-1.4 0-2.7.3-3.9.8-1.2.5-2.2 1.2-3.1 2.1-.9.9-1.6 1.9-2.1 3.1-.5 1.2-.8 2.4-.8 3.7v.8h.3v1.8l.3.9c.1.3.3.6.4.8.4.6.9 1.2 1.5 1.7s1.2 1 1.8 1.4c.6.4 1.3.8 2 1.1.7.3 1.4.5 2.1.6.8.1 1.5.1 2.2.1.7-.1 1.4-.2 2.1-.4.7-.2 1.3-.5 1.9-.8.6-.4 1.2-.8 1.7-1.3l1-1c.3-.4.6-.8.8-1.1.3-.7.4-1.2.5-1.7-.1-.5 0-.8 0-.9zm-3.3-11.3c-.9-.5-1.8-.9-2.7-1.1s-1.7-.3-2.5-.3c.6 0 1.1.1 1.8.3.6.1 1.2.4 1.9.6.6.3 1.2.6 1.8 1 .6.4 1.1.9 1.6 1.5-.3-.4-.5-.7-.9-1.1-.3-.3-.6-.6-1-.9zm-11.5.6c-.8.6-1.6 1.3-2.3 2.1s-1.2 1.7-1.6 2.8c-.4 1.1-.6 2.2-.6 3.5v.2c0-1.4.3-2.7.8-3.9.5-1.2 1.3-2.3 2.2-3.2.9-.9 2-1.6 3.3-2.1 1.3-.5 2.6-.8 4-.8.3 0 .7 0 1 .1.3 0 .6.1 1 .1-.3-.1-.6-.1-.9-.2-.3 0-.6-.1-.8-.1h-1.8c-.6 0-1.1.1-1.7.1-.9.3-1.7.8-2.6 1.4zm2.7 18.3s.1 0 0 0l-.9-.3c-.3-.1-.6-.3-.9-.4-.1 0-.2-.1-.3-.1-.1 0-.2-.1-.3-.1.4.2.7.4 1.1.5.4.1.8.2 1.3.4zM6.8 118c.4.9.9 1.6 1.5 2.1s1.2.9 1.8 1.2c-.5-.3-.9-.6-1.3-.9-.4-.3-.8-.7-1.1-1.1-.2-.2-.4-.4-.6-.7l-.3-.6zm.9-13.1c-.5.5-.9 1.1-1.2 1.7.3-.5.8-1.1 1.2-1.6.5-.5 1-1 1.6-1.4-.6.4-1.1.8-1.6 1.3zM6.9 117c0 .1 0 .1.1.2 0 .1.1.2.1.3.2.3.3.6.5.8.2.3.4.5.6.8.1.1.2.2.4.3.1.1.3.2.4.3-.4-.4-.8-.8-1.1-1.2-.4-.5-.7-.9-1-1.5 0 .1 0 0 0 0z"/><path class="st0" d="M15.5 112.5v-.2c0-.1 0-.1.1-.1l.2-.2c.2-.1.4-.3.7-.5.3-.2.7-.5 1.1-.8.5-.3 1-.6 1.6-1 1.1-.6 1.7-1 2-1.3.3-.2.5-.4.5-.4l.1-.1h.1c.1 0 .1 0 .1.1v.2h.1l.1.1v.2c0 .1 0 .1-.1.2l-1.2.9c.2-.1.3-.2.4-.2.1-.1.2-.1.3-.1 0 0 .1 0 .1.1l.1.1v.2c0 .1-.1.1-.1.1-.1 0-.2.1-.4.2s-.4.2-.7.4c-.3.1-.5.3-.8.5-.3.2-.6.3-.9.5-.2.1-.4.2-.5.3s-.4.2-.5.3c-.2.1-.4.2-.5.3-.2.1-.3.2-.5.3l.3.2 4.7 1.7c.1 0 .1.1.1.2v.2c0 .1 0 .1-.1.2h-.2l-1.8-.6.9.4s.1 0 .1.1v.5s0 .2-.1.3l.4.3-5-3h-.3c-.1 0-.1-.1-.1-.1v-.2l-.1-.1s-.1 0-.1-.1c-.1 0-.1 0-.1-.1z"/><path class="st0" d="M9.5 112.5v-.2c0-.1 0-.1.1-.1l.2-.2c.2-.1.4-.3.7-.5.3-.2.7-.5 1.1-.8.5-.3 1-.6 1.6-1 1.1-.6 1.7-1 2-1.3.3-.2.5-.4.5-.4l.1-.1h.1c.1 0 .1 0 .1.1v.2h.1l.1.1v.2c0 .1 0 .1-.1.2l-1.2.9c.2-.1.3-.2.4-.2.1-.1.2-.1.3-.1 0 0 .1 0 .1.1l.1.1v.2c0 .1-.1.1-.1.1-.1 0-.2.1-.4.2s-.4.2-.7.4c-.3.1-.5.3-.8.5-.3.2-.6.3-.9.5-.2.1-.4.2-.5.3-.2.1-.4.2-.5.3-.2.1-.4.2-.5.3-.2.1-.3.2-.5.3l.3.2 4.7 1.7c.1 0 .1.1.1.2v.2c0 .1 0 .1-.1.2h-.2l-1.8-.6.9.4s.1 0 .1.1v.5s0 .2-.1.3l.4.3-5-3h-.3c-.1 0-.1-.1-.1-.1v-.2l-.1-.1s-.1 0-.1-.1c-.1 0-.1 0-.1-.1zm15.7 32c.3.8.5 1.6.6 2.3.1.7 0 1.4-.2 2-.3 1.1-.9 2-1.8 2.7-.9.7-2.1 1.2-3.6 1.5-.6.1-1 .1-1.3-.2-.3-.2-.5-.4-.5-.5-.1-.2-.2-.4-.2-.5v-.6l-1.2 1.4c-.1.3-.2.5-.3.6-.1.2-.2.3-.3.5-.2.2-.5.4-.8.5-.3.1-.6.2-.9.2-.3 0-.5-.1-.7-.2s-.4-.3-.5-.5c-.4.3-.8.4-1.3.4s-1-.2-1.6-.5c-.7-.4-1.3-.8-1.9-1.4-.5-.5-1-1.2-1.3-1.9-.4-.7-.6-1.5-.8-2.3-.2-.8-.2-1.7-.2-2.7 0-1 .2-2 .5-2.9.3-1 .6-1.9 1.1-2.8.5-.9 1.1-1.7 1.7-2.4.6-.7 1.3-1.1 2.1-1.4l.4.9c.4-.3.8-.5 1.2-.6s.9-.3 1.5-.4v-.7c0-.3 0-.6.2-.9.2-.3.4-.5.7-.6.3-.1.6-.2.9-.1.3 0 .6.2.8.4l.6.6 1.4 1.4c.8.1 1.6.3 2.2.5s1.3.5 1.8.8c.5.3 1 .7 1.3 1.1.4.4.7.9.9 1.4.3.8.5 1.6.4 2.4-.4.9-.6 1.7-.9 2.5zm-16 1.1c0 .6 0 1.4.2 2.3.2.9.6 1.7 1.3 2.4 0-.2-.1-.5-.2-.7-.1-.2-.1-.5-.2-.7-.2-.7-.4-1.5-.6-2.4-.2-.9-.3-1.7-.4-2.6-.1.3-.1.5-.1.8.1.4 0 .6 0 .9zm5 5.5c.1-.2.1-.5.2-.9s.1-.9.2-1.5.1-1.3.1-2.2c0-.9.1-1.9.1-3h-.1l-1.2-2.8c.2-.1.4-.2.6-.2.2-.1.4-.1.6-.2v-1.4c-.3.1-.6.2-.8.3-.3.1-.5.3-.7.5-.4.4-.6 1-.7 1.6-.1.7-.1 1.4 0 2.2.1.8.2 1.6.4 2.4.2.8.4 1.6.5 2.2.1.5.2 1 .4 1.5.1.5.2.9.2 1.3v.3l.2-.1zm7.6-6.4c.1 0 .1 0 0 0 0-.1 0-.1.1-.1-.3-.6-.6-1.1-1.1-1.8-.4-.6-.9-1.3-1.4-1.9-.3-.3-.5-.7-.8-1s-.6-.6-.8-.9v1.5c.1 0 .1.1.2.1s.2.1.2.1c1 .5 1.7 1.1 2.3 1.9.7.8 1.1 1.5 1.3 2.1zm-4 2.4l1.2-1.3c-.1-.3-.3-.6-.5-.8-.2-.3-.4-.6-.6-.8v1.6c-.1.4-.1.8-.1 1.3z"/><path d="M28 141.9l-.1-.1s-.1-.1-.4-.3c-.2-.2-.7-.7-1.3-1.5-.4-.5-.7-.9-1-1.2l-.8-.8-.5-.5-.2-.2h-.2s-.1 0-.1.1v.2h-.1l-.1.1v.2l-1.4 4.9.1-.4h.6s.1 0 .1-.1v-.1l.2-.8-.2 1.6v.2s.1.1.2.1h.2l.1-.1.3-3.4c.2.4.3.8.5 1.2.1.5.2 1 .3 1.6 0 .6.1 1.1 0 1.7 0 .6-.1 1.2-.2 1.9 0 .1 0 .3-.1.7 0 .4-.2.9-.4 1.5-.2.3-.5.7-.7 1-.3.3-.5.6-.9.9-.5.5-1 .8-1.5 1.1-.5.3-1.1.6-1.7.7-.6.2-1.2.3-1.8.3-.6.1-1.3 0-1.9-.1-.6-.1-1.3-.3-1.9-.5l-1.8-.9c-.6-.4-1.1-.8-1.6-1.3s-.9-1-1.3-1.5c-.1-.2-.3-.5-.4-.7-.1-.3-.2-.5-.3-.8V145h-.3v-.8c0-1.2.2-2.3.7-3.3.5-1 1.1-1.9 1.9-2.7.8-.8 1.7-1.4 2.8-1.8 1.1-.4 2.2-.7 3.4-.7h.7v-.4h-.8c-1.2 0-2.4.2-3.5.7-1.1.5-2.1 1.1-2.9 1.9-.8.8-1.5 1.7-2 2.8-.5 1.1-.7 2.2-.7 3.4v-.2c0-1.1.2-2.2.5-3.1.4-.9.8-1.8 1.4-2.5.6-.7 1.3-1.3 2-1.8s1.5-.9 2.3-1.2c.5-.1 1-.1 1.5-.1h1.6c.2 0 .4 0 .5.1v-.4h-.3.3v-.7h-.2c-.7 0-1.5.1-2.3.3s-1.6.4-2.5.8h-.1c-.9.2-1.6.6-2.3 1-.7.4-1.2 1-1.7 1.6-.5.6-.8 1.3-1.1 2.2-.3.8-.5 1.7-.5 2.8 0 2.1.2 3.9.6 5.2.4 1.3 1 2.4 1.7 3.1.7.8 1.4 1.3 2.2 1.6.8.3 1.6.5 2.4.6l1.5.3c.5.1 1.1.1 1.6.1v-.1c.5 0 1.1-.1 1.7-.2.6-.1 1.2-.3 1.8-.5.6-.2 1.2-.5 1.8-.8.6-.3 1.1-.7 1.6-1.2.4-.4.8-.8 1.1-1.3.3-.5.6-1 .8-1.6.2-.6.3-1.1.4-1.8.1-.6.1-1.3.1-1.9-.1-.9-.2-1.7-.3-2.5-.1-.7-.3-1.3-.5-1.9 0 0 0 .1.1.1.2.2.4.5.5.7.2.2.3.4.5.6.2.2.3.4.4.5.1.1.2.3.2.3l.1.1h.1s.1 0 .1-.1v-.1c0-.1-.1-.2-.2-.2l-.3-.3.8.9s.1.1.2.1.1 0 .1-.1c0 0 0-.1.1-.1v-.1s.1 0 .1-.1.6-.2.6-.3c0 .1 0 .1 0 0zm-19.2-4.2c.4-.4.9-.8 1.4-1.1-.5.4-1 .8-1.4 1.3-.4.4-.8.9-1.1 1.4.4-.6.7-1.1 1.1-1.6zm-.6 10.8c.2.4.5.9.8 1.3.3.4.6.8 1 1.1-.1-.1-.3-.2-.4-.3l-.3-.3c-.2-.2-.4-.4-.5-.7-.2-.2-.3-.5-.5-.7 0-.1-.1-.2-.1-.2v-.2c-.1 0-.1 0 0 0zm1.1 2.7c-.5-.5-1-1.1-1.3-1.9.1.2.2.4.4.6.1.2.3.4.5.6.3.3.6.7 1 1 .4.3.7.6 1.1.8-.6-.3-1.1-.7-1.7-1.1zm4.2 1.7c-.4-.1-.8-.2-1.1-.4-.3-.1-.7-.3-1-.5.1 0 .2.1.2.1.1 0 .2.1.3.1.3.1.5.3.8.4.3.1.6.2.8.3.1 0 0 0 0 0zm10.1-13.3l.1-.7.1-.3c.1.1.2.2.3.4v.6h-.5zm.7.1c.1.3.3.6.4 1 .1.3.2.5.2.8-.1-.2-.1-.5-.2-.7-.1-.4-.2-.7-.4-1.1zm.5 3.1v.2c.1.6.1 1.1 0 1.7-.1.6-.2 1.1-.3 1.7v-.1c.1-.6.2-1.2.2-1.8.1-.6.1-1.2.1-1.7zm.6 2.5c0 1.1-.2 2-.6 2.9s-.9 1.7-1.6 2.3c-.3.3-.6.5-1 .8-.3.2-.7.4-1 .6.3-.2.5-.3.7-.5.2-.2.4-.4.6-.5.4-.4.8-.8 1.1-1.2.3-.4.6-.9.9-1.3.2-.5.5-1 .6-1.5.1-.5.2-1.1.3-1.6z"/><path d="M16.4 154c-.6 0-1.1 0-1.6-.1l-1.5-.3c-.7-.1-1.5-.3-2.4-.6-.9-.3-1.6-.9-2.3-1.6-.7-.8-1.3-1.8-1.7-3.2-.4-1.3-.7-3.1-.6-5.3.1-1.1.2-2 .5-2.8.3-.8.7-1.6 1.2-2.2.5-.6 1.1-1.2 1.8-1.6.7-.4 1.5-.8 2.3-1h.1c.9-.3 1.7-.6 2.5-.8.8-.2 1.7-.3 2.4-.3.1 0 .3.1.3.3v1.5c0 .1 0 .1-.1.2-.1 0-.1.1-.2.1H17c-1.3-.1-2.7.1-3.9.6-1 .4-1.9 1-2.7 1.8s-1.4 1.6-1.8 2.6c-.4 1-.7 2.1-.7 3.2v.5c.1 0 .3.1.3.2v1.6c.1.2.2.5.3.7.1.2.2.5.3.7.4.5.8 1 1.3 1.5s1 .9 1.6 1.2c.5.4 1.1.7 1.7.9.6.2 1.2.4 1.8.5.6.1 1.3.1 1.9.1l1.8-.3c.6-.2 1.1-.4 1.6-.7s1-.7 1.5-1.1c.3-.3.6-.6.8-.9.3-.3.5-.7.7-1 .2-.5.3-1 .4-1.4 0-.4.1-.6.1-.7.1-.7.2-1.3.2-1.9v-1.7c0-.5-.1-1-.3-1.5 0-.1-.1-.2-.1-.3l-.2 2.4c0 .1-.1.2-.2.3-.1.1-.2.1-.3.1-.1 0-.3 0-.3-.2-.1-.1-.1-.2-.1-.4v-.3h-.2l-.1.2c0 .1-.1.1-.2.2l-.2-.2.1.2c-.1 0-.3 0-.4-.2v-.3L23 138c-.1-.1-.1-.2-.1-.3 0-.1.1-.2.2-.3 0-.1 0-.1.1-.2 0-.1.1-.1.1-.1.1-.1.2-.1.3-.1.1 0 .2 0 .2.1l.2.2.5.5.8.8s.6.7 1 1.2c.8 1 1.1 1.3 1.3 1.5.2.2.3.3.4.3 0 0 .1 0 .1.1.1.1.1.1.1.2v.1c0 .1 0 .2-.1.3v.1c0 .1-.1.1-.1.2-.1.1-.2.2-.3.2-.1 0-.2 0-.3-.1l-.1-.1-.1.1c-.1 0-.2.1-.3 0-.1 0-.2-.1-.3-.2 0-.1-.1-.2-.2-.3-.1-.1-.2-.3-.4-.5l-.3-.3c0 .2.1.4.1.6.2.8.3 1.6.3 2.5 0 .7 0 1.4-.1 2-.1.6-.2 1.2-.4 1.8-.2.6-.5 1.1-.8 1.6-.3.5-.7 1-1.2 1.4-.5.5-1 .9-1.6 1.2-.6.3-1.2.6-1.8.8-.6.2-1.3.4-1.9.5-.6.1-1.1.2-1.6.2-.2-.1-.2 0-.3 0zm-2.7-.9c.4.1.8.2 1.2.2.4.1.9.1 1.4.1 0 0 .1-.1.2-.1.6 0 1.1-.1 1.7-.2s1.2-.3 1.8-.5c.6-.2 1.2-.5 1.8-.8.4-.2.8-.5 1.1-.8-.2.1-.4.3-.5.4-.3.2-.7.4-1.1.6-.1.1-.3 0-.3-.1-.1-.1 0-.3.1-.3.3-.2.5-.3.7-.5.2-.2.4-.3.6-.5.4-.4.8-.7 1.1-1.2.3-.4.6-.8.8-1.3.2-.5.4-.9.6-1.4.2-.5.3-1 .3-1.6 0-.1.1-.2.2-.2s.1 0 .2.1v-.8c-.1-.9-.2-1.7-.3-2.4 0-.1-.1-.3-.1-.4 0 .1-.1.1-.2.1s-.3 0-.3-.2c-.1-.2-.1-.5-.2-.7-.1-.3-.2-.7-.4-1h-.2c.2.4.3.8.4 1.1.2.5.2 1.1.3 1.6v.1l.1-.1c.1 0 .2 0 .3.2v.3c.1.5.1 1.1 0 1.7-.1.6-.2 1.2-.3 1.7 0 .1-.2.2-.3.2-.1 0-.1 0-.2-.1v.4c0 .4-.2 1-.4 1.5-.2.4-.5.7-.8 1.1-.3.3-.6.7-.9.9-.5.5-1 .9-1.6 1.2-.6.3-1.1.6-1.8.8-.6.2-1.2.3-1.9.4-.6.1-1.3 0-2-.1s-1.3-.3-1.9-.5c-.6-.3-1.2-.6-1.8-1-.6-.4-1.1-.8-1.6-1.3l-1-1c.1.2.3.4.4.6.3.4.6.7 1 1.1.1.1.1.2 0 .3-.1.1-.2.1-.3.1-.1-.1-.2-.2-.3-.2.2.2.3.3.5.4.3.3.7.6 1.1.8 0 0 .1 0 .1.1v-.2c.1-.1.2-.2.3-.1.1 0 .1.1.2.1l.3.1c.3.2.6.3.8.4.3.1.5.2.8.3.1 0 .2.2.2.3.2.2.1.3.1.3zm-2.6-.6c.6.2 1.3.4 1.9.5-.2-.1-.4-.2-.7-.3-.4-.1-.7-.3-1-.5 0 0-.1 0-.1-.1v.2c0 .1-.1.2-.1.2zm-3.5-13.2c-.1.3-.3.6-.4.9-.3.8-.4 1.7-.5 2.7 0 2.1.2 3.8.6 5.1.1.4.3.8.5 1.2l.1-.1h.2c0-.1-.1-.2-.1-.3 0-.1-.1-.2-.1-.2v-.1c0-.1.1-.2.2-.2h.1l-.3-.6c-.1-.3-.2-.5-.3-.8v-1.4c-.1 0-.3-.1-.3-.2v-.7c0 .1-.1.1-.2.1s-.2-.1-.2-.2v-.1c0-1.2.2-2.3.6-3.2.4-1 .9-1.8 1.5-2.5s1.3-1.4 2.1-1.9 1.5-.9 2.3-1.2c.5-.1 1-.1 1.5-.1h1.6s-.1-.1-.1-.2.1-.2.3-.2h.1v-.2c-.7 0-1.4.1-2.1.3-.8.2-1.6.4-2.4.8l-.1.1c-.7.2-1.3.4-1.8.7.1 0 .1 0 .2.1s0 .3-.1.3c-.5.4-1 .8-1.4 1.2-.4.4-.8.9-1 1.3-.1.1-.2.1-.3.1-.2-.4-.2-.5-.2-.5zm17.2 7.1zm-2.2-4zm-.1 0zm0 0zm0 0c.1 0 .1 0 0 0l.2-.8c0-.1.2-.2.3-.2.1 0 .1.1.2.1l.1-1.7v-.2l.1-.7.1-.3c0-.1.1-.2.2-.2s.2 0 .2.1c.1.1.2.2.3.4 0 0 .1.1.1.2v.5c.1 0 .2 0 .2.1.1.1.1.2.2.4 0-.1.1-.1.1-.1.1-.1.2 0 .3.1v.1c.2.3.4.5.6.7.2.2.3.4.5.6 0 .1.1.1.1.2 0 0 0-.1.1-.1.1-.1.3-.1.3 0l.8.8c0-.1.1-.2.1-.2l-.4-.4c-.2-.2-.7-.7-1.3-1.5-.4-.5-.7-.8-1-1.2-.3-.3-.5-.6-.8-.8l-.5-.5-.1-.1v.1c0 .1-.1.2-.1.2l.1.1v.1l-1.2 4.3c.1-.1.2-.1.2-.1zm5.5-.4zm-4.5-4.3z"/><path class="st0" d="M28 173.9l-.1-.1s-.1-.1-.4-.3c-.2-.2-.7-.7-1.3-1.5-.4-.5-.7-.9-1-1.2l-.8-.8-.5-.5-.2-.2h-.2s-.1 0-.1.1v.2h-.1l-.1.1v.2l-1.4 4.9.1-.4h.6s.1 0 .1-.1v-.1l.2-.8-.2 1.6v.2s.1.1.2.1h.2l.1-.1.3-3.4c.2.4.3.8.5 1.2.1.5.2 1 .3 1.6 0 .6.1 1.1 0 1.7 0 .6-.1 1.2-.2 1.9 0 .1 0 .3-.1.7 0 .4-.2.9-.4 1.5-.2.3-.5.7-.7 1-.3.3-.5.6-.9.9-.5.5-1 .8-1.5 1.1-.5.3-1.1.6-1.7.7-.6.2-1.2.3-1.8.3-.6.1-1.3 0-1.9-.1-.6-.1-1.3-.3-1.9-.5l-1.8-.9c-.6-.4-1.1-.8-1.6-1.3s-.9-1-1.3-1.5c-.1-.2-.3-.5-.4-.7-.1-.3-.2-.5-.3-.8V177h-.3v-.8c0-1.2.2-2.3.7-3.3.5-1 1.1-1.9 1.9-2.7.8-.8 1.7-1.4 2.8-1.8 1.1-.4 2.2-.7 3.4-.7h.7v-.4h-.8c-1.2 0-2.4.2-3.5.7-1.1.5-2.1 1.1-2.9 1.9-.8.8-1.5 1.7-2 2.8-.5 1.1-.7 2.2-.7 3.4v-.2c0-1.1.2-2.2.5-3.1.4-.9.8-1.8 1.4-2.5.6-.7 1.3-1.3 2-1.8s1.5-.9 2.3-1.2c.5-.1 1-.1 1.5-.1h1.6c.2 0 .4 0 .5.1v-.4h-.3.3v-.7h-.2c-.7 0-1.5.1-2.3.3s-1.6.4-2.5.8h-.1c-.9.2-1.6.6-2.3 1-.7.4-1.2 1-1.7 1.6-.5.6-.8 1.3-1.1 2.2-.3.8-.5 1.7-.5 2.8 0 2.1.2 3.9.6 5.2.4 1.3 1 2.4 1.7 3.1.7.8 1.4 1.3 2.2 1.6.8.3 1.6.5 2.4.6l1.5.3c.5.1 1.1.1 1.6.1v-.1c.5 0 1.1-.1 1.7-.2.6-.1 1.2-.3 1.8-.5.6-.2 1.2-.5 1.8-.8.6-.3 1.1-.7 1.6-1.2.4-.4.8-.8 1.1-1.3.3-.5.6-1 .8-1.6.2-.6.3-1.1.4-1.8.1-.6.1-1.3.1-1.9-.1-.9-.2-1.7-.3-2.5-.1-.7-.3-1.3-.5-1.9 0 0 0 .1.1.1.2.2.4.5.5.7.2.2.3.4.5.6.2.2.3.4.4.5.1.1.2.3.2.3l.1.1h.1s.1 0 .1-.1v-.1c0-.1-.1-.2-.2-.2l-.3-.3.8.9s.1.1.2.1.1 0 .1-.1c0 0 0-.1.1-.1v-.1s.1 0 .1-.1.6-.2.6-.3c0 .1 0 .1 0 0zm-19.2-4.2c.4-.4.9-.8 1.4-1.1-.5.4-1 .8-1.4 1.3-.4.4-.8.9-1.1 1.4.4-.6.7-1.1 1.1-1.6zm-.6 10.8c.2.4.5.9.8 1.3.3.4.6.8 1 1.1-.1-.1-.3-.2-.4-.3l-.3-.3c-.2-.2-.4-.4-.5-.7-.2-.2-.3-.5-.5-.7 0-.1-.1-.2-.1-.2v-.2c-.1 0-.1 0 0 0zm1.1 2.7c-.5-.5-1-1.1-1.3-1.9.1.2.2.4.4.6.1.2.3.4.5.6.3.3.6.7 1 1 .4.3.7.6 1.1.8-.6-.3-1.1-.7-1.7-1.1zm4.2 1.7c-.4-.1-.8-.2-1.1-.4-.3-.1-.7-.3-1-.5.1 0 .2.1.2.1.1 0 .2.1.3.1.3.1.5.3.8.4.3.1.6.2.8.3.1 0 0 0 0 0zm10.1-13.3l.1-.7.1-.3c.1.1.2.2.3.4v.6h-.5zm.7.1c.1.3.3.6.4 1 .1.3.2.5.2.8-.1-.2-.1-.5-.2-.7-.1-.4-.2-.7-.4-1.1zm.5 3.1v.2c.1.6.1 1.1 0 1.7-.1.6-.2 1.1-.3 1.7v-.1c.1-.6.2-1.2.2-1.8.1-.6.1-1.2.1-1.7zm.6 2.5c0 1.1-.2 2-.6 2.9s-.9 1.7-1.6 2.3c-.3.3-.6.5-1 .8-.3.2-.7.4-1 .6.3-.2.5-.3.7-.5.2-.2.4-.4.6-.5.4-.4.8-.8 1.1-1.2.3-.4.6-.9.9-1.3.2-.5.5-1 .6-1.5.1-.5.2-1.1.3-1.6z"/><path class="st0" d="M16.4 186c-.6 0-1.1 0-1.6-.1l-1.5-.3c-.7-.1-1.5-.3-2.4-.6-.9-.3-1.6-.9-2.3-1.6-.7-.8-1.3-1.8-1.7-3.2-.4-1.3-.7-3.1-.6-5.3.1-1.1.2-2 .5-2.8.3-.8.7-1.6 1.2-2.2.5-.6 1.1-1.2 1.8-1.6.7-.4 1.5-.8 2.3-1h.1c.9-.3 1.7-.6 2.5-.8.8-.2 1.7-.3 2.4-.3.1 0 .3.1.3.3v1.5c0 .1 0 .1-.1.2-.1 0-.1.1-.2.1H17c-1.3-.1-2.7.1-3.9.6-1 .4-1.9 1-2.7 1.8s-1.4 1.6-1.8 2.6c-.4 1-.7 2.1-.7 3.2v.5c.1 0 .3.1.3.2v1.6c.1.2.2.5.3.7.1.2.2.5.3.7.4.5.8 1 1.3 1.5s1 .9 1.6 1.2c.5.4 1.1.7 1.7.9.6.2 1.2.4 1.8.5.6.1 1.3.1 1.9.1l1.8-.3c.6-.2 1.1-.4 1.6-.7s1-.7 1.5-1.1c.3-.3.6-.6.8-.9.3-.3.5-.7.7-1 .2-.5.3-1 .4-1.4 0-.4.1-.6.1-.7.1-.7.2-1.3.2-1.9v-1.7c0-.5-.1-1-.3-1.5 0-.1-.1-.2-.1-.3l-.2 2.4c0 .1-.1.2-.2.3-.1.1-.2.1-.3.1-.1 0-.3 0-.3-.2-.1-.1-.1-.2-.1-.4v-.3h-.2l-.1.2c0 .1-.1.1-.2.2l-.2-.2.1.2c-.1 0-.3 0-.4-.2v-.3L23 170c-.1-.1-.1-.2-.1-.3 0-.1.1-.2.2-.3 0-.1 0-.1.1-.2 0-.1.1-.1.1-.1.1-.1.2-.1.3-.1.1 0 .2 0 .2.1l.2.2.5.5.8.8s.6.7 1 1.2c.8 1 1.1 1.3 1.3 1.5.2.2.3.3.4.3 0 0 .1 0 .1.1.1.1.1.1.1.2v.1c0 .1 0 .2-.1.3v.1c0 .1-.1.1-.1.2-.1.1-.2.2-.3.2-.1 0-.2 0-.3-.1l-.1-.1-.1.1c-.1 0-.2.1-.3 0-.1 0-.2-.1-.3-.2 0-.1-.1-.2-.2-.3-.1-.1-.2-.3-.4-.5l-.3-.3c0 .2.1.4.1.6.2.8.3 1.6.3 2.5 0 .7 0 1.4-.1 2-.1.6-.2 1.2-.4 1.8-.2.6-.5 1.1-.8 1.6-.3.5-.7 1-1.2 1.4-.5.5-1 .9-1.6 1.2-.6.3-1.2.6-1.8.8-.6.2-1.3.4-1.9.5-.6.1-1.1.2-1.6.2-.2-.1-.2 0-.3 0zm-2.7-.9c.4.1.8.2 1.2.2.4.1.9.1 1.4.1 0 0 .1-.1.2-.1.6 0 1.1-.1 1.7-.2s1.2-.3 1.8-.5c.6-.2 1.2-.5 1.8-.8.4-.2.8-.5 1.1-.8-.2.1-.4.3-.5.4-.3.2-.7.4-1.1.6-.1.1-.3 0-.3-.1s0-.3.1-.3c.3-.2.5-.3.7-.5.2-.2.4-.3.6-.5.4-.4.8-.7 1.1-1.2.3-.4.6-.8.8-1.3.2-.5.4-.9.6-1.4.2-.5.3-1 .3-1.6 0-.1.1-.3.3-.2.1 0 .1 0 .2.1v-.8c-.1-.9-.2-1.7-.3-2.4 0-.1-.1-.3-.1-.4 0 .1-.1.1-.2.1s-.3 0-.3-.2c-.1-.2-.1-.5-.2-.7-.1-.3-.2-.7-.4-1H24c.2.4.3.8.4 1.1.2.5.2 1.1.3 1.6v.1l.1-.1c.1 0 .2 0 .3.2v.3c.1.5.1 1.1 0 1.7-.1.6-.2 1.2-.3 1.7 0 .1-.2.2-.3.2-.1 0-.1 0-.2-.1v.4c0 .4-.2 1-.4 1.5-.2.4-.5.7-.8 1.1-.3.3-.6.7-.9.9-.5.5-1 .9-1.6 1.2-.6.3-1.1.6-1.8.8-.6.2-1.2.3-1.9.4-.6.1-1.3 0-2-.1s-1.3-.3-1.9-.5c-.6-.3-1.2-.6-1.8-1-.6-.4-1.1-.8-1.6-1.3l-1-1c.1.2.3.4.4.6.3.4.6.7 1 1.1.1.1.1.2 0 .3-.1.1-.2.1-.3.1-.1-.1-.2-.2-.3-.2.2.2.3.3.5.4.3.3.7.6 1.1.8 0 0 .1 0 .1.1v-.2c.1-.1.2-.2.3-.1.1 0 .1.1.2.1l.3.1c.3.2.6.3.8.4.3.1.5.2.8.3.1 0 .2.2.2.3.1.2 0 .3 0 .3zm-2.6-.6c.6.2 1.3.4 1.9.5-.2-.1-.4-.2-.7-.3-.4-.1-.7-.3-1-.5 0 0-.1 0-.1-.1v.2c0 .1-.1.2-.1.2zm-3.5-13.2c-.1.3-.3.6-.4.9-.3.8-.4 1.7-.5 2.7 0 2.1.2 3.8.6 5.1.1.4.3.8.5 1.2l.1-.1h.2c0-.1-.1-.2-.1-.3 0-.1-.1-.2-.1-.2v-.1c0-.1.1-.2.2-.2h.1l-.3-.6c-.1-.3-.2-.5-.3-.8v-1.4c-.1 0-.3-.1-.3-.2v-.7c0 .1-.1.1-.2.1s-.2-.1-.2-.2v-.1c0-1.2.2-2.3.6-3.2.4-1 .9-1.8 1.5-2.5s1.3-1.4 2.1-1.9 1.5-.9 2.3-1.2c.5-.1 1-.1 1.5-.1h1.6s-.1-.1-.1-.2.1-.2.3-.2h.1v-.2c-.7 0-1.4.1-2.1.3-.8.2-1.6.4-2.4.8l-.1.1c-.7.2-1.3.4-1.8.7.1 0 .1 0 .2.1s0 .3-.1.3c-.5.4-1 .8-1.4 1.2-.4.4-.8.9-1 1.3-.1.1-.2.1-.3.1-.2-.4-.2-.5-.2-.5zm17.2 7.1zm-2.2-4zm-.1 0zm0 0zm0 0c.1 0 .1 0 0 0l.2-.8c0-.1.2-.2.3-.2.1 0 .1.1.2.1l.1-1.7v-.2l.1-.7.1-.3c0-.1.1-.2.2-.2s.2 0 .2.1c.1.1.2.2.3.4 0 0 .1.1.1.2v.5c.1 0 .2 0 .2.1.1.1.1.2.2.4 0-.1.1-.1.1-.1.1-.1.2 0 .3.1v.1c.2.3.4.5.6.7.2.2.3.4.5.6 0 .1.1.1.1.2 0 0 0-.1.1-.1.1-.1.3-.1.3 0l.8.8c0-.1.1-.2.1-.2l-.4-.4c-.2-.2-.7-.7-1.3-1.5-.4-.5-.7-.8-1-1.2-.3-.3-.5-.6-.8-.8l-.5-.5-.1-.1v.1c0 .1-.1.2-.1.2l.1.1v.1l-1.2 4.3c.1-.1.2-.1.2-.1zm5.5-.4zm-4.5-4.3z"/></svg>