<svg id="Ebene_1" xmlns="http://www.w3.org/2000/svg" viewBox="0 0 32 128"><style>.st0{fill:#585856;} .st1{fill:#FFFFFF;}</style><path class="st0" d="M16.5 23.2c0 .4-.2.7-.5.9-.1.1-.3.1-.4.1-.2 0-.4-.1-.6-.2l-5.2-4.4H7c-.5 0-1-.4-1-1v-3.9c0-.5.4-1 1-1h2.8L15 9.3c.3-.2.7-.3 1-.1.3.2.5.5.5.9v13.1zm3.7-1.5c-.1 0-.1 0 0 0-.3 0-.6-.1-.7-.3l-.1-.1c-.3-.3-.4-.9-.1-1.3.7-1 1.1-2.1 1.1-3.4 0-1.3-.4-2.5-1.2-3.6-.3-.4-.3-.9.1-1.3l.1-.1c.2-.2.4-.3.7-.3.3 0 .5.1.7.4 1.1 1.4 1.7 3.1 1.7 4.9 0 1.7-.5 3.3-1.5 4.7-.3.2-.6.3-.8.4zm3.9 3c-.2.2-.4.3-.7.3-.3 0-.5-.1-.7-.3l-.1-.1c-.4-.4-.4-.9-.1-1.3 1.5-1.9 2.4-4.2 2.4-6.7s-.9-5-2.6-6.9c-.3-.4-.3-1 0-1.3l.1-.1c.3-.2.6-.3.8-.3.3 0 .5.1.7.3 2 2.3 3.1 5.2 3.1 8.3 0 3-1 5.8-2.9 8.1z"/><path class="st1" d="M16.5 55.2c0 .4-.2.7-.5.9-.1.1-.3.1-.4.1-.2 0-.4-.1-.6-.2l-5.2-4.4H7c-.5 0-1-.4-1-1v-3.9c0-.5.4-1 1-1h2.8l5.2-4.4c.3-.2.7-.3 1-.1.3.2.5.5.5.9v13.1zm3.7-1.5c-.1 0-.1 0 0 0-.3 0-.6-.1-.7-.3l-.1-.1c-.3-.3-.4-.9-.1-1.3.7-1 1.1-2.1 1.1-3.4 0-1.3-.4-2.5-1.2-3.6-.3-.4-.3-.9.1-1.3l.1-.1c.2-.2.4-.3.7-.3.3 0 .5.1.7.4 1.1 1.4 1.7 3.1 1.7 4.9 0 1.7-.5 3.3-1.5 4.7-.3.2-.6.3-.8.4zm3.9 3c-.2.2-.4.3-.7.3-.3 0-.5-.1-.7-.3l-.1-.1c-.4-.4-.4-.9-.1-1.3 1.5-1.9 2.4-4.2 2.4-6.7s-.9-5-2.6-6.9c-.3-.4-.3-1 0-1.3l.1-.1c.2-.2.4-.3.7-.3.3 0 .5.1.7.3 2 2.3 3.1 5.2 3.1 8.3.1 3-.9 5.8-2.8 8.1z"/><path class="st0" d="M16.5 87.2c0 .4-.2.7-.5.9-.1.1-.3.1-.4.1-.2 0-.4-.1-.6-.2l-5.2-4.4H7c-.5 0-1-.4-1-1v-3.9c0-.5.4-1 1-1h2.8l5.2-4.4c.3-.2.7-.3 1-.1.3.2.5.5.5.9v13.1z"/><path class="st1" d="M16.5 119.2c0 .4-.2.7-.5.9-.1.1-.3.1-.4.1-.2 0-.4-.1-.6-.2l-5.2-4.4H7c-.5 0-1-.4-1-1v-3.9c0-.5.4-1 1-1h2.8l5.2-4.4c.3-.2.7-.3 1-.1.3.2.5.5.5.9v13.1z"/></svg>