<svg id="Ebene_1" data-name="Ebene 1" xmlns="http://www.w3.org/2000/svg" viewBox="0 0 16 113"><defs><style>.cls-1{fill:#fff;}.cls-2{fill:#585856;}</style></defs><title>spr-play</title><path class="cls-1" d="M24.74,48.16,9.64,40.08a.44.44,0,0,0-.45,0,.42.42,0,0,0-.19.39V56.56a.42.42,0,0,0,.19.39.44.44,0,0,0,.45,0l15.1-8.08q.26-.14.26-.34T24.74,48.16Z" transform="translate(-9 -8)"/><path class="cls-2" d="M24.74,16.16,9.64,8.08a.44.44,0,0,0-.45,0A.42.42,0,0,0,9,8.44V24.56a.42.42,0,0,0,.19.39.44.44,0,0,0,.45,0l15.1-8.08q.26-.14.26-.34T24.74,16.16Z" transform="translate(-9 -8)"/><path class="cls-2" d="M9,89h5.62V72H9Z" transform="translate(-9 -8)"/><path class="cls-2" d="M17.38,72V89H23V72Z" transform="translate(-9 -8)"/><path class="cls-1" d="M9,121h5.62V104H9Z" transform="translate(-9 -8)"/><path class="cls-1" d="M17.38,104v17H23V104Z" transform="translate(-9 -8)"/></svg>