<svg id="Ebene_1" xmlns="http://www.w3.org/2000/svg" viewBox="0 0 32 128"><style>.st0{fill:#FFD500;}</style><path class="st0" d="M25.2 80.5c.3.8.5 1.6.6 2.3.1.7 0 1.4-.2 2-.3 1.1-.9 2-1.8 2.7-.9.7-2.1 1.2-3.6 1.5-.6.1-1 .1-1.3-.2-.3-.2-.5-.4-.5-.5-.1-.2-.2-.4-.2-.5v-.6L17 88.6c-.1.3-.2.5-.3.6-.1.2-.2.3-.3.5-.2.2-.5.4-.8.5-.3.1-.6.2-.9.2-.3 0-.5-.1-.7-.2s-.4-.3-.5-.5c-.4.3-.8.4-1.3.4s-1-.2-1.6-.5c-.7-.4-1.3-.8-1.9-1.4-.5-.5-1-1.2-1.3-1.9-.4-.7-.6-1.5-.8-2.3-.2-.8-.2-1.7-.2-2.7 0-1 .2-2 .5-2.9.3-1 .6-1.9 1.1-2.8.5-.9 1.1-1.7 1.7-2.4.6-.7 1.3-1.1 2.1-1.4l.4.9c.4-.3.8-.5 1.2-.6s.9-.3 1.5-.4v-.5-.2c0-.3 0-.6.2-.9.2-.3.4-.5.7-.6.3-.1.6-.2.9-.1.3 0 .6.2.8.4l.6.6 1.4 1.4c.8.1 1.6.3 2.2.5s1.3.5 1.8.8c.5.3 1 .7 1.3 1.1.4.4.7.9.9 1.4.3.8.5 1.6.4 2.4-.4.9-.6 1.7-.9 2.5zm-16 1.1c0 .6 0 1.4.2 2.3.2.9.6 1.7 1.3 2.4 0-.2-.1-.5-.2-.7-.1-.2-.1-.5-.2-.7-.2-.7-.4-1.5-.6-2.4-.2-.9-.3-1.7-.4-2.6-.1.3-.1.5-.1.8.1.4 0 .6 0 .9zm5 5.5c.1-.2.1-.5.2-.9s.1-.9.2-1.5.1-1.3.1-2.2c0-.9.1-1.9.1-3h-.1l-1.2-2.8c.2-.1.4-.2.6-.2.2-.1.4-.1.6-.2v-.7-.7c-.3.1-.6.2-.8.3-.3.1-.5.3-.7.5-.4.4-.6 1-.7 1.6-.1.7-.1 1.4 0 2.2.1.8.2 1.6.4 2.4.2.8.4 1.6.5 2.2.1.5.2 1 .4 1.5.1.5.2.9.2 1.3V87.2l.2-.1zm7.6-6.4c.1 0 .1 0 0 0 0-.1 0-.1.1-.1-.3-.6-.6-1.1-1.1-1.8-.4-.6-.9-1.3-1.4-1.9-.3-.3-.5-.7-.8-1s-.6-.6-.8-.9v1.5c.1 0 .1.1.2.1s.2.1.2.1c1 .5 1.7 1.1 2.3 1.9.7.8 1.1 1.5 1.3 2.1zm-4 2.4l1.2-1.3c-.1-.3-.3-.6-.5-.8-.2-.3-.4-.6-.6-.8v1.6c-.1.4-.1.8-.1 1.3zM25.2 16.5c.3.8.5 1.6.6 2.3.1.7 0 1.4-.2 2-.3 1.1-.9 2-1.8 2.7-.9.7-2.1 1.2-3.6 1.5-.6.1-1 .1-1.3-.2-.3-.2-.5-.4-.5-.5-.1-.2-.2-.4-.2-.5v-.6L17 24.6c-.1.3-.2.5-.3.6-.1.2-.2.3-.3.5-.2.2-.5.4-.8.5-.3.1-.6.2-.9.2-.3 0-.5-.1-.7-.2s-.4-.3-.5-.5c-.4.3-.8.4-1.3.4s-1-.2-1.6-.5c-.7-.4-1.3-.8-1.9-1.4-.5-.5-1-1.2-1.3-1.9-.4-.7-.6-1.5-.8-2.3-.2-.8-.2-1.7-.2-2.7 0-1 .2-2 .5-2.9.3-1 .6-1.9 1.1-2.8.5-.9 1.1-1.7 1.7-2.4.3-.5 1-.9 1.8-1.2l.4.9c.4-.3.8-.5 1.2-.6s.9-.3 1.5-.4v-.5-.2c0-.3 0-.6.2-.9.2-.3.4-.5.7-.6.3-.1.6-.2.9-.1.3 0 .6.2.8.4l.6.6L19.2 8c.8.1 1.6.3 2.2.5s1.3.5 1.8.8c.5.3 1 .7 1.3 1.1.4.4.7.9.9 1.4.3.8.5 1.6.4 2.4-.1.7-.3 1.5-.6 2.3zm-16 1.1c0 .6 0 1.4.2 2.3.2.9.6 1.7 1.3 2.4 0-.2-.1-.5-.2-.7-.1-.2-.1-.5-.2-.7-.2-.7-.4-1.5-.6-2.4-.2-.9-.3-1.7-.4-2.6-.1.3-.1.5-.1.8.1.4 0 .6 0 .9zm5 5.5c.1-.2.1-.5.2-.9s.1-.9.2-1.5.1-1.3.1-2.2c0-.9.1-1.9.1-3h-.1l-1.2-2.8c.2-.1.4-.2.6-.2.2-.1.4-.1.6-.2v-.7-.7c-.3.1-.6.2-.8.3-.3.1-.5.3-.7.5-.4.4-.6 1-.7 1.6-.1.7-.1 1.4 0 2.2.1.8.2 1.6.4 2.4.2.8.4 1.6.5 2.2.1.5.2 1 .4 1.5.1.5.2.9.2 1.3V23.2l.2-.1zm7.6-6.4c.1 0 .1 0 0 0 0-.1 0-.1.1-.1-.3-.6-.6-1.1-1.1-1.8-.4-.6-.9-1.3-1.4-1.9-.3-.3-.5-.7-.8-1s-.6-.6-.8-.9v1.5c.1 0 .1.1.2.1s.2.1.2.1c1 .5 1.7 1.1 2.3 1.9.7.8 1.1 1.5 1.3 2.1zm-4 2.4l1.2-1.3c-.1-.3-.3-.6-.5-.8-.2-.3-.4-.6-.6-.8v1.6c-.1.4-.1.8-.1 1.3z"/><path d="M19.2 5.5c.9.1 1.7.3 2.7.7.9.3 1.8.9 2.5 1.8.8.9 1.4 2 1.9 3.5s.7 3.5.7 5.9c-.1 1.2-.3 2.2-.6 3.1-.3.9-.7 1.7-1.3 2.4-.5.7-1.2 1.3-1.9 1.8-.8.5-1.6.9-2.6 1.1h-.1c-1 .4-1.9.7-2.8.9s-1.7.3-2.5.3-1.5-.1-2.2-.3c-.7-.2-1.4-.4-2-.8-.2-.1-.4-.2-.6-.4-.2-.1-.4-.3-.6-.4-.2-.1-.4-.2-.6-.4-.2-.1-.4-.3-.6-.4-.6-.5-1.1-1-1.5-1.6-.4-.6-.8-1.3-1.1-2-.3-.7-.5-1.5-.7-2.4-.2-.9-.3-1.8-.4-2.8 0-.8 0-1.5.1-2.2.1-.7.3-1.4.5-2 .2-.6.5-1.2.9-1.8.4-.5.8-1 1.3-1.5s1.1-1 1.8-1.4c.7-.4 1.4-.7 2.1-.9l2.1-.6c.7-.1 1.3-.2 1.9-.2V5c.6 0 1.2 0 1.8.1.7.1 1.3.2 1.8.4zM8.1 8.6c-.8.8-1.4 1.6-1.9 2.6s-.7 2.1-.7 3.3c.1-.6.2-1.2.4-1.8.2-.6.4-1.2.7-1.7.3-.5.6-1 1-1.5.3-.5.7-.9 1.2-1.3.2-.2.5-.4.7-.6.3-.2.5-.4.8-.6-.4.2-.8.4-1.1.7-.4.3-.8.5-1.1.9zm-2.2 10c.1.4.2.8.4 1.2.1.4.3.8.4 1.1-.2-.4-.3-.8-.5-1.2-.1-.4-.2-.8-.3-1.1zm.3-3.1c0-.7.1-1.3.3-2v-.1c-.2.6-.3 1.3-.4 1.9-.1.6 0 1.3 0 1.9v.2c0-.7 0-1.3.1-1.9zm.7-2c-.1.7-.2 1.5-.3 2.1v2l.3 1.8c.2.6.4 1.1.6 1.6.4.6.9 1.2 1.5 1.7s1.2 1 1.9 1.3c.7.4 1.4.7 2.2.9.8.2 1.6.3 2.5.3 1.4 0 2.7-.3 3.9-.8 1.2-.5 2.2-1.2 3.1-2.1.9-.9 1.6-1.9 2.1-3.1.5-1.2.8-2.4.8-3.7v-.4-.4h-.3v-.6-.6-.3-.3l-.3-.9c-.1-.3-.3-.6-.4-.8-.4-.6-.9-1.2-1.5-1.7s-1.2-1-1.8-1.4c-.6-.4-1.3-.8-2-1.1s-1.4-.5-2.1-.6c-.8-.1-1.5-.1-2.2-.1-.7.1-1.4.2-2.1.4-.7.2-1.3.5-1.9.8-.6.4-1.2.8-1.7 1.3l-1 1c-.2.4-.5.8-.7 1.2-.3.7-.4 1.2-.5 1.7-.1.4-.1.7-.1.8zm3.2 11.3c.9.5 1.8.9 2.7 1.1.9.2 1.7.3 2.5.3-.6 0-1.1-.1-1.8-.3-.6-.1-1.2-.4-1.9-.6-.6-.3-1.2-.6-1.8-1-.6-.4-1.1-.9-1.6-1.5.3.4.5.7.9 1.1.3.3.7.6 1 .9zm11.6-.6c.8-.6 1.6-1.3 2.3-2.1.7-.8 1.2-1.7 1.6-2.8.4-1.1.6-2.2.6-3.5v-.1-.1c0 1.4-.3 2.7-.8 3.9-.5 1.2-1.3 2.3-2.2 3.2-.9.9-2 1.6-3.3 2.1s-2.6.8-4 .8c-.3 0-.7 0-1-.1-.3 0-.6-.1-1-.1.3.1.6.1.9.2.3 0 .6.1.8.1h1.8c.6 0 1.1-.1 1.7-.1.9-.3 1.7-.8 2.6-1.4zM19 5.9c-.1 0-.1 0 0 0l.9.3c.3.1.6.3.9.4.1 0 .2.1.3.1.1 0 .2.1.3.1-.4-.2-.7-.4-1.1-.5-.4-.1-.8-.2-1.3-.4zm6.2 4.1c-.4-.9-.9-1.6-1.5-2.1s-1.2-.9-1.8-1.2c.5.3.9.6 1.3.9.4.3.8.7 1.1 1.1.2.2.4.4.6.7l.3.6zm-.9 13.1c.5-.5.9-1.1 1.2-1.7-.3.5-.8 1.1-1.2 1.6-.5.5-1 1-1.6 1.4.5-.4 1.1-.8 1.6-1.3zm.8-12.1c0-.1 0-.1-.1-.2 0-.1-.1-.2-.1-.3-.2-.3-.3-.6-.5-.8-.2-.3-.4-.5-.6-.8-.1-.1-.2-.2-.4-.3-.1-.1-.3-.2-.4-.3.4.4.8.8 1.1 1.2.4.5.7.9 1 1.5-.1-.1 0 0 0 0z"/><path class="st0" d="M19.2 37.5c.9.1 1.7.3 2.7.7.9.3 1.8.9 2.5 1.8.8.9 1.4 2 1.9 3.5s.7 3.5.7 5.9c-.1 1.2-.3 2.2-.6 3.1-.3.9-.7 1.7-1.3 2.4-.5.7-1.2 1.3-1.9 1.8-.8.5-1.6.9-2.6 1.1h-.1c-1 .4-1.9.7-2.8.9s-1.7.3-2.5.3-1.5-.1-2.2-.3c-.7-.2-1.4-.4-2-.8-.2-.1-.4-.2-.6-.4-.2-.1-.4-.3-.6-.4-.2-.1-.4-.2-.6-.4-.2-.1-.4-.3-.6-.4-.6-.5-1.1-1-1.5-1.6-.4-.6-.8-1.3-1.1-2-.3-.7-.5-1.5-.7-2.4-.2-.9-.3-1.8-.4-2.8 0-.8 0-1.5.1-2.2.1-.7.3-1.4.5-2 .2-.6.5-1.2.9-1.8.4-.5.8-1 1.3-1.5s1.1-1 1.8-1.4c.7-.4 1.4-.7 2.1-.9l2.1-.6c.7-.1 1.3-.2 1.9-.2v.1c.6 0 1.2 0 1.8.1.7.1 1.3.2 1.8.4zM8.1 40.6c-.8.8-1.4 1.6-1.9 2.6-.4 1-.7 2.1-.7 3.3.1-.6.2-1.2.4-1.8.2-.6.4-1.2.7-1.7.3-.5.6-1 1-1.5s.8-.9 1.3-1.3c.1-.2.4-.4.6-.6.3-.2.5-.4.8-.6-.4.2-.8.4-1.2.7-.3.3-.7.5-1 .9zm-2.2 10c.1.4.2.8.4 1.2.1.4.3.8.4 1.1-.2-.4-.3-.8-.5-1.2-.1-.4-.2-.8-.3-1.1zm.3-3.1c0-.7.1-1.3.3-2v-.1c-.2.6-.3 1.3-.4 1.9-.1.6 0 1.3 0 1.9v.2c0-.7 0-1.3.1-1.9zm.7-2c-.1.7-.2 1.5-.3 2.1v2l.3 1.8c.2.6.4 1.1.6 1.6.4.6.9 1.2 1.5 1.7s1.2 1 1.9 1.3 1.4.7 2.2.9c.8.2 1.6.3 2.5.3 1.4 0 2.7-.3 3.9-.8 1.2-.5 2.2-1.2 3.1-2.1.9-.9 1.6-1.9 2.1-3.1.5-1.2.8-2.4.8-3.7v-.4-.4h-.3v-.6-.6-.3-.3l-.3-.9c-.1-.3-.3-.6-.4-.8-.4-.6-.9-1.2-1.5-1.7s-1.2-1-1.8-1.4c-.6-.4-1.3-.8-2-1.1s-1.4-.5-2.1-.6c-.8-.1-1.5-.1-2.2-.1-.7.1-1.4.2-2.1.4-.7.2-1.3.5-1.9.8-.6.4-1.2.8-1.7 1.3l-1 1c-.2.4-.5.8-.7 1.2-.3.7-.4 1.2-.5 1.7-.1.4-.1.7-.1.8zm3.2 11.3c.9.5 1.8.9 2.7 1.1.9.2 1.7.3 2.5.3-.6 0-1.1-.1-1.8-.3-.6-.1-1.2-.4-1.9-.6-.6-.3-1.2-.6-1.8-1-.6-.4-1.1-.9-1.6-1.5.3.4.5.7.9 1.1.3.3.7.6 1 .9zm11.6-.6c.8-.6 1.6-1.3 2.3-2.1.7-.8 1.2-1.7 1.6-2.8.4-1.1.6-2.2.6-3.5v-.1-.1c0 1.4-.3 2.7-.8 3.9-.5 1.2-1.3 2.3-2.2 3.2-.9.9-2 1.6-3.3 2.1-1.3.5-2.6.8-4 .8-.3 0-.7 0-1-.1-.3 0-.6-.1-1-.1.3.1.6.1.9.2.3 0 .6.1.8.1h1.8c.6 0 1.1-.1 1.7-.1.9-.3 1.7-.8 2.6-1.4zM19 37.9c-.1 0-.1 0 0 0l.9.3c.3.1.6.3.9.4.1 0 .2.1.3.1.1 0 .2.1.3.1-.4-.2-.7-.4-1.1-.5-.4-.1-.8-.2-1.3-.4zm6.2 4.1c-.4-.9-.9-1.6-1.5-2.1s-1.2-.9-1.8-1.2c.5.3.9.6 1.3.9.4.3.8.7 1.1 1.1.2.2.4.4.6.7l.3.6zm-.9 13.1c.5-.5.9-1.1 1.2-1.7-.3.5-.8 1.1-1.2 1.6-.5.5-1 1-1.6 1.4.5-.4 1.1-.8 1.6-1.3zm.8-12.1c0-.1 0-.1-.1-.2 0-.1-.1-.2-.1-.3-.2-.3-.3-.6-.5-.8-.2-.3-.4-.5-.6-.8-.1-.1-.2-.2-.4-.3-.1-.1-.3-.2-.4-.3.4.4.8.8 1.1 1.2.4.5.7.9 1 1.5-.1-.1 0 0 0 0z"/><path class="st0" d="M16.5 47.5v.2c0 .1 0 .1-.1.1l-.2.2c-.2.1-.4.3-.7.5-.3.2-.7.5-1.1.8-.5.3-1 .6-1.6 1-1.1.6-1.7 1-2 1.3-.3.2-.5.4-.5.4l-.1.1h-.1c-.1 0-.1 0-.1-.1v-.2h-.1l-.1-.1v-.2c0-.1 0-.1.1-.2l1.2-.9c-.2.1-.3.2-.4.2-.1.1-.2.1-.3.1 0 0-.1 0-.1-.1l-.1-.1v-.2c0-.1.1-.1.1-.1.1 0 .2-.1.4-.2s.4-.2.7-.4c.3-.1.5-.3.8-.5.3-.2.6-.3.9-.5.2-.1.4-.2.5-.3.2-.1.4-.2.5-.3.2-.1.4-.2.5-.3.2-.1.3-.2.5-.3l-.3-.2-4.8-1.6c-.1 0-.1-.1-.1-.2v-.2c0-.1 0-.1.1-.2h.2l1.8.6-1-.4s-.1 0-.1-.1v-.2-.1-.1-.1s0-.2.1-.3l-.4-.3 5 3H15.9c.1 0 .1.1.1.1v.2l.1.1s.1 0 .1.1c.3-.1.3-.1.3 0z"/><path class="st0" d="M22.5 47.5v.2c0 .1 0 .1-.1.1l-.2.2c-.2.1-.4.3-.7.5-.3.2-.7.5-1.1.8-.5.3-1 .6-1.6 1-1.1.6-1.7 1-2 1.3-.3.2-.5.4-.5.4l-.1.1h-.1c-.1 0-.1 0-.1-.1v-.2h-.1l-.1-.1v-.2c0-.1 0-.1.1-.2l1.2-.9c-.2.1-.3.2-.4.2-.1.1-.2.1-.3.1 0 0-.1 0-.1-.1l-.1-.1v-.2c0-.1.1-.1.1-.1.1 0 .2-.1.4-.2s.4-.2.7-.4c.3-.1.5-.3.8-.5.3-.2.6-.3.9-.5.2-.1.4-.2.5-.3.2-.1.4-.2.5-.3.2-.1.4-.2.5-.3.2-.1.3-.2.5-.3l-.3-.2-4.7-1.7c-.1 0-.1-.1-.1-.2v-.2c0-.1 0-.1.1-.2h.2l1.8.6-1.1-.3s-.1 0-.1-.1v-.2-.1-.1-.1s0-.2.1-.3l-.4-.3 5 3H21.9c.1 0 .1.1.1.1v.2l.1.1s.1 0 .1.1c.3-.1.3-.1.3 0z"/><path d="M16.5 15.5v.2c0 .1 0 .1-.1.1l-.2.2c-.2.1-.4.3-.7.5-.3.2-.7.5-1.1.8-.5.3-1 .6-1.6 1-1.1.6-1.7 1-2 1.3-.3.2-.5.4-.5.4l-.1.1h-.1c-.1 0-.1 0-.1-.1v-.2h-.1l-.1-.1v-.2c0-.1 0-.1.1-.2l1.2-.9c-.2.1-.3.2-.4.2-.1.1-.2.1-.3.1 0 0-.1 0-.1-.1l-.1-.1v-.2c0-.1.1-.1.1-.1.1 0 .2-.1.4-.2s.4-.2.7-.4c.3-.1.5-.3.8-.5.3-.2.6-.3.9-.5.2-.1.4-.2.5-.3.2-.1.4-.2.5-.3.2-.1.4-.2.5-.3.2-.1.3-.2.5-.3l-.3-.2-4.8-1.6c-.1 0-.1-.1-.1-.2v-.2c0-.1 0-.1.1-.2h.2l1.8.6-1-.4s-.1 0-.1-.1v-.2-.1-.1-.1s0-.2.1-.3l-.4-.3 5 3H15.9c.1 0 .1.1.1.1v.2l.1.1s.1 0 .1.1c.3-.1.3-.1.3 0z"/><path d="M22.5 15.5v.2c0 .1 0 .1-.1.1l-.2.2c-.2.1-.4.3-.7.5-.3.2-.7.5-1.1.8-.5.3-1 .6-1.6 1-1.1.6-1.7 1-2 1.3-.3.2-.5.4-.5.4l-.1.1h-.1c-.1 0-.1 0-.1-.1v-.2h-.1l-.1-.1v-.2c0-.1 0-.1.1-.2l1.2-.9c-.2.1-.3.2-.4.2-.1.1-.2.1-.3.1 0 0-.1 0-.1-.1l-.1-.1v-.2c0-.1.1-.1.1-.1.1 0 .2-.1.4-.2s.4-.2.7-.4c.3-.1.5-.3.8-.5.3-.2.6-.3.9-.5.2-.1.4-.2.5-.3.2-.1.4-.2.5-.3.2-.1.4-.2.5-.3.2-.1.3-.2.5-.3l-.3-.2-4.7-1.7c-.1 0-.1-.1-.1-.2v-.2c0-.1 0-.1.1-.2h.2l1.8.6-1.1-.3s-.1 0-.1-.1v-.2-.1-.1-.1s0-.2.1-.3l-.4-.3 5 3H21.9c.1 0 .1.1.1.1v.2l.1.1s.1 0 .1.1c.3-.1.3-.1.3 0zM12.8 90.5c-.9-.1-1.7-.3-2.7-.7-.9-.3-1.8-.9-2.5-1.8-.8-.9-1.4-2-1.9-3.5-.5-1.4-.7-3.4-.7-5.8.1-1.2.3-2.2.6-3.1.3-.9.7-1.7 1.3-2.4s1.2-1.3 1.9-1.8c.8-.5 1.6-.9 2.6-1.1h.1c1-.4 1.9-.7 2.8-.9.9-.2 1.7-.3 2.6-.3.8 0 1.5.1 2.2.3.7.2 1.4.4 2 .8.2.1.4.2.6.4.2.1.4.3.6.4.2.1.4.2.6.4.2.1.4.3.6.4.6.5 1.1 1 1.5 1.6.4.6.8 1.3 1.1 2 .3.7.5 1.5.7 2.4.2.9.3 1.8.4 2.8 0 .8 0 1.5-.1 2.2-.1.7-.3 1.4-.5 2-.2.6-.5 1.2-.9 1.8-.4.5-.8 1-1.3 1.5s-1.1 1-1.8 1.4c-.7.4-1.4.7-2.1.9l-2.1.6c-.7.1-1.3.2-1.9.2V91c-.6 0-1.2 0-1.8-.1-.8-.1-1.4-.2-1.9-.4zm11.1-3.1c.8-.8 1.4-1.6 1.9-2.6.4-1 .7-2.1.7-3.3-.1.6-.2 1.2-.4 1.8-.2.6-.4 1.2-.7 1.7-.3.5-.6 1-1 1.5s-.8.9-1.3 1.3c-.2.2-.4.4-.7.6-.3.2-.5.4-.8.6.4-.2.8-.4 1.2-.7.4-.3.8-.5 1.1-.9zm2.2-10l-.3-1.2c-.1-.4-.3-.8-.4-1.1.2.4.3.8.5 1.2 0 .4.1.8.2 1.1zm-.3 3.1c0 .7-.1 1.3-.3 2v.1c.2-.6.3-1.3.4-1.9.1-.6 0-1.3 0-1.9v-.1-.1c0 .7 0 1.3-.1 1.9zm-.7 2c.1-.7.2-1.5.3-2.1v-2l-.3-1.8c-.2-.6-.4-1.1-.6-1.6-.4-.6-.9-1.2-1.5-1.7s-1.2-1-1.9-1.3c-.7-.4-1.4-.7-2.2-.9-.8-.2-1.6-.3-2.5-.3-1.4 0-2.7.3-3.9.8-1.2.5-2.2 1.2-3.1 2.1-.9.9-1.6 1.9-2.1 3.1-.5 1.2-.8 2.4-.8 3.7v.8h.3v1.8c0 .3.1.6.2.9.1.3.3.6.4.8.4.6.9 1.2 1.5 1.7s1.2 1 1.8 1.4c.6.4 1.3.8 2 1.1.7.3 1.4.5 2.1.6.8.1 1.5.1 2.2.1.7-.1 1.4-.2 2.1-.4.7-.2 1.3-.5 1.9-.8.6-.4 1.2-.8 1.7-1.3l1-1c.3-.4.6-.8.8-1.1.3-.7.4-1.2.5-1.7 0-.5.1-.8.1-.9zm-3.3-11.3c-.9-.5-1.8-.9-2.7-1.1s-1.7-.3-2.5-.3c.6 0 1.1.1 1.8.3.6.1 1.2.4 1.9.6.6.3 1.2.6 1.8 1 .6.4 1.1.9 1.6 1.5-.3-.4-.5-.7-.9-1.1-.3-.3-.6-.6-1-.9zm-11.5.6c-.8.5-1.6 1.2-2.3 2s-1.2 1.7-1.6 2.8c-.4 1.1-.6 2.2-.6 3.5v.2c0-1.4.3-2.7.8-3.9.5-1.2 1.3-2.3 2.2-3.2.9-.9 2-1.6 3.3-2.1 1.3-.5 2.6-.8 4-.8.3 0 .7 0 1 .1.3 0 .6.1 1 .1-.3-.1-.6-.1-.9-.2-.3 0-.6-.1-.8-.1h-1.8c-.6 0-1.1.1-1.7.1-.9.4-1.7.9-2.6 1.5zM13 90.1s.1 0 0 0l-.9-.3c-.3-.1-.6-.3-.9-.4-.1 0-.2-.1-.3-.1-.1 0-.2-.1-.3-.1.4.2.7.4 1.1.5.4.1.8.2 1.3.4zM6.8 86c.4.9.9 1.6 1.5 2.1s1.2.9 1.8 1.2c-.5-.3-.9-.6-1.3-.9-.4-.3-.8-.7-1.1-1.1-.2-.2-.4-.4-.6-.7l-.3-.6zm.9-13.1c-.5.5-.9 1.1-1.2 1.7.4-.6.8-1.1 1.3-1.6s1-1 1.6-1.4c-.7.4-1.2.8-1.7 1.3zM6.9 85c0 .1 0 .1.1.2 0 .1.1.2.1.3.2.3.3.6.5.8.2.3.4.5.6.8.1.1.2.2.4.3.1.1.3.2.4.3-.4-.4-.8-.8-1.1-1.2-.4-.5-.7-.9-1-1.5 0 .1 0 0 0 0z"/><path d="M15.5 80.5v-.2c0-.1 0-.1.1-.1l.2-.2c.2-.1.4-.3.7-.5.3-.2.7-.5 1.1-.8.5-.3 1-.6 1.6-1 1.1-.6 1.7-1 2-1.3.3-.2.5-.4.5-.4l.1-.1h.1c.1 0 .1 0 .1.1v.2h.1l.1.1v.2c0 .1 0 .1-.1.2l-1.2.9c.2-.1.3-.2.4-.2.1-.1.2-.1.3-.1 0 0 .1 0 .1.1l.1.1v.2c0 .1-.1.1-.1.1-.1 0-.2.1-.4.2s-.4.2-.7.4c-.3.1-.5.3-.8.5-.3.2-.6.3-.9.5-.2.1-.4.2-.5.3s-.2.2-.4.3c-.2.1-.4.2-.5.3-.2.1-.3.2-.5.3l.3.2 4.7 1.7c.1 0 .1.1.1.2v.2c0 .1 0 .1-.1.2h-.2l-1.8-.6.9.4s.1 0 .1.1v.5s0 .2-.1.3l.4.3-5-3H16c-.1 0-.1-.1-.1-.1v-.1-.1l-.1-.1s-.1 0-.1-.1c-.2 0-.2 0-.2-.1z"/><path d="M9.5 80.5v-.2c0-.1 0-.1.1-.1l.2-.2c.2-.1.4-.3.7-.5.3-.2.7-.5 1.1-.8.5-.3 1-.6 1.6-1 1.1-.6 1.7-1 2-1.3.3-.2.5-.4.5-.4l.1-.1h.1c.1 0 .1 0 .1.1v.2h.1l.1.1v.2c0 .1 0 .1-.1.2l-1.2.9c.2-.1.3-.2.4-.2.1-.1.2-.1.3-.1 0 0 .1 0 .1.1l.1.1v.2c0 .1-.1.1-.1.1-.1 0-.2.1-.4.2s-.4.2-.7.4c-.3.1-.5.3-.8.5-.3.2-.6.3-.9.5-.2.1-.4.2-.5.3-.2.1-.4.2-.5.3-.2.1-.4.2-.5.3-.2.1-.3.2-.5.3l.3.2 4.7 1.7c.1 0 .1.1.1.2v.2c0 .1 0 .1-.1.2h-.2l-1.8-.6.9.4s.1 0 .1.1v.5s0 .2-.1.3l.4.3-5-3H9.9c-.1 0-.1-.1-.1-.1v-.1-.1l-.1-.1s-.1 0-.1-.1c-.1 0-.1 0-.1-.1z"/><g><path class="st0" d="M12.8 122.5c-.9-.1-1.7-.3-2.7-.7-.9-.3-1.8-.9-2.5-1.8-.8-.9-1.4-2-1.9-3.5S5 113 5 110.6c.1-1.2.3-2.2.6-3.1.3-.9.7-1.7 1.3-2.4s1.2-1.3 1.9-1.8c.8-.5 1.6-.9 2.6-1.1h.1c1-.4 1.9-.7 2.8-.9.9-.2 1.7-.3 2.6-.3.8 0 1.5.1 2.2.3.7.2 1.4.4 2 .8.2.1.4.2.6.4.2.1.4.3.6.4.2.1.4.2.6.4.2.1.4.3.6.4.6.5 1.1 1 1.5 1.6.4.6.8 1.3 1.1 2 .3.7.5 1.5.7 2.4.2.9.3 1.8.4 2.8 0 .8 0 1.5-.1 2.2-.1.7-.3 1.4-.5 2-.2.6-.5 1.2-.9 1.8-.4.5-.8 1-1.3 1.5s-1.1 1-1.8 1.4c-.7.4-1.4.7-2.1.9l-2.1.6c-.7.1-1.3.2-1.9.2v.1c-.6 0-1.2 0-1.8-.1-.8-.3-1.4-.4-1.9-.6zm11.1-3.1c.8-.8 1.4-1.6 1.9-2.6.4-1 .7-2.1.7-3.3-.1.6-.2 1.2-.4 1.8-.2.6-.4 1.2-.7 1.7-.3.5-.6 1-1 1.5s-.8.9-1.3 1.3c-.2.2-.4.4-.7.6-.3.2-.5.4-.8.6.4-.2.8-.4 1.2-.7.4-.3.8-.5 1.1-.9zm2.2-10l-.3-1.2c-.1-.4-.3-.8-.4-1.1.2.4.3.8.5 1.2 0 .4.1.8.2 1.1zm-.3 3.1c0 .7-.1 1.3-.3 2v.1c.2-.6.3-1.3.4-1.9.1-.6 0-1.3 0-1.9v-.1-.1c0 .7 0 1.3-.1 1.9zm-.7 2c.1-.7.2-1.5.3-2.1v-2l-.3-1.8c-.2-.6-.4-1.1-.6-1.6-.4-.6-.9-1.2-1.5-1.7s-1.2-1-1.9-1.3c-.7-.4-1.4-.7-2.2-.9-.8-.2-1.6-.3-2.5-.3-1.4 0-2.7.3-3.9.8-1.2.5-2.2 1.2-3.1 2.1-.9.9-1.6 1.9-2.1 3.1-.5 1.2-.8 2.4-.8 3.7v.8h.3v1.8l.3.9c.1.3.3.6.4.8.4.6.9 1.2 1.5 1.7s1.2 1 1.8 1.4c.6.4 1.3.8 2 1.1.7.3 1.4.5 2.1.6.8.1 1.5.1 2.2.1.7-.1 1.4-.2 2.1-.4.7-.2 1.3-.5 1.9-.8.6-.4 1.2-.8 1.7-1.3l1-1c.3-.4.6-.8.8-1.1.3-.7.4-1.2.5-1.7-.1-.5 0-.8 0-.9zm-3.3-11.3c-.9-.5-1.8-.9-2.7-1.1s-1.7-.3-2.5-.3c.6 0 1.1.1 1.8.3.6.1 1.2.4 1.9.6.6.3 1.2.6 1.8 1 .6.4 1.1.9 1.6 1.5-.3-.4-.5-.7-.9-1.1-.3-.3-.6-.6-1-.9zm-11.5.6c-.8.6-1.6 1.3-2.3 2.1s-1.2 1.7-1.6 2.8c-.4 1.1-.6 2.2-.6 3.5v.2c0-1.4.3-2.7.8-3.9.5-1.2 1.3-2.3 2.2-3.2.9-.9 2-1.6 3.3-2.1 1.3-.5 2.6-.8 4-.8.3 0 .7 0 1 .1.3 0 .6.1 1 .1-.3-.1-.6-.1-.9-.2-.3 0-.6-.1-.8-.1h-1.8c-.6 0-1.1.1-1.7.1-.9.3-1.7.8-2.6 1.4zm2.7 18.3s.1 0 0 0l-.9-.3c-.3-.1-.6-.3-.9-.4-.1 0-.2-.1-.3-.1-.1 0-.2-.1-.3-.1.4.2.7.4 1.1.5.4.1.8.2 1.3.4zM6.8 118c.4.9.9 1.6 1.5 2.1s1.2.9 1.8 1.2c-.5-.3-.9-.6-1.3-.9-.4-.3-.8-.7-1.1-1.1-.2-.2-.4-.4-.6-.7l-.3-.6zm.9-13.1c-.5.5-.9 1.1-1.2 1.7.3-.5.8-1.1 1.2-1.6.5-.5 1-1 1.6-1.4-.6.4-1.1.8-1.6 1.3zM6.9 117c0 .1 0 .1.1.2 0 .1.1.2.1.3.2.3.3.6.5.8.2.3.4.5.6.8.1.1.2.2.4.3.1.1.3.2.4.3-.4-.4-.8-.8-1.1-1.2-.4-.5-.7-.9-1-1.5 0 .1 0 0 0 0z"/></g><g><path class="st0" d="M15.5 112.5v-.2c0-.1 0-.1.1-.1l.2-.2c.2-.1.4-.3.7-.5.3-.2.7-.5 1.1-.8.5-.3 1-.6 1.6-1 1.1-.6 1.7-1 2-1.3.3-.2.5-.4.5-.4l.1-.1h.1c.1 0 .1 0 .1.1v.2h.1l.1.1v.2c0 .1 0 .1-.1.2l-1.2.9c.2-.1.3-.2.4-.2.1-.1.2-.1.3-.1 0 0 .1 0 .1.1l.1.1v.2c0 .1-.1.1-.1.1-.1 0-.2.1-.4.2s-.4.2-.7.4c-.3.1-.5.3-.8.5-.3.2-.6.3-.9.5-.2.1-.4.2-.5.3s-.4.2-.5.3c-.2.1-.4.2-.5.3-.2.1-.3.2-.5.3l.3.2 4.7 1.7c.1 0 .1.1.1.2v.2c0 .1 0 .1-.1.2h-.2l-1.8-.6.9.4s.1 0 .1.1v.5s0 .2-.1.3l.4.3-5-3H15.9c-.1 0-.1-.1-.1-.1v-.1-.1l-.1-.1s-.1 0-.1-.1c-.1 0-.1 0-.1-.1z"/><path class="st0" d="M9.5 112.5v-.2c0-.1 0-.1.1-.1l.2-.2c.2-.1.4-.3.7-.5.3-.2.7-.5 1.1-.8.5-.3 1-.6 1.6-1 1.1-.6 1.7-1 2-1.3.3-.2.5-.4.5-.4l.1-.1h.1c.1 0 .1 0 .1.1v.2h.1l.1.1v.2c0 .1 0 .1-.1.2l-1.2.9c.2-.1.3-.2.4-.2.1-.1.2-.1.3-.1 0 0 .1 0 .1.1l.1.1v.2c0 .1-.1.1-.1.1-.1 0-.2.1-.4.2s-.4.2-.7.4c-.3.1-.5.3-.8.5-.3.2-.6.3-.9.5-.2.1-.4.2-.5.3-.2.1-.4.2-.5.3-.2.1-.4.2-.5.3-.2.1-.3.2-.5.3l.3.2 4.7 1.7c.1 0 .1.1.1.2v.2c0 .1 0 .1-.1.2h-.2l-1.8-.6.9.4s.1 0 .1.1v.5s0 .2-.1.3l.4.3-5-3H9.9c-.1 0-.1-.1-.1-.1v-.1-.1l-.1-.1s-.1 0-.1-.1c-.1 0-.1 0-.1-.1z"/></g></svg>