<svg id="Ebene_1" xmlns="http://www.w3.org/2000/svg" viewBox="0 0 140 140"><style>.st0{fill:#DDDDDD;} .st1{fill:#FFFFFF;}</style><path class="st0" d="M105 7c7.8 0 14.4 2.7 19.8 8.2 5.5 5.5 8.2 12.1 8.2 19.8s-2.7 14.4-8.2 19.8c-5.5 5.5-12.1 8.2-19.8 8.2s-14.4-2.7-19.8-8.2S77 42.7 77 35s2.7-14.4 8.2-19.8S97.2 7 105 7zm0 53.5c7 0 13-2.5 18-7.5s7.5-11 7.5-18-2.5-13-7.5-18-11-7.5-18-7.5S92 12 87 17s-7.5 11-7.5 18S82 48 87 53s11 7.5 18 7.5zm-1.4-37c.6 0 1.1.2 1.4.6s.6.9.6 1.4v18c0 .6-.2 1.1-.6 1.4s-.8.6-1.4.6-1-.2-1.4-.6l-4.6-4.6H91c-.6 0-1.1-.2-1.4-.6s-.6-.9-.6-1.5v-7.5c0-.5.2-1 .6-1.4s.9-.6 1.4-.6h6.6l4.6-4.6c.5-.4.9-.6 1.4-.6zm-7.2 14.6v-7.2h-5.2v7.2h5.2zm7.1 5V25.9l-5.2 5.2v6.8l5.2 5.2zm7.6-15.1c1.7 1.9 2.5 4.1 2.5 6.7s-.8 4.8-2.5 6.7c-.2.2-.5.4-.9.4s-.6-.1-.8-.2c-.2-.2-.4-.5-.4-.9s0-.6.2-.9c1.2-1.5 1.9-3.2 1.9-5.1s-.6-3.6-1.9-5.1c-.2-.2-.2-.5-.2-.9s.2-.6.4-.8c.2-.2.4-.4.8-.4s.7.2.9.5zm3.1-3.9c.3 0 .6.1.9.4 2.5 3 3.8 6.4 3.8 10.2s-1.2 7.1-3.8 10.1c-.2.3-.5.5-.9.5s-.6-.1-.8-.4c-.7-.5-.8-1-.2-1.6 2.1-2.5 3.1-5.4 3.1-8.6s-1-6.1-3.1-8.6c-.5-.7-.4-1.2.2-1.8.3-.1.5-.2.8-.2z"/><path class="st1" d="M105 77c7.8 0 14.4 2.7 19.8 8.2 5.5 5.5 8.2 12.1 8.2 19.8s-2.7 14.4-8.2 19.8c-5.5 5.5-12.1 8.2-19.8 8.2s-14.4-2.7-19.8-8.2c-5.5-5.5-8.2-12.1-8.2-19.8s2.7-14.4 8.2-19.8S97.2 77 105 77zm0 53.5c7 0 13-2.5 18-7.5s7.5-11 7.5-18-2.5-13-7.5-18-11-7.5-18-7.5S92 82 87 87s-7.5 11-7.5 18 2.5 13 7.5 18 11 7.5 18 7.5zm-1.4-37c.6 0 1.1.2 1.4.6s.6.9.6 1.4v18c0 .6-.2 1.1-.6 1.4s-.8.6-1.4.6-1-.2-1.4-.6l-4.6-4.6H91c-.6 0-1.1-.2-1.4-.6s-.6-.9-.6-1.4v-7.5c0-.5.2-1 .6-1.4s.9-.6 1.4-.6h6.6l4.6-4.6c.5-.5.9-.7 1.4-.7zm-7.2 14.6v-7.2h-5.2v7.2h5.2zm7.1 5V95.9l-5.2 5.2v6.8l5.2 5.2zm7.6-15.1c1.7 1.9 2.5 4.1 2.5 6.7s-.8 4.8-2.5 6.7c-.2.2-.5.4-.9.4s-.6-.1-.8-.2c-.2-.2-.4-.5-.4-.9s0-.6.2-.9c1.2-1.5 1.9-3.2 1.9-5.1s-.6-3.6-1.9-5.1c-.2-.2-.2-.5-.2-.9s.2-.6.4-.8c.2-.2.4-.4.8-.4s.7.2.9.5zm3.1-3.9c.3 0 .6.1.9.4 2.5 3 3.8 6.4 3.8 10.2s-1.2 7.1-3.8 10.1c-.2.3-.5.5-.9.5s-.6-.1-.8-.4c-.7-.5-.8-1-.2-1.6 2.1-2.5 3.1-5.4 3.1-8.6s-1-6.1-3.1-8.6c-.5-.7-.4-1.2.2-1.8.3-.1.5-.2.8-.2z"/><path class="st0" d="M35 7c7.8 0 14.4 2.7 19.8 8.2S63 27.2 63 35s-2.7 14.4-8.2 19.8S42.8 63 35 63s-14.4-2.7-19.8-8.2S7 42.7 7 35s2.7-14.4 8.2-19.8S27.2 7 35 7zm0 53.5c7 0 13-2.5 18-7.5s7.5-11 7.5-18S58 22 53 17 42 9.5 35 9.5 22 12 17 17 9.5 28 9.5 35 12 48 17 53s11 7.5 18 7.5zm-5.5-15.3c-.2 0-.4-.1-.6-.2-.4-.2-.6-.6-.6-1.1V26c0-.5.2-.9.6-1.1.4-.2.9-.2 1.3 0l15 9c.4.2.6.6.6 1.1s-.2.8-.6 1.1l-15 9c-.3.1-.5.1-.7.1zm1.3-17v13.6L42.1 35l-11.3-6.8z"/><path class="st1" d="M35 77c7.8 0 14.4 2.7 19.8 8.2S63 97.2 63 105s-2.7 14.4-8.2 19.8c-5.5 5.5-12.1 8.2-19.8 8.2s-14.4-2.7-19.8-8.2C9.7 119.4 7 112.7 7 105s2.7-14.4 8.2-19.8S27.2 77 35 77zm0 53.5c7 0 13-2.5 18-7.5s7.5-11 7.5-18S58 92 53 87s-11-7.5-18-7.5S22 82 17 87s-7.5 11-7.5 18 2.5 13 7.5 18 11 7.5 18 7.5zm-5.5-15.3c-.2 0-.4-.1-.6-.2-.4-.2-.6-.6-.6-1.1V96c0-.5.2-.9.6-1.1.4-.2.9-.2 1.3 0l15 9c.4.2.6.6.6 1.1s-.2.8-.6 1.1l-15 9c-.3.1-.5.1-.7.1zm1.3-17v13.6l11.3-6.8-11.3-6.8z"/></svg>