<svg id="Ebene_1" xmlns="http://www.w3.org/2000/svg" viewBox="0 0 32 128"><style>.st0{fill:#FFFFFF;} .st1{fill:#585856;}</style><path class="st0" d="M24.7 48.2L9.6 40.1c-.1-.1-.3-.1-.4-.1-.1.1-.2.3-.2.4v16.1c0 .2.1.3.2.4.1.1.3.1.4 0l15.1-8.1c.2-.1.3-.2.3-.3 0-.1-.1-.2-.3-.3z"/><path class="st1" d="M24.7 16.2L9.6 8.1C9.5 8 9.3 8 9.2 8c-.1.1-.2.3-.2.4v16.1c0 .2.1.3.2.4.1.1.3.1.4 0l15.1-8.1c.2-.1.3-.2.3-.3 0-.1-.1-.2-.3-.3zM9 89h5.6V72H9v17zm8.4-17v17H23V72h-5.6z"/><path class="st0" d="M9 121h5.6v-17H9v17zm8.4-17v17H23v-17h-5.6z"/></svg>