<svg xmlns="http://www.w3.org/2000/svg" id="Ebene_1" data-name="Ebene 1" viewBox="0 0 23 111"><defs><style>.cls-1{fill:#585856;}.cls-2{fill:#fff;}</style></defs><path d="M2 .38v14.24a.38.38 0 0 0 .2.33.36.36 0 0 0 .38 0l9.74-7v6.67a.38.38 0 0 0 .2.33.37.37 0 0 0 .17 0 .36.36 0 0 0 .21-.07l9.95-7.12a.38.38 0 0 0 0-.61L12.9.07a.36.36 0 0 0-.38 0 .38.38 0 0 0-.2.33V7L2.58 0a.36.36 0 0 0-.38 0 .38.38 0 0 0-.2.38z" class="cls-1"/><path d="M2 32.38v14.24a.38.38 0 0 0 .2.33.36.36 0 0 0 .38 0l9.74-7v6.67a.38.38 0 0 0 .2.33.37.37 0 0 0 .17 0 .36.36 0 0 0 .21-.07l9.95-7.12a.38.38 0 0 0 0-.61l-9.95-7.08a.36.36 0 0 0-.38 0 .38.38 0 0 0-.2.33V39l-9.74-7a.36.36 0 0 0-.38 0 .38.38 0 0 0-.2.38z" class="cls-2"/><path d="M20.8 64a.36.36 0 0 0-.38 0l-9.74 7v-6.62a.38.38 0 0 0-.2-.33.36.36 0 0 0-.38 0L.16 71.19a.38.38 0 0 0 0 .61l9.95 7.12a.36.36 0 0 0 .21.07.37.37 0 0 0 .17 0 .38.38 0 0 0 .2-.33V72l9.74 7a.36.36 0 0 0 .38 0 .38.38 0 0 0 .2-.33V64.38a.38.38 0 0 0-.21-.38z" class="cls-1"/><path d="M20.8 96a.36.36 0 0 0-.38 0l-9.74 7v-6.67a.38.38 0 0 0-.2-.33.36.36 0 0 0-.38 0l-9.95 7.12a.38.38 0 0 0 0 .61l9.95 7.12a.36.36 0 0 0 .21.07.37.37 0 0 0 .17 0 .38.38 0 0 0 .2-.33V104l9.74 7a.36.36 0 0 0 .38 0 .38.38 0 0 0 .2-.33V96.38a.38.38 0 0 0-.2-.38z" class="cls-2"/></svg>