<svg id="Ebene_1" xmlns="http://www.w3.org/2000/svg" viewBox="0 0 32 128"><style>.st0{fill:#FFD500;}</style><path class="st0" d="M25.2 80.5c.3.8.5 1.6.6 2.3.1.7 0 1.4-.2 2-.3 1.1-.9 2-1.8 2.7-.9.7-2.1 1.2-3.6 1.5-.6.1-1 .1-1.3-.2-.3-.2-.5-.4-.5-.5-.1-.2-.2-.4-.2-.5v-.6L17 88.6c-.1.3-.2.5-.3.6-.1.2-.2.3-.3.5-.2.2-.5.4-.8.5-.3.1-.6.2-.9.2-.3 0-.5-.1-.7-.2s-.4-.3-.5-.5c-.4.3-.8.4-1.3.4s-1-.2-1.6-.5c-.7-.4-1.3-.8-1.9-1.4-.5-.5-1-1.2-1.3-1.9-.4-.7-.6-1.5-.8-2.3-.2-.8-.2-1.7-.2-2.7 0-1 .2-2 .5-2.9.3-1 .6-1.9 1.1-2.8.5-.9 1.1-1.7 1.7-2.4.6-.7 1.3-1.1 2.1-1.4l.4.9c.4-.3.8-.5 1.2-.6s.9-.3 1.5-.4v-.5-.2c0-.3 0-.6.2-.9.2-.3.4-.5.7-.6.3-.1.6-.2.9-.1.3 0 .6.2.8.4l.6.6 1.4 1.4c.8.1 1.6.3 2.2.5s1.3.5 1.8.8c.5.3 1 .7 1.3 1.1.4.4.7.9.9 1.4.3.8.5 1.6.4 2.4-.4.9-.6 1.7-.9 2.5zm-16 1.1c0 .6 0 1.4.2 2.3.2.9.6 1.7 1.3 2.4 0-.2-.1-.5-.2-.7-.1-.2-.1-.5-.2-.7-.2-.7-.4-1.5-.6-2.4-.2-.9-.3-1.7-.4-2.6-.1.3-.1.5-.1.8.1.4 0 .6 0 .9zm5 5.5c.1-.2.1-.5.2-.9s.1-.9.2-1.5.1-1.3.1-2.2c0-.9.1-1.9.1-3h-.1l-1.2-2.8c.2-.1.4-.2.6-.2.2-.1.4-.1.6-.2v-.7-.7c-.3.1-.6.2-.8.3-.3.1-.5.3-.7.5-.4.4-.6 1-.7 1.6-.1.7-.1 1.4 0 2.2.1.8.2 1.6.4 2.4.2.8.4 1.6.5 2.2.1.5.2 1 .4 1.5.1.5.2.9.2 1.3V87.2l.2-.1zm7.6-6.4c.1 0 .1 0 0 0 0-.1 0-.1.1-.1-.3-.6-.6-1.1-1.1-1.8-.4-.6-.9-1.3-1.4-1.9-.3-.3-.5-.7-.8-1s-.6-.6-.8-.9v1.5c.1 0 .1.1.2.1s.2.1.2.1c1 .5 1.7 1.1 2.3 1.9.7.8 1.1 1.5 1.3 2.1zm-4 2.4l1.2-1.3c-.1-.3-.3-.6-.5-.8-.2-.3-.4-.6-.6-.8v1.6c-.1.4-.1.8-.1 1.3zM25.2 16.5c.3.8.5 1.6.6 2.3.1.7 0 1.4-.2 2-.3 1.1-.9 2-1.8 2.7-.9.7-2.1 1.2-3.6 1.5-.6.1-1 .1-1.3-.2-.3-.2-.5-.4-.5-.5-.1-.2-.2-.4-.2-.5v-.6L17 24.6c-.1.3-.2.5-.3.6-.1.2-.2.3-.3.5-.2.2-.5.4-.8.5-.3.1-.6.2-.9.2-.3 0-.5-.1-.7-.2s-.4-.3-.5-.5c-.4.3-.8.4-1.3.4s-1-.2-1.6-.5c-.7-.4-1.3-.8-1.9-1.4-.5-.5-1-1.2-1.3-1.9-.4-.7-.6-1.5-.8-2.3-.2-.8-.2-1.7-.2-2.7 0-1 .2-2 .5-2.9.3-1 .6-1.9 1.1-2.8.5-.9 1.1-1.7 1.7-2.4.3-.5 1-.9 1.8-1.2l.4.9c.4-.3.8-.5 1.2-.6s.9-.3 1.5-.4v-.5-.2c0-.3 0-.6.2-.9.2-.3.4-.5.7-.6.3-.1.6-.2.9-.1.3 0 .6.2.8.4l.6.6L19.2 8c.8.1 1.6.3 2.2.5s1.3.5 1.8.8c.5.3 1 .7 1.3 1.1.4.4.7.9.9 1.4.3.8.5 1.6.4 2.4-.1.7-.3 1.5-.6 2.3zm-16 1.1c0 .6 0 1.4.2 2.3.2.9.6 1.7 1.3 2.4 0-.2-.1-.5-.2-.7-.1-.2-.1-.5-.2-.7-.2-.7-.4-1.5-.6-2.4-.2-.9-.3-1.7-.4-2.6-.1.3-.1.5-.1.8.1.4 0 .6 0 .9zm5 5.5c.1-.2.1-.5.2-.9s.1-.9.2-1.5.1-1.3.1-2.2c0-.9.1-1.9.1-3h-.1l-1.2-2.8c.2-.1.4-.2.6-.2.2-.1.4-.1.6-.2v-.7-.7c-.3.1-.6.2-.8.3-.3.1-.5.3-.7.5-.4.4-.6 1-.7 1.6-.1.7-.1 1.4 0 2.2.1.8.2 1.6.4 2.4.2.8.4 1.6.5 2.2.1.5.2 1 .4 1.5.1.5.2.9.2 1.3V23.2l.2-.1zm7.6-6.4c.1 0 .1 0 0 0 0-.1 0-.1.1-.1-.3-.6-.6-1.1-1.1-1.8-.4-.6-.9-1.3-1.4-1.9-.3-.3-.5-.7-.8-1s-.6-.6-.8-.9v1.5c.1 0 .1.1.2.1s.2.1.2.1c1 .5 1.7 1.1 2.3 1.9.7.8 1.1 1.5 1.3 2.1zm-4 2.4l1.2-1.3c-.1-.3-.3-.6-.5-.8-.2-.3-.4-.6-.6-.8v1.6c-.1.4-.1.8-.1 1.3z"/><path d="M21.3 6c.8.3 1.5.8 2.3 1.4.8.6 1.4 1.4 2 2.4.6 1 1 2.2 1.2 3.7.3 1.5.3 3.2.1 5.2-.1.9-.3 1.7-.6 2.4s-.7 1.4-1.1 2c-.5.6-1 1.2-1.7 1.6-.6.5-1.4.9-2.2 1.2-.1 0-.3.1-.4.1-.1.1-.3.1-.4.1-.5.2-1.1.4-1.7.5-.6.1-1.2.2-1.9.2-.6 0-1.3-.1-1.9-.2-.6-.1-1.3-.3-2-.5-.9-.2-1.7-.6-2.5-1-.8-.1-1.5-.5-2.2-1.1-.6-.5-1-.9-1.4-1.5-.4-.5-.7-1.1-1-1.7-.3-.6-.5-1.2-.6-1.9-.1-.7-.2-1.3-.1-2-.1-.7-.2-1.3-.2-2 0-.6 0-1.3.1-2 0-.1 0-.2.1-.3.1-.1.2-.1.4-.1h.2l.1.1c.2-.9.6-1.8 1-2.7C7.3 9 8 8.1 8.7 7.4c.4-.5 1.1-.9 2-1.3.9-.4 2-.7 3.1-.9.4-.1.9-.1 1.4-.2s1.2 0 1.8 0c.6 0 1.3.1 2 .3.8.1 1.5.4 2.3.7zM23 22.4c.6-1 1.2-2 1.6-3 .2-.4.4-.9.5-1.5.2-.5.3-1.1.4-1.7.1-.6.2-1.2.2-1.9 0-.6-.1-1.3-.2-1.9-.2-.7-.4-1.3-.8-1.9-.3-.5-.7-1-1.2-1.5s-1.1-.9-1.8-1.2c-.7-.3-1.5-.6-2.4-.9-1-.2-1.9-.4-2.8-.5-.9-.1-1.7-.1-2.4-.1-.8 0-1.4.2-2.1.3-.6.2-1.2.4-1.7.8-.7.5-1.3 1-1.7 1.6-.5.7-.8 1.3-1.1 2-.3.7-.5 1.4-.7 2-.2.7-.3 1.3-.4 1.9l-.1.3c-.1.2-.1.5-.2.8 0 .3-.1.5-.1.8.1.7.3 1.4.5 2.1.2.6.5 1.3.8 1.9.5.9 1.1 1.7 1.9 2.4.7.7 1.6 1.3 2.5 1.8.2.1.5.3.8.4l.9.3c1.1.3 2.2.4 3.4.4 1.1 0 2.3-.2 3.3-.5.2-.1.4-.2.5-.3.2-.1.4-.2.5-.4.6-.8 1.3-1.6 1.9-2.5zm-6.6-11.6c.1 0 .1.1.2.1.1.1.1.1.1.2v1.6c0 .9 0 1.9-.1 3 0 1.1-.1 2.2-.2 3.3-.1 1.1-.1 1.9-.1 2.5 0 .1 0 .2-.1.3s-.2.1-.3.1c-.1 0-.2 0-.3-.1-.1-.1-.1-.2-.1-.4v-.1-.1c-.3-.2-.9-.6-1.7-1.2-.8-.6-1.3-1-1.7-1.3-.3 0-.7.1-1.2.1H9.8c-.2 0-.4-.2-.4-.4-.1-.3-.1-.5-.1-.8 0-.2-.1-.5-.1-.8v-1-.6-.5s0 .1-.1.1c-.1.1-.2.1-.3.1-.1 0-.2-.1-.3-.2-.1-.1-.1-.2-.1-.3 0-.1.1-.2.2-.3.1 0 .2-.1.3-.1.1 0 .2-.1.4-.1v-.4c0-.1 0-.2.1-.3.1-.1.2-.1.3-.1.1 0 .2 0 .3.1.1.1.1.2.1.4.1 0 .1-.1.2-.1h.2c.3-.1.7-.2 1-.2.3 0 .6 0 .8.1.1-.1.4-.2.8-.5s.7-.5.9-.7c.6-.5 1.1-.8 1.4-1 .5-.5.8-.5 1-.4zm-6 3.9l.1.1s.1 0 .3.1l.2-.7h-.4c-.1 0-.2.1-.2.1-.1 0-.2 0-.2.1v.4h.1c0-.1.1-.1.1-.1zm.1 1.1l-.3-.2v1.1l.3-.9zm1.2-1.1h.2c.1 0 .1 0 .2-.1h-.2-.2v.1zm.8 1.3c0-.1.2-.3.4-.4-.1 0-.3 0-.4.1-.1 0-.2.1-.2.2l-.1.1s0 .1-.1.1l.4.4s0-.1-.1-.1v-.1c0-.1 0-.2.1-.3zm.2 1.9c-.1-.1 0-.1 0 0zM13 14h.1c.1-.1.3-.2.4-.3l.4-.4.1-.1.1-.1c-.2.2-.5.4-.7.5l-.6.3c.1.1.2.1.2.1zm.4 2.2c0 .1.1.1 0 0 .1.1.2.1.3.1 0 0 .1-.1.2-.1s.1-.1.2-.2l-.1-.1s-.1 0-.1-.1l-.2.2c-.1.1-.2.2-.3.2zm.4 1.5l.5.4c.1-.1.1-.2.2-.3.1-.1.1-.2.2-.3v-.1-.1c0 .1-.1.1-.1.2-.1 0-.1.1-.2.1l-.6.1zm.6 1.5c.1.1.3.2.4.3.1.1.2.2.4.3 0-.1-.1-.3-.1-.5s-.1-.4-.1-.6c0 .1-.1.1-.1.2l-.1.1-.1.1c-.2.1-.2.1-.3.1zm.9-5.8v-.1-.1c-.1 0-.1.1-.2.2s-.1.2-.2.3h.1c.1 0 .1.1.2.1h.1c0-.1 0-.1.1-.2-.1-.1-.1-.1-.1-.2zm0 3c0-.1.1-.1.1-.2V16v-.1s-.1 0-.1-.1l-.1.1s0 .1-.1.1c0 0 .1.1.1.2s.1.2.1.2zm.5-4.2V12v-.2s-.1.1-.2.1-.1.1-.1.1v.1h.1c.1 0 .2 0 .2.1 0-.1 0 0 0 0zm-.1 3v-.1-.1.1c-.1 0-.1 0 0 .1zm3.5 4.2l-.1.1H18.8c-.1 0-.1-.1-.1-.1-.1-.1-.2-.2-.2-.3 0-.1 0-.2.2-.3.5-.5.9-1 1.1-1.4.2-.5.3-.9.2-1.3-.1-.5-.4-1-.8-1.3-.4-.4-.7-.6-1.1-.7-.1 0-.2-.1-.3-.2v-.4c0-.1.1-.2.2-.3h.3c.3.1.8.4 1.3.9s.9 1.1 1 1.8c.1.6 0 1.2-.2 1.8-.1.5-.6 1.1-1.2 1.7zm2.3-7c.6.4 1.1.9 1.4 1.5.3.6.5 1.3.5 2.1 0 .9-.2 1.6-.6 2.2-.4.6-.8 1.1-1.3 1.5-.5.4-.9.7-1.3.9-.4.2-.6.3-.7.3h-.1-.1c-.1 0-.2 0-.3-.1-.1 0-.1-.1-.2-.2v-.3c.1-.1.1-.2.2-.2.7-.3 1.2-.6 1.6-1 .4-.3.8-.8 1.1-1.3.3-.5.5-1.2.5-1.9 0-.6-.1-1.2-.4-1.6-.2-.5-.6-.9-1.1-1.2-.5-.3-.9-.5-1.3-.6-.4-.1-.7-.2-.9-.2-.1 0-.2 0-.3-.1-.1-.1-.1-.2-.1-.4 0-.1 0-.3.1-.3s.2-.1.3-.1c.2 0 .6.1 1.1.3.9.1 1.4.3 1.9.7zm4.4 6.3v-.2s0-.1.1-.1c-.3 1-.8 2-1.3 3s-1 1.8-1.6 2.6c.8-.6 1.4-1.4 1.9-2.3.4-1 .7-1.9.9-3z"/><path class="st0" d="M21.3 38c.8.3 1.5.8 2.3 1.4.8.6 1.4 1.4 2 2.4.6 1 1 2.2 1.2 3.7.3 1.5.3 3.2.1 5.2-.1.9-.3 1.7-.6 2.4s-.7 1.4-1.1 2c-.5.6-1 1.2-1.7 1.6-.6.5-1.4.9-2.2 1.2-.1 0-.3.1-.4.1-.1.1-.3.1-.4.1-.5.2-1.1.4-1.7.5s-1.3.4-1.9.4c-.6 0-1.3-.1-1.9-.2-.6-.1-1.3-.3-2-.5-.9-.2-1.7-.6-2.5-1-.8-.3-1.5-.7-2.2-1.3-.6-.5-1-.9-1.4-1.5-.4-.5-.7-1.1-1-1.7-.3-.6-.5-1.2-.6-1.9-.1-.7-.2-1.3-.1-2-.1-.7-.2-1.3-.2-2 0-.6 0-1.3.1-2 0-.1 0-.2.1-.3.1-.1.2-.1.4-.1h.2l.1.1c.2-.9.6-1.8 1-2.7.4-.9 1.1-1.8 1.8-2.5.4-.5 1.1-.9 2-1.3s2-.7 3.1-.9c.4-.1.9-.1 1.4-.2s1.2 0 1.8 0c.6 0 1.3.1 2 .3.8.1 1.5.4 2.3.7zM23 54.4c.6-1 1.2-2 1.6-3 .2-.4.4-.9.5-1.5.2-.5.3-1.1.4-1.7.1-.6.2-1.2.2-1.9 0-.6-.1-1.3-.2-1.9-.2-.7-.4-1.3-.8-1.9s-.7-1-1.2-1.5-1.1-.9-1.8-1.2c-.7-.3-1.5-.6-2.4-.9-1-.2-1.9-.4-2.8-.5-.9-.1-1.7-.1-2.4-.1-.8 0-1.4.2-2.1.3-.6.2-1.2.4-1.7.8-.7.4-1.2 1-1.7 1.6-.4.6-.8 1.3-1.1 1.9S7 44.3 6.8 45c-.2.7-.3 1.3-.4 1.9l-.1.3c-.1.2-.1.5-.2.8 0 .3-.1.5-.1.8.1.7.3 1.4.5 2.1.2.6.5 1.3.8 1.9.5.9 1.1 1.7 1.9 2.4.7.7 1.6 1.3 2.5 1.8.2.1.5.3.8.4l.9.3c1.1.3 2.2.4 3.4.4 1.1 0 2.3-.2 3.3-.5.2-.1.4-.2.5-.3.2-.1.4-.2.5-.4.6-.8 1.3-1.6 1.9-2.5zm-6.6-11.6c.1 0 .1.1.2.1.1.1.1.1.1.2v1.6c0 .9 0 1.9-.1 3 0 1.1-.1 2.2-.2 3.3-.1 1.1-.1 1.9-.1 2.5 0 .1 0 .2-.1.3s-.2.1-.3.1c-.1 0-.2 0-.3-.1-.1-.1-.1-.2-.1-.4v-.1-.1c-.3-.2-.9-.6-1.7-1.2-.8-.6-1.3-1-1.7-1.3-.3 0-.7.1-1.2.1H9.8c-.2 0-.4-.2-.4-.4-.1-.3-.1-.5-.1-.8 0-.2-.1-.5-.1-.8v-1-.6-.5s0 .1-.1.1c-.1.1-.2.1-.3.1-.1 0-.2-.1-.3-.2-.1-.1-.1-.2-.1-.3 0-.1.1-.2.2-.3.1 0 .2-.1.3-.1.1 0 .2-.1.4-.1v-.4c0-.1 0-.2.1-.3.1-.1.2-.1.3-.1.1 0 .2 0 .3.1.1.1.1.2.1.4.1 0 .1-.1.2-.1h.2c.3-.1.7-.2 1-.2.3 0 .6 0 .8.1.1-.1.4-.2.8-.5s.7-.5.9-.7c.6-.5 1.1-.8 1.4-1 .5-.5.8-.5 1-.4zm-6 3.9l.1.1s.1 0 .3.1l.2-.7h-.4c-.1 0-.2.1-.2.1-.1 0-.2 0-.2.1v.4h.1c0-.1.1-.1.1-.1zm.1 1.1l-.3-.2v1.1l.3-.9zm1.2-1.1h.2c.1 0 .1 0 .2-.1h-.2-.2v.1zm.8 1.3c0-.1.2-.3.4-.4-.1 0-.3 0-.4.1-.1 0-.2.1-.2.2l-.1.1s0 .1-.1.1l.4.4s0-.1-.1-.1v-.1c0-.1 0-.2.1-.3zm.2 1.9c-.1-.1 0-.1 0 0zM13 46h.1c.1-.1.3-.2.4-.3l.4-.4.1-.1.1-.1c-.2.2-.5.4-.7.5l-.6.3c.1.1.2.1.2.1zm.4 2.2c0 .1.1.1 0 0 .1.1.2.1.3.1 0 0 .1-.1.2-.1s.1-.1.2-.2l-.1-.1s-.1 0-.1-.1l-.2.2c-.1.1-.2.2-.3.2zm.4 1.5l.5.4c.1-.1.1-.2.2-.3.1-.1.1-.2.2-.3v-.1-.1c0 .1-.1.1-.1.2-.1 0-.1.1-.2.1l-.6.1zm.6 1.5c.1.1.3.2.4.3.1.1.2.2.4.3 0-.1-.1-.3-.1-.5s-.1-.4-.1-.6c0 .1-.1.1-.1.2l-.1.1-.1.1c-.2.1-.2.1-.3.1zm.9-5.8v-.1-.1c-.1 0-.1.1-.2.2s-.1.2-.2.3h.1c.1 0 .1.1.2.1h.1c0-.1 0-.1.1-.2-.1-.1-.1-.1-.1-.2zm0 3c0-.1.1-.1.1-.2V48v-.1s-.1 0-.1-.1l-.1.1s0 .1-.1.1c0 0 .1.1.1.2s.1.2.1.2zm.5-4.2V44v-.2s-.1.1-.2.1-.1.1-.1.1v.1h.1c.1 0 .2 0 .2.1 0-.1 0 0 0 0zm-.1 3v-.1-.1.1c-.1 0-.1 0 0 .1zm3.5 4.2l-.1.1H18.8c-.1 0-.1-.1-.1-.1-.1-.1-.2-.2-.2-.3 0-.1 0-.2.2-.3.5-.5.9-1 1.1-1.4.2-.5.3-.9.2-1.3-.1-.5-.4-1-.8-1.3-.4-.4-.7-.6-1.1-.7-.1 0-.2-.1-.3-.2v-.4c0-.1.1-.2.2-.3h.3c.3.1.8.4 1.3.9s.9 1.1 1 1.8c.1.6 0 1.2-.2 1.8-.1.5-.6 1.1-1.2 1.7zm2.3-7c.6.4 1.1.9 1.4 1.5.3.6.5 1.3.5 2.1 0 .9-.2 1.6-.6 2.2-.4.6-.8 1.1-1.3 1.5-.5.4-.9.7-1.3.9-.4.2-.6.3-.7.3h-.1-.1c-.1 0-.2 0-.3-.1-.1 0-.1-.1-.2-.2v-.3c.1-.1.1-.2.2-.2.7-.3 1.2-.6 1.6-1 .4-.3.8-.8 1.1-1.3.3-.5.5-1.2.5-1.9 0-.6-.1-1.2-.4-1.6-.2-.5-.6-.9-1.1-1.2-.5-.3-.9-.5-1.3-.6-.4-.1-.7-.2-.9-.2-.1 0-.2 0-.3-.1-.1-.1-.1-.2-.1-.4 0-.1 0-.3.1-.3s.2-.1.3-.1c.2 0 .6.1 1.1.3.9.1 1.4.3 1.9.7zm4.4 6.3v-.2s0-.1.1-.1c-.3 1-.8 2-1.3 3s-1 1.8-1.6 2.6c.8-.6 1.4-1.4 1.9-2.3.4-1 .7-1.9.9-3z"/><path d="M21.3 70c.8.3 1.5.8 2.3 1.4.8.6 1.4 1.4 2 2.4.6 1 1 2.2 1.2 3.7.3 1.5.3 3.2.1 5.2-.1.9-.3 1.7-.6 2.4s-.7 1.4-1.1 2c-.5.6-1 1.2-1.7 1.6-.6.5-1.4.9-2.2 1.2-.1 0-.3.1-.4.1-.1.1-.3.1-.4.1-.5.2-1.1.4-1.7.5-.6.1-1.2.2-1.9.2-.6 0-1.3-.1-1.9-.2-.6-.1-1.3-.3-2-.5-.9-.2-1.7-.6-2.5-1-.8-.1-1.5-.5-2.2-1.1-.6-.5-1-.9-1.4-1.5-.4-.5-.7-1.1-1-1.7-.3-.6-.5-1.2-.6-1.9-.1-.7-.2-1.3-.1-2-.1-.7-.2-1.3-.2-2 0-.6 0-1.3.1-2 0-.1 0-.2.1-.3.1-.1.2-.1.4-.1h.2l.1.1c.2-.9.6-1.8 1-2.7.4-.9 1.1-1.8 1.8-2.5.4-.5 1.1-.9 2-1.3.9-.4 2-.7 3.1-.9.4-.1.9-.1 1.4-.2s1.2 0 1.8 0c.6 0 1.3.1 2 .3.8.1 1.5.4 2.3.7zM23 86.4c.6-1 1.2-2 1.6-3 .2-.4.4-.9.5-1.5.2-.5.3-1.1.4-1.7.1-.6.2-1.2.2-1.9 0-.6-.1-1.3-.2-1.9-.2-.7-.4-1.3-.8-1.9-.3-.5-.7-1-1.2-1.5s-1.1-.9-1.8-1.2c-.7-.3-1.5-.6-2.4-.9-1-.2-1.9-.4-2.8-.5-.9-.1-1.7-.1-2.4-.1-.8 0-1.4.2-2.1.3-.6.2-1.2.4-1.7.8-.7.4-1.2 1-1.7 1.6-.4.6-.8 1.3-1.1 1.9-.3.7-.5 1.4-.7 2-.2.7-.3 1.3-.4 1.9l-.1.3c-.1.2-.1.5-.2.8 0 .3-.1.5-.1.8.1.7.3 1.4.5 2.1.2.6.5 1.3.8 1.9.5.9 1.1 1.7 1.9 2.4.7.7 1.6 1.3 2.5 1.8.2.1.5.3.8.4l.9.3c1.1.3 2.2.4 3.4.4 1.1 0 2.3-.2 3.3-.5.2-.1.4-.2.5-.3.2-.1.4-.2.5-.4.6-.7 1.3-1.5 1.9-2.4zm-6.6-11.6c.1 0 .1.1.2.1.1.1.1.1.1.2v1.6c0 .9 0 1.9-.1 3 0 1.1-.1 2.2-.2 3.3-.1 1.1-.1 1.9-.1 2.5 0 .1 0 .2-.1.3s-.2.1-.3.1c-.1 0-.2 0-.3-.1-.1-.1-.1-.2-.1-.4v-.1-.1c-.3-.2-.9-.6-1.7-1.2-.8-.6-1.3-1-1.7-1.3-.3 0-.7.1-1.2.1H9.8c-.2 0-.4-.2-.4-.4-.1-.3-.1-.5-.1-.8 0-.2-.1-.5-.1-.8v-1-.6-.5s0 .1-.1.1c-.1.1-.2.1-.3.1-.1 0-.2-.1-.3-.2-.1-.1-.1-.2-.1-.3 0-.1.1-.2.2-.3.1 0 .2-.1.3-.1.1 0 .2-.1.4-.1v-.4c0-.1 0-.2.1-.3.1-.1.2-.1.3-.1.1 0 .2 0 .3.1.1.1.1.2.1.4.1 0 .1-.1.2-.1h.2c.3-.1.7-.2 1-.2.3 0 .6 0 .8.1.1-.1.4-.2.8-.5s.7-.5.9-.7c.6-.5 1.1-.8 1.4-1 .5-.5.8-.5 1-.4zm-6 3.9l.1.1s.1 0 .3.1l.2-.7h-.4c-.1 0-.2.1-.2.1-.1 0-.2 0-.2.1v.4h.1c0-.1.1-.1.1-.1zm.1 1.1l-.3-.2v1.1l.3-.9zm1.2-1.1h.2c.1 0 .1 0 .2-.1h-.2-.2v.1zm.8 1.3c0-.1.2-.3.4-.4-.1 0-.3 0-.4.1-.1 0-.2.1-.2.2l-.1.1s0 .1-.1.1l.4.4s0-.1-.1-.1v-.1c0-.1 0-.2.1-.3zm.2 1.9c-.1-.1 0-.1 0 0zM13 78h.1c.1-.1.3-.2.4-.3l.4-.4.1-.1.1-.1c-.2.2-.5.4-.7.5l-.6.3c.1.1.2.1.2.1zm.4 2.2c0 .1.1.1 0 0 .1.1.2.1.3.1 0 0 .1-.1.2-.1s.1-.1.2-.2l-.1-.1s-.1 0-.1-.1l-.2.2c-.1.1-.2.2-.3.2zm.4 1.5l.5.4c.1-.1.1-.2.2-.3.1-.1.1-.2.2-.3v-.1-.1c0 .1-.1.1-.1.2-.1 0-.1.1-.2.1l-.6.1zm.6 1.5c.1.1.3.2.4.3.1.1.2.2.4.3 0-.1-.1-.3-.1-.5s-.1-.4-.1-.6c0 .1-.1.1-.1.2l-.1.1-.1.1c-.2.1-.2.1-.3.1zm.9-5.8v-.1-.1c-.1 0-.1.1-.2.2s-.1.2-.2.3h.1c.1 0 .1.1.2.1h.1c0-.1 0-.1.1-.2-.1-.1-.1-.1-.1-.2zm0 3c0-.1.1-.1.1-.2V80v-.1s-.1 0-.1-.1l-.1.1s0 .1-.1.1c0 0 .1.1.1.2s.1.2.1.2zm.5-4.2V76v-.2s-.1.1-.2.1-.1.1-.1.1v.1h.1c.1 0 .2 0 .2.1 0-.1 0 0 0 0zm-.1 3v-.1-.1.1c-.1 0-.1 0 0 .1zm10.2 3.5v-.2s0-.1.1-.1c-.3 1-.8 2-1.3 3s-1 1.8-1.6 2.6c.8-.6 1.4-1.4 1.9-2.3.4-1 .7-1.9.9-3z"/><path class="st0" d="M21.3 102c.8.3 1.5.8 2.3 1.4.8.6 1.4 1.4 2 2.4.6 1 1 2.2 1.2 3.7.3 1.5.3 3.2.1 5.2-.1.9-.3 1.7-.6 2.4s-.7 1.4-1.1 2c-.5.6-1 1.2-1.7 1.6-.6.5-1.4.9-2.2 1.2-.1 0-.3.1-.4.1-.1.1-.3.1-.4.1-.5.2-1.1.4-1.7.5-.6.1-1.2.2-1.9.2-.6 0-1.3-.1-1.9-.2-.6-.1-1.3-.3-2-.5-.9-.2-1.7-.6-2.5-1-.8-.1-1.5-.5-2.2-1.1-.6-.5-1-.9-1.4-1.5-.4-.5-.7-1.1-1-1.7-.3-.6-.5-1.2-.6-1.9-.1-.7-.2-1.3-.1-2-.1-.6-.2-1.3-.2-1.9 0-.6 0-1.3.1-2 0-.1 0-.2.1-.3.1-.1.2-.1.4-.1h.2l.1.1c.2-.9.6-1.8 1-2.7.5-.9 1.1-1.8 1.9-2.5.4-.5 1.1-.9 2-1.3.9-.4 2-.7 3.1-.9.4-.1.9-.1 1.4-.2s1.2 0 1.8 0c.6 0 1.3.1 2 .3.7 0 1.4.3 2.2.6zm1.7 16.4c.6-1 1.2-2 1.6-3 .2-.4.4-.9.5-1.5.2-.5.3-1.1.4-1.7.1-.6.2-1.2.2-1.9 0-.6-.1-1.3-.2-1.9-.2-.7-.4-1.3-.8-1.9-.3-.6-.8-1.1-1.3-1.5-.5-.5-1.1-.9-1.8-1.2-.7-.3-1.5-.6-2.4-.9-1-.2-1.9-.4-2.8-.5-.9-.1-1.7-.1-2.4-.1-.8 0-1.4.2-2.1.3-.6.2-1.2.4-1.7.8-.7.4-1.2 1-1.7 1.6-.4.6-.8 1.3-1.1 1.9-.3.7-.5 1.4-.7 2-.2.7-.3 1.3-.4 1.9l-.1.3c-.1.2-.1.5-.2.8 0 .3-.1.5-.1.8.1.7.3 1.4.5 2.1.2.6.5 1.3.8 1.9.5.9 1.1 1.7 1.9 2.4.7.7 1.6 1.3 2.5 1.8.2.1.5.3.8.4l.9.3c1.1.3 2.2.4 3.4.4 1.1 0 2.3-.2 3.3-.5.2-.1.4-.2.5-.3.2-.1.4-.2.5-.4.7-.7 1.4-1.5 2-2.4zm-6.6-11.6c.1 0 .1.1.2.1.1.1.1.1.1.2v1.6c0 .9 0 1.9-.1 3 0 1.1-.1 2.2-.2 3.3-.1 1.1-.1 1.9-.1 2.5 0 .1 0 .2-.1.3s-.2.1-.3.1c-.1 0-.2 0-.3-.1-.1-.1-.1-.2-.1-.4v-.1-.1c-.3-.2-.9-.6-1.7-1.2-.8-.6-1.3-1-1.7-1.3-.3 0-.7.1-1.2.1H9.8c-.2 0-.4-.2-.4-.4-.1-.3-.1-.5-.1-.8 0-.2-.1-.5-.1-.8v-1-.6-.5s0 .1-.1.1c-.1.1-.2.1-.3.1-.1 0-.2-.1-.3-.2-.1-.1-.1-.2-.1-.3 0-.1.1-.2.2-.3.1 0 .2-.1.3-.1.1 0 .2-.1.4-.1v-.4c0-.1 0-.2.1-.3.1-.1.2-.1.3-.1.1 0 .2 0 .3.1.1.1.1.2.1.4.1 0 .1-.1.2-.1h.2c.3-.1.7-.2 1-.2.3 0 .6 0 .8.1.1-.1.4-.2.8-.5s.7-.5.9-.7c.6-.5 1.1-.8 1.4-1 .5-.5.8-.5 1-.4zm-6 3.9l.1.1s.1 0 .3.1l.2-.7h-.4c-.1 0-.2.1-.2.1-.1 0-.2 0-.2.1v.4h.1c0-.1.1-.1.1-.1zm.1 1.1l-.3-.2v1.1l.3-.9zm1.2-1.1h.2c.1 0 .1 0 .2-.1h-.2-.2v.1zm.8 1.3c0-.1.2-.3.4-.4-.1 0-.3 0-.4.1-.1 0-.2.1-.2.2l-.1.1s0 .1-.1.1l.4.4s0-.1-.1-.1v-.1c0-.1 0-.2.1-.3zm.2 1.9c-.1-.1 0-.1 0 0zm.3-3.9h.1c.1-.1.3-.2.4-.3l.4-.4.1-.1.1-.1c-.2.2-.5.4-.7.5l-.6.3c.1.1.2.1.2.1zm.4 2.2c0 .1.1.1 0 0 .1.1.2.1.3.1 0 0 .1-.1.2-.1s.1-.1.2-.2l-.1-.1s-.1 0-.1-.1l-.2.2c-.1.1-.2.2-.3.2zm.4 1.5l.5.4c.1-.1.1-.2.2-.3.1-.1.1-.2.2-.3v-.1-.1c0 .1-.1.1-.1.2-.1 0-.1.1-.2.1l-.6.1zm.6 1.5c.1.1.3.2.4.3.1.1.2.2.4.3 0-.1-.1-.3-.1-.5s-.1-.4-.1-.6c0 .1-.1.1-.1.2l-.1.1-.1.1c-.2.1-.2.1-.3.1zm.9-5.8v-.1-.1c-.1 0-.1.1-.2.2s-.1.2-.2.3h.1c.1 0 .1.1.2.1h.1c0-.1 0-.1.1-.2-.1-.1-.1-.1-.1-.2zm0 3c0-.1.1-.1.1-.2v-.2-.1s-.1 0-.1-.1l-.1.1s0 .1-.1.1c0 0 .1.1.1.2s.1.2.1.2zm.5-4.2v-.2-.2s-.1.1-.2.1-.1.1-.1.1v.1h.1c.1 0 .2 0 .2.1 0-.1 0 0 0 0zm-.1 3v-.1-.1.1c-.1 0-.1 0 0 .1zm10.2 3.5v-.2s0-.1.1-.1c-.3 1-.8 2-1.3 3s-1 1.8-1.6 2.6c.8-.6 1.4-1.4 1.9-2.3.4-1 .7-1.9.9-3z"/></svg>