<svg id="Ebene_1" data-name="Ebene 1" xmlns="http://www.w3.org/2000/svg" viewBox="0 0 21 112.14"><defs><style>.cls-1{fill:#585856;}.cls-2{fill:#fff;}</style></defs><title>spr-speaker</title><path class="cls-1" d="M16.51,23.17A1,1,0,0,1,16,24a.94.94,0,0,1-1-.13l-5.21-4.4H7a1,1,0,0,1-1-1V14.67a1,1,0,0,1,1-1H9.73l5.21-4.4a.94.94,0,0,1,1-.13,1,1,0,0,1,.55.88V23.17Zm3.66-1.52H20.1a.94.94,0,0,1-.67-.28l-.13-.13A1,1,0,0,1,19.21,20,5.74,5.74,0,0,0,19.06,13a1,1,0,0,1,.07-1.3l.13-.13a.92.92,0,0,1,.72-.28,1,1,0,0,1,.69.36,7.9,7.9,0,0,1,.2,9.57A1,1,0,0,1,20.17,21.65Zm3.94,3a1,1,0,0,1-.69.34h0a.94.94,0,0,1-.67-.28l-.13-.13a1,1,0,0,1-.06-1.31,10.51,10.51,0,0,0-.17-13.53,1,1,0,0,1,0-1.33l.13-.13a.92.92,0,0,1,.7-.29,1,1,0,0,1,.69.33,12.66,12.66,0,0,1,.2,16.33Z" transform="translate(-6 -8)"/><path class="cls-2" d="M16.51,55.17A1,1,0,0,1,16,56a.94.94,0,0,1-1-.13l-5.21-4.4H7a1,1,0,0,1-1-1V46.67a1,1,0,0,1,1-1H9.73l5.21-4.4a.94.94,0,0,1,1-.13,1,1,0,0,1,.55.88V55.17Zm3.66-1.52H20.1a.94.94,0,0,1-.67-.28l-.13-.13A1,1,0,0,1,19.21,52,5.74,5.74,0,0,0,19.06,45a1,1,0,0,1,.07-1.3l.13-.13a.92.92,0,0,1,.72-.28,1,1,0,0,1,.69.36,7.9,7.9,0,0,1,.2,9.57A1,1,0,0,1,20.17,53.65Zm3.94,3a1,1,0,0,1-.69.34h0a.94.94,0,0,1-.67-.28l-.13-.13a1,1,0,0,1-.06-1.31,10.51,10.51,0,0,0-.17-13.53,1,1,0,0,1,0-1.33l.13-.13a.92.92,0,0,1,.7-.29,1,1,0,0,1,.69.33,12.66,12.66,0,0,1,.2,16.33Z" transform="translate(-6 -8)"/><path class="cls-1" d="M16.51,87.17A1,1,0,0,1,16,88a.94.94,0,0,1-1-.13l-5.21-4.4H7a1,1,0,0,1-1-1V78.67a1,1,0,0,1,1-1H9.73l5.21-4.4a.94.94,0,0,1,1-.13,1,1,0,0,1,.55.88V87.17Z" transform="translate(-6 -8)"/><path class="cls-2" d="M16.51,119.17A1,1,0,0,1,16,120a.94.94,0,0,1-1-.13l-5.21-4.4H7a1,1,0,0,1-1-1v-3.87a1,1,0,0,1,1-1H9.73l5.21-4.4a.94.94,0,0,1,1-.13,1,1,0,0,1,.55.88v13.12Z" transform="translate(-6 -8)"/></svg>